<?xml version="1.0" encoding="utf-8" standalone="no"?>
<!DOCTYPE svg PUBLIC "-//W3C//DTD SVG 1.1//EN"
  "http://www.w3.org/Graphics/SVG/1.1/DTD/svg11.dtd">
<svg xmlns:xlink="http://www.w3.org/1999/xlink" width="1080pt" height="648pt" viewBox="0 0 1080 648" xmlns="http://www.w3.org/2000/svg" version="1.1">
 <metadata>
  <rdf:RDF xmlns:dc="http://purl.org/dc/elements/1.1/" xmlns:cc="http://creativecommons.org/ns#" xmlns:rdf="http://www.w3.org/1999/02/22-rdf-syntax-ns#">
   <cc:Work>
    <dc:type rdf:resource="http://purl.org/dc/dcmitype/StillImage"/>
    <dc:date>2024-12-09T15:15:54.263397</dc:date>
    <dc:format>image/svg+xml</dc:format>
    <dc:creator>
     <cc:Agent>
      <dc:title>Matplotlib v3.9.2, https://matplotlib.org/</dc:title>
     </cc:Agent>
    </dc:creator>
   </cc:Work>
  </rdf:RDF>
 </metadata>
 <defs>
  <style type="text/css">*{stroke-linejoin: round; stroke-linecap: butt}</style>
 </defs>
 <g id="figure_1">
  <g id="patch_1">
   <path d="M 0 648 
L 1080 648 
L 1080 0 
L 0 0 
z
" style="fill: #ffffff"/>
  </g>
  <g id="axes_1">
   <g id="patch_2">
    <path d="M 86.58 585.54 
L 1062 585.54 
L 1062 18 
L 86.58 18 
z
" style="fill: #eaeaf2"/>
   </g>
   <g id="matplotlib.axis_1">
    <g id="xtick_1">
     <g id="text_1">
      <!-- 15% -->
      <g style="fill: #262626" transform="translate(167.610398 606.850391) scale(0.165 -0.165)">
       <defs>
        <path id="ArialMT-31" d="M 2384 0 
L 1822 0 
L 1822 3584 
Q 1619 3391 1289 3197 
Q 959 3003 697 2906 
L 697 3450 
Q 1169 3672 1522 3987 
Q 1875 4303 2022 4600 
L 2384 4600 
L 2384 0 
z
" transform="scale(0.015625)"/>
        <path id="ArialMT-35" d="M 266 1200 
L 856 1250 
Q 922 819 1161 601 
Q 1400 384 1738 384 
Q 2144 384 2425 690 
Q 2706 997 2706 1503 
Q 2706 1984 2436 2262 
Q 2166 2541 1728 2541 
Q 1456 2541 1237 2417 
Q 1019 2294 894 2097 
L 366 2166 
L 809 4519 
L 3088 4519 
L 3088 3981 
L 1259 3981 
L 1013 2750 
Q 1425 3038 1878 3038 
Q 2478 3038 2890 2622 
Q 3303 2206 3303 1553 
Q 3303 931 2941 478 
Q 2500 -78 1738 -78 
Q 1113 -78 717 272 
Q 322 622 266 1200 
z
" transform="scale(0.015625)"/>
        <path id="ArialMT-25" d="M 372 3481 
Q 372 3972 619 4315 
Q 866 4659 1334 4659 
Q 1766 4659 2048 4351 
Q 2331 4044 2331 3447 
Q 2331 2866 2045 2552 
Q 1759 2238 1341 2238 
Q 925 2238 648 2547 
Q 372 2856 372 3481 
z
M 1350 4272 
Q 1141 4272 1002 4090 
Q 863 3909 863 3425 
Q 863 2984 1003 2804 
Q 1144 2625 1350 2625 
Q 1563 2625 1702 2806 
Q 1841 2988 1841 3469 
Q 1841 3913 1700 4092 
Q 1559 4272 1350 4272 
z
M 1353 -169 
L 3859 4659 
L 4316 4659 
L 1819 -169 
L 1353 -169 
z
M 3334 1075 
Q 3334 1569 3581 1911 
Q 3828 2253 4300 2253 
Q 4731 2253 5014 1945 
Q 5297 1638 5297 1041 
Q 5297 459 5011 145 
Q 4725 -169 4303 -169 
Q 3888 -169 3611 142 
Q 3334 453 3334 1075 
z
M 4316 1866 
Q 4103 1866 3964 1684 
Q 3825 1503 3825 1019 
Q 3825 581 3965 400 
Q 4106 219 4313 219 
Q 4528 219 4667 400 
Q 4806 581 4806 1063 
Q 4806 1506 4665 1686 
Q 4525 1866 4316 1866 
z
" transform="scale(0.015625)"/>
       </defs>
       <use xlink:href="#ArialMT-31"/>
       <use xlink:href="#ArialMT-35" x="55.615234"/>
       <use xlink:href="#ArialMT-25" x="111.230469"/>
      </g>
     </g>
    </g>
    <g id="xtick_2">
     <g id="text_2">
      <!-- 30% -->
      <g style="fill: #262626" transform="translate(362.694398 606.850391) scale(0.165 -0.165)">
       <defs>
        <path id="ArialMT-33" d="M 269 1209 
L 831 1284 
Q 928 806 1161 595 
Q 1394 384 1728 384 
Q 2125 384 2398 659 
Q 2672 934 2672 1341 
Q 2672 1728 2419 1979 
Q 2166 2231 1775 2231 
Q 1616 2231 1378 2169 
L 1441 2663 
Q 1497 2656 1531 2656 
Q 1891 2656 2178 2843 
Q 2466 3031 2466 3422 
Q 2466 3731 2256 3934 
Q 2047 4138 1716 4138 
Q 1388 4138 1169 3931 
Q 950 3725 888 3313 
L 325 3413 
Q 428 3978 793 4289 
Q 1159 4600 1703 4600 
Q 2078 4600 2393 4439 
Q 2709 4278 2876 4000 
Q 3044 3722 3044 3409 
Q 3044 3113 2884 2869 
Q 2725 2625 2413 2481 
Q 2819 2388 3044 2092 
Q 3269 1797 3269 1353 
Q 3269 753 2831 336 
Q 2394 -81 1725 -81 
Q 1122 -81 723 278 
Q 325 638 269 1209 
z
" transform="scale(0.015625)"/>
        <path id="ArialMT-30" d="M 266 2259 
Q 266 3072 433 3567 
Q 600 4063 929 4331 
Q 1259 4600 1759 4600 
Q 2128 4600 2406 4451 
Q 2684 4303 2865 4023 
Q 3047 3744 3150 3342 
Q 3253 2941 3253 2259 
Q 3253 1453 3087 958 
Q 2922 463 2592 192 
Q 2263 -78 1759 -78 
Q 1097 -78 719 397 
Q 266 969 266 2259 
z
M 844 2259 
Q 844 1131 1108 757 
Q 1372 384 1759 384 
Q 2147 384 2411 759 
Q 2675 1134 2675 2259 
Q 2675 3391 2411 3762 
Q 2147 4134 1753 4134 
Q 1366 4134 1134 3806 
Q 844 3388 844 2259 
z
" transform="scale(0.015625)"/>
       </defs>
       <use xlink:href="#ArialMT-33"/>
       <use xlink:href="#ArialMT-30" x="55.615234"/>
       <use xlink:href="#ArialMT-25" x="111.230469"/>
      </g>
     </g>
    </g>
    <g id="xtick_3">
     <g id="text_3">
      <!-- 50% -->
      <g style="fill: #262626" transform="translate(557.778398 606.850391) scale(0.165 -0.165)">
       <use xlink:href="#ArialMT-35"/>
       <use xlink:href="#ArialMT-30" x="55.615234"/>
       <use xlink:href="#ArialMT-25" x="111.230469"/>
      </g>
     </g>
    </g>
    <g id="xtick_4">
     <g id="text_4">
      <!-- 80% -->
      <g style="fill: #262626" transform="translate(752.862398 606.850391) scale(0.165 -0.165)">
       <defs>
        <path id="ArialMT-38" d="M 1131 2484 
Q 781 2613 612 2850 
Q 444 3088 444 3419 
Q 444 3919 803 4259 
Q 1163 4600 1759 4600 
Q 2359 4600 2725 4251 
Q 3091 3903 3091 3403 
Q 3091 3084 2923 2848 
Q 2756 2613 2416 2484 
Q 2838 2347 3058 2040 
Q 3278 1734 3278 1309 
Q 3278 722 2862 322 
Q 2447 -78 1769 -78 
Q 1091 -78 675 323 
Q 259 725 259 1325 
Q 259 1772 486 2073 
Q 713 2375 1131 2484 
z
M 1019 3438 
Q 1019 3113 1228 2906 
Q 1438 2700 1772 2700 
Q 2097 2700 2305 2904 
Q 2513 3109 2513 3406 
Q 2513 3716 2298 3927 
Q 2084 4138 1766 4138 
Q 1444 4138 1231 3931 
Q 1019 3725 1019 3438 
z
M 838 1322 
Q 838 1081 952 856 
Q 1066 631 1291 507 
Q 1516 384 1775 384 
Q 2178 384 2440 643 
Q 2703 903 2703 1303 
Q 2703 1709 2433 1975 
Q 2163 2241 1756 2241 
Q 1359 2241 1098 1978 
Q 838 1716 838 1322 
z
" transform="scale(0.015625)"/>
       </defs>
       <use xlink:href="#ArialMT-38"/>
       <use xlink:href="#ArialMT-30" x="55.615234"/>
       <use xlink:href="#ArialMT-25" x="111.230469"/>
      </g>
     </g>
    </g>
    <g id="xtick_5">
     <g id="text_5">
      <!-- 100% -->
      <g style="fill: #262626" transform="translate(943.358625 606.850391) scale(0.165 -0.165)">
       <use xlink:href="#ArialMT-31"/>
       <use xlink:href="#ArialMT-30" x="55.615234"/>
       <use xlink:href="#ArialMT-30" x="111.230469"/>
       <use xlink:href="#ArialMT-25" x="166.845703"/>
      </g>
     </g>
    </g>
    <g id="text_6">
     <!-- EV Portion -->
     <g style="fill: #262626" transform="translate(531.268594 627.013828) scale(0.18 -0.18)">
      <defs>
       <path id="ArialMT-45" d="M 506 0 
L 506 4581 
L 3819 4581 
L 3819 4041 
L 1113 4041 
L 1113 2638 
L 3647 2638 
L 3647 2100 
L 1113 2100 
L 1113 541 
L 3925 541 
L 3925 0 
L 506 0 
z
" transform="scale(0.015625)"/>
       <path id="ArialMT-56" d="M 1803 0 
L 28 4581 
L 684 4581 
L 1875 1253 
Q 2019 853 2116 503 
Q 2222 878 2363 1253 
L 3600 4581 
L 4219 4581 
L 2425 0 
L 1803 0 
z
" transform="scale(0.015625)"/>
       <path id="ArialMT-20" transform="scale(0.015625)"/>
       <path id="ArialMT-50" d="M 494 0 
L 494 4581 
L 2222 4581 
Q 2678 4581 2919 4538 
Q 3256 4481 3484 4323 
Q 3713 4166 3852 3881 
Q 3991 3597 3991 3256 
Q 3991 2672 3619 2267 
Q 3247 1863 2275 1863 
L 1100 1863 
L 1100 0 
L 494 0 
z
M 1100 2403 
L 2284 2403 
Q 2872 2403 3119 2622 
Q 3366 2841 3366 3238 
Q 3366 3525 3220 3729 
Q 3075 3934 2838 4000 
Q 2684 4041 2272 4041 
L 1100 4041 
L 1100 2403 
z
" transform="scale(0.015625)"/>
       <path id="ArialMT-6f" d="M 213 1659 
Q 213 2581 725 3025 
Q 1153 3394 1769 3394 
Q 2453 3394 2887 2945 
Q 3322 2497 3322 1706 
Q 3322 1066 3130 698 
Q 2938 331 2570 128 
Q 2203 -75 1769 -75 
Q 1072 -75 642 372 
Q 213 819 213 1659 
z
M 791 1659 
Q 791 1022 1069 705 
Q 1347 388 1769 388 
Q 2188 388 2466 706 
Q 2744 1025 2744 1678 
Q 2744 2294 2464 2611 
Q 2184 2928 1769 2928 
Q 1347 2928 1069 2612 
Q 791 2297 791 1659 
z
" transform="scale(0.015625)"/>
       <path id="ArialMT-72" d="M 416 0 
L 416 3319 
L 922 3319 
L 922 2816 
Q 1116 3169 1280 3281 
Q 1444 3394 1641 3394 
Q 1925 3394 2219 3213 
L 2025 2691 
Q 1819 2813 1613 2813 
Q 1428 2813 1281 2702 
Q 1134 2591 1072 2394 
Q 978 2094 978 1738 
L 978 0 
L 416 0 
z
" transform="scale(0.015625)"/>
       <path id="ArialMT-74" d="M 1650 503 
L 1731 6 
Q 1494 -44 1306 -44 
Q 1000 -44 831 53 
Q 663 150 594 308 
Q 525 466 525 972 
L 525 2881 
L 113 2881 
L 113 3319 
L 525 3319 
L 525 4141 
L 1084 4478 
L 1084 3319 
L 1650 3319 
L 1650 2881 
L 1084 2881 
L 1084 941 
Q 1084 700 1114 631 
Q 1144 563 1211 522 
Q 1278 481 1403 481 
Q 1497 481 1650 503 
z
" transform="scale(0.015625)"/>
       <path id="ArialMT-69" d="M 425 3934 
L 425 4581 
L 988 4581 
L 988 3934 
L 425 3934 
z
M 425 0 
L 425 3319 
L 988 3319 
L 988 0 
L 425 0 
z
" transform="scale(0.015625)"/>
       <path id="ArialMT-6e" d="M 422 0 
L 422 3319 
L 928 3319 
L 928 2847 
Q 1294 3394 1984 3394 
Q 2284 3394 2536 3286 
Q 2788 3178 2913 3003 
Q 3038 2828 3088 2588 
Q 3119 2431 3119 2041 
L 3119 0 
L 2556 0 
L 2556 2019 
Q 2556 2363 2490 2533 
Q 2425 2703 2258 2804 
Q 2091 2906 1866 2906 
Q 1506 2906 1245 2678 
Q 984 2450 984 1813 
L 984 0 
L 422 0 
z
" transform="scale(0.015625)"/>
      </defs>
      <use xlink:href="#ArialMT-45"/>
      <use xlink:href="#ArialMT-56" x="66.699219"/>
      <use xlink:href="#ArialMT-20" x="133.398438"/>
      <use xlink:href="#ArialMT-50" x="161.181641"/>
      <use xlink:href="#ArialMT-6f" x="227.880859"/>
      <use xlink:href="#ArialMT-72" x="283.496094"/>
      <use xlink:href="#ArialMT-74" x="316.796875"/>
      <use xlink:href="#ArialMT-69" x="344.580078"/>
      <use xlink:href="#ArialMT-6f" x="366.796875"/>
      <use xlink:href="#ArialMT-6e" x="422.412109"/>
     </g>
    </g>
   </g>
   <g id="matplotlib.axis_2">
    <g id="ytick_1">
     <g id="line2d_1">
      <path d="M 86.58 500.172888 
L 1062 500.172888 
" clip-path="url(#pcb485e46c3)" style="fill: none; stroke: #ffffff; stroke-linecap: round"/>
     </g>
     <g id="text_7">
      <!-- -20% -->
      <g style="fill: #262626" transform="translate(38.562813 506.078084) scale(0.165 -0.165)">
       <defs>
        <path id="ArialMT-2d" d="M 203 1375 
L 203 1941 
L 1931 1941 
L 1931 1375 
L 203 1375 
z
" transform="scale(0.015625)"/>
        <path id="ArialMT-32" d="M 3222 541 
L 3222 0 
L 194 0 
Q 188 203 259 391 
Q 375 700 629 1000 
Q 884 1300 1366 1694 
Q 2113 2306 2375 2664 
Q 2638 3022 2638 3341 
Q 2638 3675 2398 3904 
Q 2159 4134 1775 4134 
Q 1369 4134 1125 3890 
Q 881 3647 878 3216 
L 300 3275 
Q 359 3922 746 4261 
Q 1134 4600 1788 4600 
Q 2447 4600 2831 4234 
Q 3216 3869 3216 3328 
Q 3216 3053 3103 2787 
Q 2991 2522 2730 2228 
Q 2469 1934 1863 1422 
Q 1356 997 1212 845 
Q 1069 694 975 541 
L 3222 541 
z
" transform="scale(0.015625)"/>
       </defs>
       <use xlink:href="#ArialMT-2d"/>
       <use xlink:href="#ArialMT-32" x="33.300781"/>
       <use xlink:href="#ArialMT-30" x="88.916016"/>
       <use xlink:href="#ArialMT-25" x="144.53125"/>
      </g>
     </g>
    </g>
    <g id="ytick_2">
     <g id="line2d_2">
      <path d="M 86.58 405.598019 
L 1062 405.598019 
" clip-path="url(#pcb485e46c3)" style="fill: none; stroke: #ffffff; stroke-linecap: round"/>
     </g>
     <g id="text_8">
      <!-- -10% -->
      <g style="fill: #262626" transform="translate(38.562813 411.503214) scale(0.165 -0.165)">
       <use xlink:href="#ArialMT-2d"/>
       <use xlink:href="#ArialMT-31" x="33.300781"/>
       <use xlink:href="#ArialMT-30" x="88.916016"/>
       <use xlink:href="#ArialMT-25" x="144.53125"/>
      </g>
     </g>
    </g>
    <g id="ytick_3">
     <g id="line2d_3">
      <path d="M 86.58 311.023149 
L 1062 311.023149 
" clip-path="url(#pcb485e46c3)" style="fill: none; stroke: #ffffff; stroke-linecap: round"/>
     </g>
     <g id="text_9">
      <!-- 0% -->
      <g style="fill: #262626" transform="translate(53.232344 316.928345) scale(0.165 -0.165)">
       <use xlink:href="#ArialMT-30"/>
       <use xlink:href="#ArialMT-25" x="55.615234"/>
      </g>
     </g>
    </g>
    <g id="ytick_4">
     <g id="line2d_4">
      <path d="M 86.58 216.44828 
L 1062 216.44828 
" clip-path="url(#pcb485e46c3)" style="fill: none; stroke: #ffffff; stroke-linecap: round"/>
     </g>
     <g id="text_10">
      <!-- 10% -->
      <g style="fill: #262626" transform="translate(44.056797 222.353475) scale(0.165 -0.165)">
       <use xlink:href="#ArialMT-31"/>
       <use xlink:href="#ArialMT-30" x="55.615234"/>
       <use xlink:href="#ArialMT-25" x="111.230469"/>
      </g>
     </g>
    </g>
    <g id="ytick_5">
     <g id="line2d_5">
      <path d="M 86.58 121.87341 
L 1062 121.87341 
" clip-path="url(#pcb485e46c3)" style="fill: none; stroke: #ffffff; stroke-linecap: round"/>
     </g>
     <g id="text_11">
      <!-- 20% -->
      <g style="fill: #262626" transform="translate(44.056797 127.778606) scale(0.165 -0.165)">
       <use xlink:href="#ArialMT-32"/>
       <use xlink:href="#ArialMT-30" x="55.615234"/>
       <use xlink:href="#ArialMT-25" x="111.230469"/>
      </g>
     </g>
    </g>
    <g id="ytick_6">
     <g id="line2d_6">
      <path d="M 86.58 27.298541 
L 1062 27.298541 
" clip-path="url(#pcb485e46c3)" style="fill: none; stroke: #ffffff; stroke-linecap: round"/>
     </g>
     <g id="text_12">
      <!-- 30% -->
      <g style="fill: #262626" transform="translate(44.056797 33.203736) scale(0.165 -0.165)">
       <use xlink:href="#ArialMT-33"/>
       <use xlink:href="#ArialMT-30" x="55.615234"/>
       <use xlink:href="#ArialMT-25" x="111.230469"/>
      </g>
     </g>
    </g>
    <g id="text_13">
     <!-- VoSC [%∆] -->
     <g style="fill: #262626" transform="translate(30.985313 345.796875) rotate(-90) scale(0.18 -0.18)">
      <defs>
       <path id="ArialMT-53" d="M 288 1472 
L 859 1522 
Q 900 1178 1048 958 
Q 1197 738 1509 602 
Q 1822 466 2213 466 
Q 2559 466 2825 569 
Q 3091 672 3220 851 
Q 3350 1031 3350 1244 
Q 3350 1459 3225 1620 
Q 3100 1781 2813 1891 
Q 2628 1963 1997 2114 
Q 1366 2266 1113 2400 
Q 784 2572 623 2826 
Q 463 3081 463 3397 
Q 463 3744 659 4045 
Q 856 4347 1234 4503 
Q 1613 4659 2075 4659 
Q 2584 4659 2973 4495 
Q 3363 4331 3572 4012 
Q 3781 3694 3797 3291 
L 3216 3247 
Q 3169 3681 2898 3903 
Q 2628 4125 2100 4125 
Q 1550 4125 1298 3923 
Q 1047 3722 1047 3438 
Q 1047 3191 1225 3031 
Q 1400 2872 2139 2705 
Q 2878 2538 3153 2413 
Q 3553 2228 3743 1945 
Q 3934 1663 3934 1294 
Q 3934 928 3725 604 
Q 3516 281 3123 101 
Q 2731 -78 2241 -78 
Q 1619 -78 1198 103 
Q 778 284 539 648 
Q 300 1013 288 1472 
z
" transform="scale(0.015625)"/>
       <path id="ArialMT-43" d="M 3763 1606 
L 4369 1453 
Q 4178 706 3683 314 
Q 3188 -78 2472 -78 
Q 1731 -78 1267 223 
Q 803 525 561 1097 
Q 319 1669 319 2325 
Q 319 3041 592 3573 
Q 866 4106 1370 4382 
Q 1875 4659 2481 4659 
Q 3169 4659 3637 4309 
Q 4106 3959 4291 3325 
L 3694 3184 
Q 3534 3684 3231 3912 
Q 2928 4141 2469 4141 
Q 1941 4141 1586 3887 
Q 1231 3634 1087 3207 
Q 944 2781 944 2328 
Q 944 1744 1114 1308 
Q 1284 872 1643 656 
Q 2003 441 2422 441 
Q 2931 441 3284 734 
Q 3638 1028 3763 1606 
z
" transform="scale(0.015625)"/>
       <path id="ArialMT-5b" d="M 434 -1272 
L 434 4581 
L 1675 4581 
L 1675 4116 
L 997 4116 
L 997 -806 
L 1675 -806 
L 1675 -1272 
L 434 -1272 
z
" transform="scale(0.015625)"/>
       <path id="ArialMT-2206" d="M 3831 0 
L 81 0 
L 2044 4334 
L 3831 0 
z
M 3094 256 
L 1847 3278 
L 472 256 
L 3094 256 
z
" transform="scale(0.015625)"/>
       <path id="ArialMT-5d" d="M 1363 -1272 
L 122 -1272 
L 122 -806 
L 800 -806 
L 800 4116 
L 122 4116 
L 122 4581 
L 1363 4581 
L 1363 -1272 
z
" transform="scale(0.015625)"/>
      </defs>
      <use xlink:href="#ArialMT-56"/>
      <use xlink:href="#ArialMT-6f" x="61.199219"/>
      <use xlink:href="#ArialMT-53" x="116.814453"/>
      <use xlink:href="#ArialMT-43" x="183.513672"/>
      <use xlink:href="#ArialMT-20" x="255.730469"/>
      <use xlink:href="#ArialMT-5b" x="283.513672"/>
      <use xlink:href="#ArialMT-25" x="311.296875"/>
      <use xlink:href="#ArialMT-2206" x="400.212891"/>
      <use xlink:href="#ArialMT-5d" x="461.394531"/>
     </g>
    </g>
   </g>
   <g id="patch_3">
    <path d="M 184.122 311.023149 
L 184.122 311.023149 
L 184.122 311.023149 
L 184.122 311.023149 
z
" clip-path="url(#pcb485e46c3)" style="fill: #3274a1; stroke: #3d3d3d; stroke-linejoin: miter"/>
   </g>
   <g id="patch_4">
    <path d="M 184.122 311.023149 
L 184.122 311.023149 
L 184.122 311.023149 
L 184.122 311.023149 
z
" clip-path="url(#pcb485e46c3)" style="fill: #e1812c; stroke: #3d3d3d; stroke-linejoin: miter"/>
   </g>
   <g id="patch_5">
    <path d="M 184.122 311.023149 
L 184.122 311.023149 
L 184.122 311.023149 
L 184.122 311.023149 
z
" clip-path="url(#pcb485e46c3)" style="fill: #3a923a; stroke: #3d3d3d; stroke-linejoin: miter"/>
   </g>
   <g id="patch_6">
    <path d="M 106.0884 392.476216 
L 158.1108 392.476216 
L 158.1108 240.458227 
L 106.0884 240.458227 
L 106.0884 392.476216 
z
" clip-path="url(#pcb485e46c3)" style="fill: #3274a1; stroke: #3d3d3d; stroke-linejoin: miter"/>
   </g>
   <g id="line2d_7">
    <path d="M 132.0996 392.476216 
L 132.0996 437.117335 
" clip-path="url(#pcb485e46c3)" style="fill: none; stroke: #3d3d3d"/>
   </g>
   <g id="line2d_8">
    <path d="M 132.0996 240.458227 
L 132.0996 43.797273 
" clip-path="url(#pcb485e46c3)" style="fill: none; stroke: #3d3d3d"/>
   </g>
   <g id="line2d_9">
    <path d="M 119.094 437.117335 
L 145.1052 437.117335 
" clip-path="url(#pcb485e46c3)" style="fill: none; stroke: #3d3d3d; stroke-linecap: round"/>
   </g>
   <g id="line2d_10">
    <path d="M 119.094 43.797273 
L 145.1052 43.797273 
" clip-path="url(#pcb485e46c3)" style="fill: none; stroke: #3d3d3d; stroke-linecap: round"/>
   </g>
   <g id="line2d_11"/>
   <g id="patch_7">
    <path d="M 301.1724 394.714244 
L 353.1948 394.714244 
L 353.1948 254.700385 
L 301.1724 254.700385 
L 301.1724 394.714244 
z
" clip-path="url(#pcb485e46c3)" style="fill: #3274a1; stroke: #3d3d3d; stroke-linejoin: miter"/>
   </g>
   <g id="line2d_12">
    <path d="M 327.1836 394.714244 
L 327.1836 437.839227 
" clip-path="url(#pcb485e46c3)" style="fill: none; stroke: #3d3d3d"/>
   </g>
   <g id="line2d_13">
    <path d="M 327.1836 254.700385 
L 327.1836 60.904644 
" clip-path="url(#pcb485e46c3)" style="fill: none; stroke: #3d3d3d"/>
   </g>
   <g id="line2d_14">
    <path d="M 314.178 437.839227 
L 340.1892 437.839227 
" clip-path="url(#pcb485e46c3)" style="fill: none; stroke: #3d3d3d; stroke-linecap: round"/>
   </g>
   <g id="line2d_15">
    <path d="M 314.178 60.904644 
L 340.1892 60.904644 
" clip-path="url(#pcb485e46c3)" style="fill: none; stroke: #3d3d3d; stroke-linecap: round"/>
   </g>
   <g id="line2d_16"/>
   <g id="patch_8">
    <path d="M 496.2564 395.930962 
L 548.2788 395.930962 
L 548.2788 281.9935 
L 496.2564 281.9935 
L 496.2564 395.930962 
z
" clip-path="url(#pcb485e46c3)" style="fill: #3274a1; stroke: #3d3d3d; stroke-linejoin: miter"/>
   </g>
   <g id="line2d_17">
    <path d="M 522.2676 395.930962 
L 522.2676 428.523154 
" clip-path="url(#pcb485e46c3)" style="fill: none; stroke: #3d3d3d"/>
   </g>
   <g id="line2d_18">
    <path d="M 522.2676 281.9935 
L 522.2676 133.570385 
" clip-path="url(#pcb485e46c3)" style="fill: none; stroke: #3d3d3d"/>
   </g>
   <g id="line2d_19">
    <path d="M 509.262 428.523154 
L 535.2732 428.523154 
" clip-path="url(#pcb485e46c3)" style="fill: none; stroke: #3d3d3d; stroke-linecap: round"/>
   </g>
   <g id="line2d_20">
    <path d="M 509.262 133.570385 
L 535.2732 133.570385 
" clip-path="url(#pcb485e46c3)" style="fill: none; stroke: #3d3d3d; stroke-linecap: round"/>
   </g>
   <g id="line2d_21">
    <defs>
     <path id="m7bcbf968ed" d="M 0 3 
C 0.795609 3 1.55874 2.683901 2.12132 2.12132 
C 2.683901 1.55874 3 0.795609 3 0 
C 3 -0.795609 2.683901 -1.55874 2.12132 -2.12132 
C 1.55874 -2.683901 0.795609 -3 0 -3 
C -0.795609 -3 -1.55874 -2.683901 -2.12132 -2.12132 
C -2.683901 -1.55874 -3 -0.795609 -3 0 
C -3 0.795609 -2.683901 1.55874 -2.12132 2.12132 
C -1.55874 2.683901 -0.795609 3 0 3 
z
" style="stroke: #3d3d3d"/>
    </defs>
    <g clip-path="url(#pcb485e46c3)">
     <use xlink:href="#m7bcbf968ed" x="522.2676" y="103.920543" style="fill-opacity: 0; stroke: #3d3d3d"/>
     <use xlink:href="#m7bcbf968ed" x="522.2676" y="77.375078" style="fill-opacity: 0; stroke: #3d3d3d"/>
     <use xlink:href="#m7bcbf968ed" x="522.2676" y="103.920543" style="fill-opacity: 0; stroke: #3d3d3d"/>
     <use xlink:href="#m7bcbf968ed" x="522.2676" y="77.375078" style="fill-opacity: 0; stroke: #3d3d3d"/>
     <use xlink:href="#m7bcbf968ed" x="522.2676" y="103.920543" style="fill-opacity: 0; stroke: #3d3d3d"/>
     <use xlink:href="#m7bcbf968ed" x="522.2676" y="77.375078" style="fill-opacity: 0; stroke: #3d3d3d"/>
     <use xlink:href="#m7bcbf968ed" x="522.2676" y="103.920543" style="fill-opacity: 0; stroke: #3d3d3d"/>
     <use xlink:href="#m7bcbf968ed" x="522.2676" y="77.375078" style="fill-opacity: 0; stroke: #3d3d3d"/>
     <use xlink:href="#m7bcbf968ed" x="522.2676" y="103.920543" style="fill-opacity: 0; stroke: #3d3d3d"/>
     <use xlink:href="#m7bcbf968ed" x="522.2676" y="77.375078" style="fill-opacity: 0; stroke: #3d3d3d"/>
     <use xlink:href="#m7bcbf968ed" x="522.2676" y="103.920543" style="fill-opacity: 0; stroke: #3d3d3d"/>
     <use xlink:href="#m7bcbf968ed" x="522.2676" y="77.375078" style="fill-opacity: 0; stroke: #3d3d3d"/>
     <use xlink:href="#m7bcbf968ed" x="522.2676" y="103.920543" style="fill-opacity: 0; stroke: #3d3d3d"/>
     <use xlink:href="#m7bcbf968ed" x="522.2676" y="77.375078" style="fill-opacity: 0; stroke: #3d3d3d"/>
     <use xlink:href="#m7bcbf968ed" x="522.2676" y="103.920543" style="fill-opacity: 0; stroke: #3d3d3d"/>
     <use xlink:href="#m7bcbf968ed" x="522.2676" y="77.375078" style="fill-opacity: 0; stroke: #3d3d3d"/>
     <use xlink:href="#m7bcbf968ed" x="522.2676" y="103.920543" style="fill-opacity: 0; stroke: #3d3d3d"/>
     <use xlink:href="#m7bcbf968ed" x="522.2676" y="77.375078" style="fill-opacity: 0; stroke: #3d3d3d"/>
     <use xlink:href="#m7bcbf968ed" x="522.2676" y="103.920543" style="fill-opacity: 0; stroke: #3d3d3d"/>
     <use xlink:href="#m7bcbf968ed" x="522.2676" y="77.375078" style="fill-opacity: 0; stroke: #3d3d3d"/>
     <use xlink:href="#m7bcbf968ed" x="522.2676" y="103.920543" style="fill-opacity: 0; stroke: #3d3d3d"/>
     <use xlink:href="#m7bcbf968ed" x="522.2676" y="77.375078" style="fill-opacity: 0; stroke: #3d3d3d"/>
     <use xlink:href="#m7bcbf968ed" x="522.2676" y="103.920543" style="fill-opacity: 0; stroke: #3d3d3d"/>
     <use xlink:href="#m7bcbf968ed" x="522.2676" y="77.375078" style="fill-opacity: 0; stroke: #3d3d3d"/>
    </g>
   </g>
   <g id="patch_9">
    <path d="M 691.3404 387.803462 
L 743.3628 387.803462 
L 743.3628 314.730581 
L 691.3404 314.730581 
L 691.3404 387.803462 
z
" clip-path="url(#pcb485e46c3)" style="fill: #3274a1; stroke: #3d3d3d; stroke-linejoin: miter"/>
   </g>
   <g id="line2d_22">
    <path d="M 717.3516 387.803462 
L 717.3516 415.707999 
" clip-path="url(#pcb485e46c3)" style="fill: none; stroke: #3d3d3d"/>
   </g>
   <g id="line2d_23">
    <path d="M 717.3516 314.730581 
L 717.3516 277.536784 
" clip-path="url(#pcb485e46c3)" style="fill: none; stroke: #3d3d3d"/>
   </g>
   <g id="line2d_24">
    <path d="M 704.346 415.707999 
L 730.3572 415.707999 
" clip-path="url(#pcb485e46c3)" style="fill: none; stroke: #3d3d3d; stroke-linecap: round"/>
   </g>
   <g id="line2d_25">
    <path d="M 704.346 277.536784 
L 730.3572 277.536784 
" clip-path="url(#pcb485e46c3)" style="fill: none; stroke: #3d3d3d; stroke-linecap: round"/>
   </g>
   <g id="line2d_26">
    <g clip-path="url(#pcb485e46c3)">
     <use xlink:href="#m7bcbf968ed" x="717.3516" y="125.747775" style="fill-opacity: 0; stroke: #3d3d3d"/>
     <use xlink:href="#m7bcbf968ed" x="717.3516" y="187.413876" style="fill-opacity: 0; stroke: #3d3d3d"/>
     <use xlink:href="#m7bcbf968ed" x="717.3516" y="155.182981" style="fill-opacity: 0; stroke: #3d3d3d"/>
     <use xlink:href="#m7bcbf968ed" x="717.3516" y="125.747775" style="fill-opacity: 0; stroke: #3d3d3d"/>
     <use xlink:href="#m7bcbf968ed" x="717.3516" y="187.413876" style="fill-opacity: 0; stroke: #3d3d3d"/>
     <use xlink:href="#m7bcbf968ed" x="717.3516" y="155.182981" style="fill-opacity: 0; stroke: #3d3d3d"/>
     <use xlink:href="#m7bcbf968ed" x="717.3516" y="125.747775" style="fill-opacity: 0; stroke: #3d3d3d"/>
     <use xlink:href="#m7bcbf968ed" x="717.3516" y="187.413876" style="fill-opacity: 0; stroke: #3d3d3d"/>
     <use xlink:href="#m7bcbf968ed" x="717.3516" y="155.182981" style="fill-opacity: 0; stroke: #3d3d3d"/>
     <use xlink:href="#m7bcbf968ed" x="717.3516" y="125.747775" style="fill-opacity: 0; stroke: #3d3d3d"/>
     <use xlink:href="#m7bcbf968ed" x="717.3516" y="187.413876" style="fill-opacity: 0; stroke: #3d3d3d"/>
     <use xlink:href="#m7bcbf968ed" x="717.3516" y="155.182981" style="fill-opacity: 0; stroke: #3d3d3d"/>
     <use xlink:href="#m7bcbf968ed" x="717.3516" y="125.747775" style="fill-opacity: 0; stroke: #3d3d3d"/>
     <use xlink:href="#m7bcbf968ed" x="717.3516" y="187.413876" style="fill-opacity: 0; stroke: #3d3d3d"/>
     <use xlink:href="#m7bcbf968ed" x="717.3516" y="155.182981" style="fill-opacity: 0; stroke: #3d3d3d"/>
     <use xlink:href="#m7bcbf968ed" x="717.3516" y="125.747775" style="fill-opacity: 0; stroke: #3d3d3d"/>
     <use xlink:href="#m7bcbf968ed" x="717.3516" y="187.413876" style="fill-opacity: 0; stroke: #3d3d3d"/>
     <use xlink:href="#m7bcbf968ed" x="717.3516" y="155.182981" style="fill-opacity: 0; stroke: #3d3d3d"/>
     <use xlink:href="#m7bcbf968ed" x="717.3516" y="125.747775" style="fill-opacity: 0; stroke: #3d3d3d"/>
     <use xlink:href="#m7bcbf968ed" x="717.3516" y="187.413876" style="fill-opacity: 0; stroke: #3d3d3d"/>
     <use xlink:href="#m7bcbf968ed" x="717.3516" y="155.182981" style="fill-opacity: 0; stroke: #3d3d3d"/>
     <use xlink:href="#m7bcbf968ed" x="717.3516" y="125.747775" style="fill-opacity: 0; stroke: #3d3d3d"/>
     <use xlink:href="#m7bcbf968ed" x="717.3516" y="187.413876" style="fill-opacity: 0; stroke: #3d3d3d"/>
     <use xlink:href="#m7bcbf968ed" x="717.3516" y="155.182981" style="fill-opacity: 0; stroke: #3d3d3d"/>
     <use xlink:href="#m7bcbf968ed" x="717.3516" y="125.747775" style="fill-opacity: 0; stroke: #3d3d3d"/>
     <use xlink:href="#m7bcbf968ed" x="717.3516" y="187.413876" style="fill-opacity: 0; stroke: #3d3d3d"/>
     <use xlink:href="#m7bcbf968ed" x="717.3516" y="155.182981" style="fill-opacity: 0; stroke: #3d3d3d"/>
     <use xlink:href="#m7bcbf968ed" x="717.3516" y="125.747775" style="fill-opacity: 0; stroke: #3d3d3d"/>
     <use xlink:href="#m7bcbf968ed" x="717.3516" y="187.413876" style="fill-opacity: 0; stroke: #3d3d3d"/>
     <use xlink:href="#m7bcbf968ed" x="717.3516" y="155.182981" style="fill-opacity: 0; stroke: #3d3d3d"/>
     <use xlink:href="#m7bcbf968ed" x="717.3516" y="125.747775" style="fill-opacity: 0; stroke: #3d3d3d"/>
     <use xlink:href="#m7bcbf968ed" x="717.3516" y="187.413876" style="fill-opacity: 0; stroke: #3d3d3d"/>
     <use xlink:href="#m7bcbf968ed" x="717.3516" y="155.182981" style="fill-opacity: 0; stroke: #3d3d3d"/>
     <use xlink:href="#m7bcbf968ed" x="717.3516" y="125.747775" style="fill-opacity: 0; stroke: #3d3d3d"/>
     <use xlink:href="#m7bcbf968ed" x="717.3516" y="187.413876" style="fill-opacity: 0; stroke: #3d3d3d"/>
     <use xlink:href="#m7bcbf968ed" x="717.3516" y="155.182981" style="fill-opacity: 0; stroke: #3d3d3d"/>
    </g>
   </g>
   <g id="patch_10">
    <path d="M 886.4244 385.507328 
L 938.4468 385.507328 
L 938.4468 317.61256 
L 886.4244 317.61256 
L 886.4244 385.507328 
z
" clip-path="url(#pcb485e46c3)" style="fill: #3274a1; stroke: #3d3d3d; stroke-linejoin: miter"/>
   </g>
   <g id="line2d_27">
    <path d="M 912.4356 385.507328 
L 912.4356 409.987786 
" clip-path="url(#pcb485e46c3)" style="fill: none; stroke: #3d3d3d"/>
   </g>
   <g id="line2d_28">
    <path d="M 912.4356 317.61256 
L 912.4356 278.104649 
" clip-path="url(#pcb485e46c3)" style="fill: none; stroke: #3d3d3d"/>
   </g>
   <g id="line2d_29">
    <path d="M 899.43 409.987786 
L 925.4412 409.987786 
" clip-path="url(#pcb485e46c3)" style="fill: none; stroke: #3d3d3d; stroke-linecap: round"/>
   </g>
   <g id="line2d_30">
    <path d="M 899.43 278.104649 
L 925.4412 278.104649 
" clip-path="url(#pcb485e46c3)" style="fill: none; stroke: #3d3d3d; stroke-linecap: round"/>
   </g>
   <g id="line2d_31">
    <g clip-path="url(#pcb485e46c3)">
     <use xlink:href="#m7bcbf968ed" x="912.4356" y="131.369509" style="fill-opacity: 0; stroke: #3d3d3d"/>
     <use xlink:href="#m7bcbf968ed" x="912.4356" y="187.235314" style="fill-opacity: 0; stroke: #3d3d3d"/>
     <use xlink:href="#m7bcbf968ed" x="912.4356" y="131.369509" style="fill-opacity: 0; stroke: #3d3d3d"/>
     <use xlink:href="#m7bcbf968ed" x="912.4356" y="187.235314" style="fill-opacity: 0; stroke: #3d3d3d"/>
     <use xlink:href="#m7bcbf968ed" x="912.4356" y="131.369509" style="fill-opacity: 0; stroke: #3d3d3d"/>
     <use xlink:href="#m7bcbf968ed" x="912.4356" y="187.235314" style="fill-opacity: 0; stroke: #3d3d3d"/>
     <use xlink:href="#m7bcbf968ed" x="912.4356" y="131.369509" style="fill-opacity: 0; stroke: #3d3d3d"/>
     <use xlink:href="#m7bcbf968ed" x="912.4356" y="187.235314" style="fill-opacity: 0; stroke: #3d3d3d"/>
     <use xlink:href="#m7bcbf968ed" x="912.4356" y="131.369509" style="fill-opacity: 0; stroke: #3d3d3d"/>
     <use xlink:href="#m7bcbf968ed" x="912.4356" y="187.235314" style="fill-opacity: 0; stroke: #3d3d3d"/>
     <use xlink:href="#m7bcbf968ed" x="912.4356" y="131.369509" style="fill-opacity: 0; stroke: #3d3d3d"/>
     <use xlink:href="#m7bcbf968ed" x="912.4356" y="187.235314" style="fill-opacity: 0; stroke: #3d3d3d"/>
     <use xlink:href="#m7bcbf968ed" x="912.4356" y="131.369509" style="fill-opacity: 0; stroke: #3d3d3d"/>
     <use xlink:href="#m7bcbf968ed" x="912.4356" y="187.235314" style="fill-opacity: 0; stroke: #3d3d3d"/>
     <use xlink:href="#m7bcbf968ed" x="912.4356" y="131.369509" style="fill-opacity: 0; stroke: #3d3d3d"/>
     <use xlink:href="#m7bcbf968ed" x="912.4356" y="187.235314" style="fill-opacity: 0; stroke: #3d3d3d"/>
     <use xlink:href="#m7bcbf968ed" x="912.4356" y="131.369509" style="fill-opacity: 0; stroke: #3d3d3d"/>
     <use xlink:href="#m7bcbf968ed" x="912.4356" y="187.235314" style="fill-opacity: 0; stroke: #3d3d3d"/>
     <use xlink:href="#m7bcbf968ed" x="912.4356" y="131.369509" style="fill-opacity: 0; stroke: #3d3d3d"/>
     <use xlink:href="#m7bcbf968ed" x="912.4356" y="187.235314" style="fill-opacity: 0; stroke: #3d3d3d"/>
     <use xlink:href="#m7bcbf968ed" x="912.4356" y="131.369509" style="fill-opacity: 0; stroke: #3d3d3d"/>
     <use xlink:href="#m7bcbf968ed" x="912.4356" y="187.235314" style="fill-opacity: 0; stroke: #3d3d3d"/>
     <use xlink:href="#m7bcbf968ed" x="912.4356" y="131.369509" style="fill-opacity: 0; stroke: #3d3d3d"/>
     <use xlink:href="#m7bcbf968ed" x="912.4356" y="187.235314" style="fill-opacity: 0; stroke: #3d3d3d"/>
    </g>
   </g>
   <g id="patch_11">
    <path d="M 158.1108 476.461083 
L 210.1332 476.461083 
L 210.1332 400.27242 
L 158.1108 400.27242 
L 158.1108 476.461083 
z
" clip-path="url(#pcb485e46c3)" style="fill: #e1812c; stroke: #3d3d3d; stroke-linejoin: miter"/>
   </g>
   <g id="line2d_32">
    <path d="M 184.122 476.461083 
L 184.122 544.646932 
" clip-path="url(#pcb485e46c3)" style="fill: none; stroke: #3d3d3d"/>
   </g>
   <g id="line2d_33">
    <path d="M 184.122 400.27242 
L 184.122 348.789657 
" clip-path="url(#pcb485e46c3)" style="fill: none; stroke: #3d3d3d"/>
   </g>
   <g id="line2d_34">
    <path d="M 171.1164 544.646932 
L 197.1276 544.646932 
" clip-path="url(#pcb485e46c3)" style="fill: none; stroke: #3d3d3d; stroke-linecap: round"/>
   </g>
   <g id="line2d_35">
    <path d="M 171.1164 348.789657 
L 197.1276 348.789657 
" clip-path="url(#pcb485e46c3)" style="fill: none; stroke: #3d3d3d; stroke-linecap: round"/>
   </g>
   <g id="line2d_36"/>
   <g id="patch_12">
    <path d="M 353.1948 479.46634 
L 405.2172 479.46634 
L 405.2172 403.930209 
L 353.1948 403.930209 
L 353.1948 479.46634 
z
" clip-path="url(#pcb485e46c3)" style="fill: #e1812c; stroke: #3d3d3d; stroke-linejoin: miter"/>
   </g>
   <g id="line2d_37">
    <path d="M 379.206 479.46634 
L 379.206 553.307002 
" clip-path="url(#pcb485e46c3)" style="fill: none; stroke: #3d3d3d"/>
   </g>
   <g id="line2d_38">
    <path d="M 379.206 403.930209 
L 379.206 354.394767 
" clip-path="url(#pcb485e46c3)" style="fill: none; stroke: #3d3d3d"/>
   </g>
   <g id="line2d_39">
    <path d="M 366.2004 553.307002 
L 392.2116 553.307002 
" clip-path="url(#pcb485e46c3)" style="fill: none; stroke: #3d3d3d; stroke-linecap: round"/>
   </g>
   <g id="line2d_40">
    <path d="M 366.2004 354.394767 
L 392.2116 354.394767 
" clip-path="url(#pcb485e46c3)" style="fill: none; stroke: #3d3d3d; stroke-linecap: round"/>
   </g>
   <g id="line2d_41"/>
   <g id="patch_13">
    <path d="M 548.2788 482.98467 
L 600.3012 482.98467 
L 600.3012 407.198997 
L 548.2788 407.198997 
L 548.2788 482.98467 
z
" clip-path="url(#pcb485e46c3)" style="fill: #e1812c; stroke: #3d3d3d; stroke-linejoin: miter"/>
   </g>
   <g id="line2d_42">
    <path d="M 574.29 482.98467 
L 574.29 559.742727 
" clip-path="url(#pcb485e46c3)" style="fill: none; stroke: #3d3d3d"/>
   </g>
   <g id="line2d_43">
    <path d="M 574.29 407.198997 
L 574.29 357.700745 
" clip-path="url(#pcb485e46c3)" style="fill: none; stroke: #3d3d3d"/>
   </g>
   <g id="line2d_44">
    <path d="M 561.2844 559.742727 
L 587.2956 559.742727 
" clip-path="url(#pcb485e46c3)" style="fill: none; stroke: #3d3d3d; stroke-linecap: round"/>
   </g>
   <g id="line2d_45">
    <path d="M 561.2844 357.700745 
L 587.2956 357.700745 
" clip-path="url(#pcb485e46c3)" style="fill: none; stroke: #3d3d3d; stroke-linecap: round"/>
   </g>
   <g id="line2d_46"/>
   <g id="patch_14">
    <path d="M 743.3628 482.25798 
L 795.3852 482.25798 
L 795.3852 406.689551 
L 743.3628 406.689551 
L 743.3628 482.25798 
z
" clip-path="url(#pcb485e46c3)" style="fill: #e1812c; stroke: #3d3d3d; stroke-linejoin: miter"/>
   </g>
   <g id="line2d_47">
    <path d="M 769.374 482.25798 
L 769.374 558.649552 
" clip-path="url(#pcb485e46c3)" style="fill: none; stroke: #3d3d3d"/>
   </g>
   <g id="line2d_48">
    <path d="M 769.374 406.689551 
L 769.374 356.898793 
" clip-path="url(#pcb485e46c3)" style="fill: none; stroke: #3d3d3d"/>
   </g>
   <g id="line2d_49">
    <path d="M 756.3684 558.649552 
L 782.3796 558.649552 
" clip-path="url(#pcb485e46c3)" style="fill: none; stroke: #3d3d3d; stroke-linecap: round"/>
   </g>
   <g id="line2d_50">
    <path d="M 756.3684 356.898793 
L 782.3796 356.898793 
" clip-path="url(#pcb485e46c3)" style="fill: none; stroke: #3d3d3d; stroke-linecap: round"/>
   </g>
   <g id="line2d_51"/>
   <g id="patch_15">
    <path d="M 938.4468 482.000964 
L 990.4692 482.000964 
L 990.4692 406.446875 
L 938.4468 406.446875 
L 938.4468 482.000964 
z
" clip-path="url(#pcb485e46c3)" style="fill: #e1812c; stroke: #3d3d3d; stroke-linejoin: miter"/>
   </g>
   <g id="line2d_52">
    <path d="M 964.458 482.000964 
L 964.458 558.245648 
" clip-path="url(#pcb485e46c3)" style="fill: none; stroke: #3d3d3d"/>
   </g>
   <g id="line2d_53">
    <path d="M 964.458 406.446875 
L 964.458 356.866284 
" clip-path="url(#pcb485e46c3)" style="fill: none; stroke: #3d3d3d"/>
   </g>
   <g id="line2d_54">
    <path d="M 951.4524 558.245648 
L 977.4636 558.245648 
" clip-path="url(#pcb485e46c3)" style="fill: none; stroke: #3d3d3d; stroke-linecap: round"/>
   </g>
   <g id="line2d_55">
    <path d="M 951.4524 356.866284 
L 977.4636 356.866284 
" clip-path="url(#pcb485e46c3)" style="fill: none; stroke: #3d3d3d; stroke-linecap: round"/>
   </g>
   <g id="line2d_56"/>
   <g id="patch_16">
    <path d="M 210.1332 453.873418 
L 262.1556 453.873418 
L 262.1556 363.307265 
L 210.1332 363.307265 
L 210.1332 453.873418 
z
" clip-path="url(#pcb485e46c3)" style="fill: #3a923a; stroke: #3d3d3d; stroke-linejoin: miter"/>
   </g>
   <g id="line2d_57">
    <path d="M 236.1444 453.873418 
L 236.1444 492.357626 
" clip-path="url(#pcb485e46c3)" style="fill: none; stroke: #3d3d3d"/>
   </g>
   <g id="line2d_58">
    <path d="M 236.1444 363.307265 
L 236.1444 316.138487 
" clip-path="url(#pcb485e46c3)" style="fill: none; stroke: #3d3d3d"/>
   </g>
   <g id="line2d_59">
    <path d="M 223.1388 492.357626 
L 249.15 492.357626 
" clip-path="url(#pcb485e46c3)" style="fill: none; stroke: #3d3d3d; stroke-linecap: round"/>
   </g>
   <g id="line2d_60">
    <path d="M 223.1388 316.138487 
L 249.15 316.138487 
" clip-path="url(#pcb485e46c3)" style="fill: none; stroke: #3d3d3d; stroke-linecap: round"/>
   </g>
   <g id="line2d_61"/>
   <g id="patch_17">
    <path d="M 405.2172 455.582778 
L 457.2396 455.582778 
L 457.2396 370.314373 
L 405.2172 370.314373 
L 405.2172 455.582778 
z
" clip-path="url(#pcb485e46c3)" style="fill: #3a923a; stroke: #3d3d3d; stroke-linejoin: miter"/>
   </g>
   <g id="line2d_62">
    <path d="M 431.2284 455.582778 
L 431.2284 501.999293 
" clip-path="url(#pcb485e46c3)" style="fill: none; stroke: #3d3d3d"/>
   </g>
   <g id="line2d_63">
    <path d="M 431.2284 370.314373 
L 431.2284 319.270457 
" clip-path="url(#pcb485e46c3)" style="fill: none; stroke: #3d3d3d"/>
   </g>
   <g id="line2d_64">
    <path d="M 418.2228 501.999293 
L 444.234 501.999293 
" clip-path="url(#pcb485e46c3)" style="fill: none; stroke: #3d3d3d; stroke-linecap: round"/>
   </g>
   <g id="line2d_65">
    <path d="M 418.2228 319.270457 
L 444.234 319.270457 
" clip-path="url(#pcb485e46c3)" style="fill: none; stroke: #3d3d3d; stroke-linecap: round"/>
   </g>
   <g id="line2d_66"/>
   <g id="patch_18">
    <path d="M 600.3012 456.960868 
L 652.3236 456.960868 
L 652.3236 375.528981 
L 600.3012 375.528981 
L 600.3012 456.960868 
z
" clip-path="url(#pcb485e46c3)" style="fill: #3a923a; stroke: #3d3d3d; stroke-linejoin: miter"/>
   </g>
   <g id="line2d_67">
    <path d="M 626.3124 456.960868 
L 626.3124 507.875171 
" clip-path="url(#pcb485e46c3)" style="fill: none; stroke: #3d3d3d"/>
   </g>
   <g id="line2d_68">
    <path d="M 626.3124 375.528981 
L 626.3124 320.70817 
" clip-path="url(#pcb485e46c3)" style="fill: none; stroke: #3d3d3d"/>
   </g>
   <g id="line2d_69">
    <path d="M 613.3068 507.875171 
L 639.318 507.875171 
" clip-path="url(#pcb485e46c3)" style="fill: none; stroke: #3d3d3d; stroke-linecap: round"/>
   </g>
   <g id="line2d_70">
    <path d="M 613.3068 320.70817 
L 639.318 320.70817 
" clip-path="url(#pcb485e46c3)" style="fill: none; stroke: #3d3d3d; stroke-linecap: round"/>
   </g>
   <g id="line2d_71"/>
   <g id="patch_19">
    <path d="M 795.3852 457.125094 
L 847.4076 457.125094 
L 847.4076 374.036605 
L 795.3852 374.036605 
L 795.3852 457.125094 
z
" clip-path="url(#pcb485e46c3)" style="fill: #3a923a; stroke: #3d3d3d; stroke-linejoin: miter"/>
   </g>
   <g id="line2d_72">
    <path d="M 821.3964 457.125094 
L 821.3964 506.089747 
" clip-path="url(#pcb485e46c3)" style="fill: none; stroke: #3d3d3d"/>
   </g>
   <g id="line2d_73">
    <path d="M 821.3964 374.036605 
L 821.3964 319.08703 
" clip-path="url(#pcb485e46c3)" style="fill: none; stroke: #3d3d3d"/>
   </g>
   <g id="line2d_74">
    <path d="M 808.3908 506.089747 
L 834.402 506.089747 
" clip-path="url(#pcb485e46c3)" style="fill: none; stroke: #3d3d3d; stroke-linecap: round"/>
   </g>
   <g id="line2d_75">
    <path d="M 808.3908 319.08703 
L 834.402 319.08703 
" clip-path="url(#pcb485e46c3)" style="fill: none; stroke: #3d3d3d; stroke-linecap: round"/>
   </g>
   <g id="line2d_76"/>
   <g id="patch_20">
    <path d="M 990.4692 458.409422 
L 1042.4916 458.409422 
L 1042.4916 373.003642 
L 990.4692 373.003642 
L 990.4692 458.409422 
z
" clip-path="url(#pcb485e46c3)" style="fill: #3a923a; stroke: #3d3d3d; stroke-linejoin: miter"/>
   </g>
   <g id="line2d_77">
    <path d="M 1016.4804 458.409422 
L 1016.4804 506.061484 
" clip-path="url(#pcb485e46c3)" style="fill: none; stroke: #3d3d3d"/>
   </g>
   <g id="line2d_78">
    <path d="M 1016.4804 373.003642 
L 1016.4804 319.324292 
" clip-path="url(#pcb485e46c3)" style="fill: none; stroke: #3d3d3d"/>
   </g>
   <g id="line2d_79">
    <path d="M 1003.4748 506.061484 
L 1029.486 506.061484 
" clip-path="url(#pcb485e46c3)" style="fill: none; stroke: #3d3d3d; stroke-linecap: round"/>
   </g>
   <g id="line2d_80">
    <path d="M 1003.4748 319.324292 
L 1029.486 319.324292 
" clip-path="url(#pcb485e46c3)" style="fill: none; stroke: #3d3d3d; stroke-linecap: round"/>
   </g>
   <g id="line2d_81"/>
   <g id="line2d_82">
    <path d="M 106.0884 337.406044 
L 158.1108 337.406044 
" clip-path="url(#pcb485e46c3)" style="fill: none; stroke: #3d3d3d"/>
   </g>
   <g id="line2d_83">
    <path d="M 301.1724 352.844122 
L 353.1948 352.844122 
" clip-path="url(#pcb485e46c3)" style="fill: none; stroke: #3d3d3d"/>
   </g>
   <g id="line2d_84">
    <path d="M 496.2564 368.941993 
L 548.2788 368.941993 
" clip-path="url(#pcb485e46c3)" style="fill: none; stroke: #3d3d3d"/>
   </g>
   <g id="line2d_85">
    <path d="M 691.3404 366.070315 
L 743.3628 366.070315 
" clip-path="url(#pcb485e46c3)" style="fill: none; stroke: #3d3d3d"/>
   </g>
   <g id="line2d_86">
    <path d="M 886.4244 365.079815 
L 938.4468 365.079815 
" clip-path="url(#pcb485e46c3)" style="fill: none; stroke: #3d3d3d"/>
   </g>
   <g id="line2d_87">
    <path d="M 158.1108 448.91296 
L 210.1332 448.91296 
" clip-path="url(#pcb485e46c3)" style="fill: none; stroke: #3d3d3d"/>
   </g>
   <g id="line2d_88">
    <path d="M 353.1948 452.28131 
L 405.2172 452.28131 
" clip-path="url(#pcb485e46c3)" style="fill: none; stroke: #3d3d3d"/>
   </g>
   <g id="line2d_89">
    <path d="M 548.2788 457.85033 
L 600.3012 457.85033 
" clip-path="url(#pcb485e46c3)" style="fill: none; stroke: #3d3d3d"/>
   </g>
   <g id="line2d_90">
    <path d="M 743.3628 457.263009 
L 795.3852 457.263009 
" clip-path="url(#pcb485e46c3)" style="fill: none; stroke: #3d3d3d"/>
   </g>
   <g id="line2d_91">
    <path d="M 938.4468 456.879228 
L 990.4692 456.879228 
" clip-path="url(#pcb485e46c3)" style="fill: none; stroke: #3d3d3d"/>
   </g>
   <g id="line2d_92">
    <path d="M 210.1332 420.936767 
L 262.1556 420.936767 
" clip-path="url(#pcb485e46c3)" style="fill: none; stroke: #3d3d3d"/>
   </g>
   <g id="line2d_93">
    <path d="M 405.2172 426.943129 
L 457.2396 426.943129 
" clip-path="url(#pcb485e46c3)" style="fill: none; stroke: #3d3d3d"/>
   </g>
   <g id="line2d_94">
    <path d="M 600.3012 430.820263 
L 652.3236 430.820263 
" clip-path="url(#pcb485e46c3)" style="fill: none; stroke: #3d3d3d"/>
   </g>
   <g id="line2d_95">
    <path d="M 795.3852 429.750505 
L 847.4076 429.750505 
" clip-path="url(#pcb485e46c3)" style="fill: none; stroke: #3d3d3d"/>
   </g>
   <g id="line2d_96">
    <path d="M 990.4692 430.244533 
L 1042.4916 430.244533 
" clip-path="url(#pcb485e46c3)" style="fill: none; stroke: #3d3d3d"/>
   </g>
   <g id="patch_21">
    <path d="M 86.58 585.54 
L 86.58 18 
" style="fill: none; stroke: #ffffff; stroke-width: 1.25; stroke-linejoin: miter; stroke-linecap: square"/>
   </g>
   <g id="patch_22">
    <path d="M 1062 585.54 
L 1062 18 
" style="fill: none; stroke: #ffffff; stroke-width: 1.25; stroke-linejoin: miter; stroke-linecap: square"/>
   </g>
   <g id="patch_23">
    <path d="M 86.58 585.54 
L 1062 585.54 
" style="fill: none; stroke: #ffffff; stroke-width: 1.25; stroke-linejoin: miter; stroke-linecap: square"/>
   </g>
   <g id="patch_24">
    <path d="M 86.58 18 
L 1062 18 
" style="fill: none; stroke: #ffffff; stroke-width: 1.25; stroke-linejoin: miter; stroke-linecap: square"/>
   </g>
   <g id="legend_1">
    <g id="patch_25">
     <path d="M 98.13 127.325156 
L 463.282734 127.325156 
Q 466.582734 127.325156 466.582734 124.025156 
L 466.582734 29.55 
Q 466.582734 26.25 463.282734 26.25 
L 98.13 26.25 
Q 94.83 26.25 94.83 29.55 
L 94.83 124.025156 
Q 94.83 127.325156 98.13 127.325156 
z
" style="fill: #eaeaf2; opacity: 0.8; stroke: #cccccc; stroke-linejoin: miter"/>
    </g>
    <g id="text_14">
     <!-- Model Type -->
     <g style="fill: #262626" transform="translate(234.340898 45.734062) scale(0.18 -0.18)">
      <defs>
       <path id="ArialMT-4d" d="M 475 0 
L 475 4581 
L 1388 4581 
L 2472 1338 
Q 2622 884 2691 659 
Q 2769 909 2934 1394 
L 4031 4581 
L 4847 4581 
L 4847 0 
L 4263 0 
L 4263 3834 
L 2931 0 
L 2384 0 
L 1059 3900 
L 1059 0 
L 475 0 
z
" transform="scale(0.015625)"/>
       <path id="ArialMT-64" d="M 2575 0 
L 2575 419 
Q 2259 -75 1647 -75 
Q 1250 -75 917 144 
Q 584 363 401 755 
Q 219 1147 219 1656 
Q 219 2153 384 2558 
Q 550 2963 881 3178 
Q 1213 3394 1622 3394 
Q 1922 3394 2156 3267 
Q 2391 3141 2538 2938 
L 2538 4581 
L 3097 4581 
L 3097 0 
L 2575 0 
z
M 797 1656 
Q 797 1019 1065 703 
Q 1334 388 1700 388 
Q 2069 388 2326 689 
Q 2584 991 2584 1609 
Q 2584 2291 2321 2609 
Q 2059 2928 1675 2928 
Q 1300 2928 1048 2622 
Q 797 2316 797 1656 
z
" transform="scale(0.015625)"/>
       <path id="ArialMT-65" d="M 2694 1069 
L 3275 997 
Q 3138 488 2766 206 
Q 2394 -75 1816 -75 
Q 1088 -75 661 373 
Q 234 822 234 1631 
Q 234 2469 665 2931 
Q 1097 3394 1784 3394 
Q 2450 3394 2872 2941 
Q 3294 2488 3294 1666 
Q 3294 1616 3291 1516 
L 816 1516 
Q 847 969 1125 678 
Q 1403 388 1819 388 
Q 2128 388 2347 550 
Q 2566 713 2694 1069 
z
M 847 1978 
L 2700 1978 
Q 2663 2397 2488 2606 
Q 2219 2931 1791 2931 
Q 1403 2931 1139 2672 
Q 875 2413 847 1978 
z
" transform="scale(0.015625)"/>
       <path id="ArialMT-6c" d="M 409 0 
L 409 4581 
L 972 4581 
L 972 0 
L 409 0 
z
" transform="scale(0.015625)"/>
       <path id="ArialMT-54" d="M 1659 0 
L 1659 4041 
L 150 4041 
L 150 4581 
L 3781 4581 
L 3781 4041 
L 2266 4041 
L 2266 0 
L 1659 0 
z
" transform="scale(0.015625)"/>
       <path id="ArialMT-79" d="M 397 -1278 
L 334 -750 
Q 519 -800 656 -800 
Q 844 -800 956 -737 
Q 1069 -675 1141 -563 
Q 1194 -478 1313 -144 
Q 1328 -97 1363 -6 
L 103 3319 
L 709 3319 
L 1400 1397 
Q 1534 1031 1641 628 
Q 1738 1016 1872 1384 
L 2581 3319 
L 3144 3319 
L 1881 -56 
Q 1678 -603 1566 -809 
Q 1416 -1088 1222 -1217 
Q 1028 -1347 759 -1347 
Q 597 -1347 397 -1278 
z
" transform="scale(0.015625)"/>
       <path id="ArialMT-70" d="M 422 -1272 
L 422 3319 
L 934 3319 
L 934 2888 
Q 1116 3141 1344 3267 
Q 1572 3394 1897 3394 
Q 2322 3394 2647 3175 
Q 2972 2956 3137 2557 
Q 3303 2159 3303 1684 
Q 3303 1175 3120 767 
Q 2938 359 2589 142 
Q 2241 -75 1856 -75 
Q 1575 -75 1351 44 
Q 1128 163 984 344 
L 984 -1272 
L 422 -1272 
z
M 931 1641 
Q 931 1000 1190 694 
Q 1450 388 1819 388 
Q 2194 388 2461 705 
Q 2728 1022 2728 1688 
Q 2728 2322 2467 2637 
Q 2206 2953 1844 2953 
Q 1484 2953 1207 2617 
Q 931 2281 931 1641 
z
" transform="scale(0.015625)"/>
      </defs>
      <use xlink:href="#ArialMT-4d"/>
      <use xlink:href="#ArialMT-6f" x="83.300781"/>
      <use xlink:href="#ArialMT-64" x="138.916016"/>
      <use xlink:href="#ArialMT-65" x="194.53125"/>
      <use xlink:href="#ArialMT-6c" x="250.146484"/>
      <use xlink:href="#ArialMT-20" x="272.363281"/>
      <use xlink:href="#ArialMT-54" x="298.396484"/>
      <use xlink:href="#ArialMT-79" x="353.980469"/>
      <use xlink:href="#ArialMT-70" x="403.980469"/>
      <use xlink:href="#ArialMT-65" x="459.595703"/>
     </g>
    </g>
    <g id="patch_26">
     <path d="M 101.43 69.783984 
L 134.43 69.783984 
L 134.43 58.233984 
L 101.43 58.233984 
z
" style="fill: #3274a1; stroke: #3d3d3d; stroke-linejoin: miter"/>
    </g>
    <g id="text_15">
     <!-- Peak Minimisation &amp; Valley Filling (PM-VF) -->
     <g style="fill: #262626" transform="translate(147.63 69.783984) scale(0.165 -0.165)">
      <defs>
       <path id="ArialMT-61" d="M 2588 409 
Q 2275 144 1986 34 
Q 1697 -75 1366 -75 
Q 819 -75 525 192 
Q 231 459 231 875 
Q 231 1119 342 1320 
Q 453 1522 633 1644 
Q 813 1766 1038 1828 
Q 1203 1872 1538 1913 
Q 2219 1994 2541 2106 
Q 2544 2222 2544 2253 
Q 2544 2597 2384 2738 
Q 2169 2928 1744 2928 
Q 1347 2928 1158 2789 
Q 969 2650 878 2297 
L 328 2372 
Q 403 2725 575 2942 
Q 747 3159 1072 3276 
Q 1397 3394 1825 3394 
Q 2250 3394 2515 3294 
Q 2781 3194 2906 3042 
Q 3031 2891 3081 2659 
Q 3109 2516 3109 2141 
L 3109 1391 
Q 3109 606 3145 398 
Q 3181 191 3288 0 
L 2700 0 
Q 2613 175 2588 409 
z
M 2541 1666 
Q 2234 1541 1622 1453 
Q 1275 1403 1131 1340 
Q 988 1278 909 1158 
Q 831 1038 831 891 
Q 831 666 1001 516 
Q 1172 366 1500 366 
Q 1825 366 2078 508 
Q 2331 650 2450 897 
Q 2541 1088 2541 1459 
L 2541 1666 
z
" transform="scale(0.015625)"/>
       <path id="ArialMT-6b" d="M 425 0 
L 425 4581 
L 988 4581 
L 988 1969 
L 2319 3319 
L 3047 3319 
L 1778 2088 
L 3175 0 
L 2481 0 
L 1384 1697 
L 988 1316 
L 988 0 
L 425 0 
z
" transform="scale(0.015625)"/>
       <path id="ArialMT-6d" d="M 422 0 
L 422 3319 
L 925 3319 
L 925 2853 
Q 1081 3097 1340 3245 
Q 1600 3394 1931 3394 
Q 2300 3394 2536 3241 
Q 2772 3088 2869 2813 
Q 3263 3394 3894 3394 
Q 4388 3394 4653 3120 
Q 4919 2847 4919 2278 
L 4919 0 
L 4359 0 
L 4359 2091 
Q 4359 2428 4304 2576 
Q 4250 2725 4106 2815 
Q 3963 2906 3769 2906 
Q 3419 2906 3187 2673 
Q 2956 2441 2956 1928 
L 2956 0 
L 2394 0 
L 2394 2156 
Q 2394 2531 2256 2718 
Q 2119 2906 1806 2906 
Q 1569 2906 1367 2781 
Q 1166 2656 1075 2415 
Q 984 2175 984 1722 
L 984 0 
L 422 0 
z
" transform="scale(0.015625)"/>
       <path id="ArialMT-73" d="M 197 991 
L 753 1078 
Q 800 744 1014 566 
Q 1228 388 1613 388 
Q 2000 388 2187 545 
Q 2375 703 2375 916 
Q 2375 1106 2209 1216 
Q 2094 1291 1634 1406 
Q 1016 1563 777 1677 
Q 538 1791 414 1992 
Q 291 2194 291 2438 
Q 291 2659 392 2848 
Q 494 3038 669 3163 
Q 800 3259 1026 3326 
Q 1253 3394 1513 3394 
Q 1903 3394 2198 3281 
Q 2494 3169 2634 2976 
Q 2775 2784 2828 2463 
L 2278 2388 
Q 2241 2644 2061 2787 
Q 1881 2931 1553 2931 
Q 1166 2931 1000 2803 
Q 834 2675 834 2503 
Q 834 2394 903 2306 
Q 972 2216 1119 2156 
Q 1203 2125 1616 2013 
Q 2213 1853 2448 1751 
Q 2684 1650 2818 1456 
Q 2953 1263 2953 975 
Q 2953 694 2789 445 
Q 2625 197 2315 61 
Q 2006 -75 1616 -75 
Q 969 -75 630 194 
Q 291 463 197 991 
z
" transform="scale(0.015625)"/>
       <path id="ArialMT-26" d="M 3041 541 
Q 2763 231 2434 76 
Q 2106 -78 1725 -78 
Q 1022 -78 609 397 
Q 275 784 275 1263 
Q 275 1688 548 2030 
Q 822 2372 1366 2631 
Q 1056 2988 953 3209 
Q 850 3431 850 3638 
Q 850 4050 1173 4354 
Q 1497 4659 1988 4659 
Q 2456 4659 2754 4371 
Q 3053 4084 3053 3681 
Q 3053 3028 2188 2566 
L 3009 1519 
Q 3150 1794 3228 2156 
L 3813 2031 
Q 3663 1431 3406 1044 
Q 3722 625 4122 341 
L 3744 -106 
Q 3403 113 3041 541 
z
M 1897 2928 
Q 2263 3144 2370 3306 
Q 2478 3469 2478 3666 
Q 2478 3900 2329 4048 
Q 2181 4197 1959 4197 
Q 1731 4197 1579 4050 
Q 1428 3903 1428 3691 
Q 1428 3584 1483 3467 
Q 1538 3350 1647 3219 
L 1897 2928 
z
M 2688 984 
L 1656 2263 
Q 1200 1991 1040 1758 
Q 881 1525 881 1297 
Q 881 1019 1103 719 
Q 1325 419 1731 419 
Q 1984 419 2254 576 
Q 2525 734 2688 984 
z
" transform="scale(0.015625)"/>
       <path id="ArialMT-46" d="M 525 0 
L 525 4581 
L 3616 4581 
L 3616 4041 
L 1131 4041 
L 1131 2622 
L 3281 2622 
L 3281 2081 
L 1131 2081 
L 1131 0 
L 525 0 
z
" transform="scale(0.015625)"/>
       <path id="ArialMT-67" d="M 319 -275 
L 866 -356 
Q 900 -609 1056 -725 
Q 1266 -881 1628 -881 
Q 2019 -881 2231 -725 
Q 2444 -569 2519 -288 
Q 2563 -116 2559 434 
Q 2191 0 1641 0 
Q 956 0 581 494 
Q 206 988 206 1678 
Q 206 2153 378 2554 
Q 550 2956 876 3175 
Q 1203 3394 1644 3394 
Q 2231 3394 2613 2919 
L 2613 3319 
L 3131 3319 
L 3131 450 
Q 3131 -325 2973 -648 
Q 2816 -972 2473 -1159 
Q 2131 -1347 1631 -1347 
Q 1038 -1347 672 -1080 
Q 306 -813 319 -275 
z
M 784 1719 
Q 784 1066 1043 766 
Q 1303 466 1694 466 
Q 2081 466 2343 764 
Q 2606 1063 2606 1700 
Q 2606 2309 2336 2618 
Q 2066 2928 1684 2928 
Q 1309 2928 1046 2623 
Q 784 2319 784 1719 
z
" transform="scale(0.015625)"/>
       <path id="ArialMT-28" d="M 1497 -1347 
Q 1031 -759 709 28 
Q 388 816 388 1659 
Q 388 2403 628 3084 
Q 909 3875 1497 4659 
L 1900 4659 
Q 1522 4009 1400 3731 
Q 1209 3300 1100 2831 
Q 966 2247 966 1656 
Q 966 153 1900 -1347 
L 1497 -1347 
z
" transform="scale(0.015625)"/>
       <path id="ArialMT-29" d="M 791 -1347 
L 388 -1347 
Q 1322 153 1322 1656 
Q 1322 2244 1188 2822 
Q 1081 3291 891 3722 
Q 769 4003 388 4659 
L 791 4659 
Q 1378 3875 1659 3084 
Q 1900 2403 1900 1659 
Q 1900 816 1576 28 
Q 1253 -759 791 -1347 
z
" transform="scale(0.015625)"/>
      </defs>
      <use xlink:href="#ArialMT-50"/>
      <use xlink:href="#ArialMT-65" x="66.699219"/>
      <use xlink:href="#ArialMT-61" x="122.314453"/>
      <use xlink:href="#ArialMT-6b" x="177.929688"/>
      <use xlink:href="#ArialMT-20" x="227.929688"/>
      <use xlink:href="#ArialMT-4d" x="255.712891"/>
      <use xlink:href="#ArialMT-69" x="339.013672"/>
      <use xlink:href="#ArialMT-6e" x="361.230469"/>
      <use xlink:href="#ArialMT-69" x="416.845703"/>
      <use xlink:href="#ArialMT-6d" x="439.0625"/>
      <use xlink:href="#ArialMT-69" x="522.363281"/>
      <use xlink:href="#ArialMT-73" x="544.580078"/>
      <use xlink:href="#ArialMT-61" x="594.580078"/>
      <use xlink:href="#ArialMT-74" x="650.195312"/>
      <use xlink:href="#ArialMT-69" x="677.978516"/>
      <use xlink:href="#ArialMT-6f" x="700.195312"/>
      <use xlink:href="#ArialMT-6e" x="755.810547"/>
      <use xlink:href="#ArialMT-20" x="811.425781"/>
      <use xlink:href="#ArialMT-26" x="839.208984"/>
      <use xlink:href="#ArialMT-20" x="905.908203"/>
      <use xlink:href="#ArialMT-56" x="933.691406"/>
      <use xlink:href="#ArialMT-61" x="993.015625"/>
      <use xlink:href="#ArialMT-6c" x="1048.630859"/>
      <use xlink:href="#ArialMT-6c" x="1070.847656"/>
      <use xlink:href="#ArialMT-65" x="1093.064453"/>
      <use xlink:href="#ArialMT-79" x="1148.679688"/>
      <use xlink:href="#ArialMT-20" x="1198.679688"/>
      <use xlink:href="#ArialMT-46" x="1226.462891"/>
      <use xlink:href="#ArialMT-69" x="1287.546875"/>
      <use xlink:href="#ArialMT-6c" x="1309.763672"/>
      <use xlink:href="#ArialMT-6c" x="1331.980469"/>
      <use xlink:href="#ArialMT-69" x="1354.197266"/>
      <use xlink:href="#ArialMT-6e" x="1376.414062"/>
      <use xlink:href="#ArialMT-67" x="1432.029297"/>
      <use xlink:href="#ArialMT-20" x="1487.644531"/>
      <use xlink:href="#ArialMT-28" x="1515.427734"/>
      <use xlink:href="#ArialMT-50" x="1548.728516"/>
      <use xlink:href="#ArialMT-4d" x="1615.427734"/>
      <use xlink:href="#ArialMT-2d" x="1698.728516"/>
      <use xlink:href="#ArialMT-56" x="1732.029297"/>
      <use xlink:href="#ArialMT-46" x="1798.728516"/>
      <use xlink:href="#ArialMT-29" x="1859.8125"/>
     </g>
    </g>
    <g id="patch_27">
     <path d="M 101.43 93.518203 
L 134.43 93.518203 
L 134.43 81.968203 
L 101.43 81.968203 
z
" style="fill: #e1812c; stroke: #3d3d3d; stroke-linejoin: miter"/>
    </g>
    <g id="text_16">
     <!-- Charging Cost Minimisation (CCM) -->
     <g style="fill: #262626" transform="translate(147.63 93.518203) scale(0.165 -0.165)">
      <defs>
       <path id="ArialMT-68" d="M 422 0 
L 422 4581 
L 984 4581 
L 984 2938 
Q 1378 3394 1978 3394 
Q 2347 3394 2619 3248 
Q 2891 3103 3008 2847 
Q 3125 2591 3125 2103 
L 3125 0 
L 2563 0 
L 2563 2103 
Q 2563 2525 2380 2717 
Q 2197 2909 1863 2909 
Q 1613 2909 1392 2779 
Q 1172 2650 1078 2428 
Q 984 2206 984 1816 
L 984 0 
L 422 0 
z
" transform="scale(0.015625)"/>
      </defs>
      <use xlink:href="#ArialMT-43"/>
      <use xlink:href="#ArialMT-68" x="72.216797"/>
      <use xlink:href="#ArialMT-61" x="127.832031"/>
      <use xlink:href="#ArialMT-72" x="183.447266"/>
      <use xlink:href="#ArialMT-67" x="216.748047"/>
      <use xlink:href="#ArialMT-69" x="272.363281"/>
      <use xlink:href="#ArialMT-6e" x="294.580078"/>
      <use xlink:href="#ArialMT-67" x="350.195312"/>
      <use xlink:href="#ArialMT-20" x="405.810547"/>
      <use xlink:href="#ArialMT-43" x="433.59375"/>
      <use xlink:href="#ArialMT-6f" x="505.810547"/>
      <use xlink:href="#ArialMT-73" x="561.425781"/>
      <use xlink:href="#ArialMT-74" x="611.425781"/>
      <use xlink:href="#ArialMT-20" x="639.208984"/>
      <use xlink:href="#ArialMT-4d" x="666.992188"/>
      <use xlink:href="#ArialMT-69" x="750.292969"/>
      <use xlink:href="#ArialMT-6e" x="772.509766"/>
      <use xlink:href="#ArialMT-69" x="828.125"/>
      <use xlink:href="#ArialMT-6d" x="850.341797"/>
      <use xlink:href="#ArialMT-69" x="933.642578"/>
      <use xlink:href="#ArialMT-73" x="955.859375"/>
      <use xlink:href="#ArialMT-61" x="1005.859375"/>
      <use xlink:href="#ArialMT-74" x="1061.474609"/>
      <use xlink:href="#ArialMT-69" x="1089.257812"/>
      <use xlink:href="#ArialMT-6f" x="1111.474609"/>
      <use xlink:href="#ArialMT-6e" x="1167.089844"/>
      <use xlink:href="#ArialMT-20" x="1222.705078"/>
      <use xlink:href="#ArialMT-28" x="1250.488281"/>
      <use xlink:href="#ArialMT-43" x="1283.789062"/>
      <use xlink:href="#ArialMT-43" x="1356.005859"/>
      <use xlink:href="#ArialMT-4d" x="1428.222656"/>
      <use xlink:href="#ArialMT-29" x="1511.523438"/>
     </g>
    </g>
    <g id="patch_28">
     <path d="M 101.43 117.252422 
L 134.43 117.252422 
L 134.43 105.702422 
L 101.43 105.702422 
z
" style="fill: #3a923a; stroke: #3d3d3d; stroke-linejoin: miter"/>
    </g>
    <g id="text_17">
     <!-- Carbon Emission Minimisation (CEM) -->
     <g style="fill: #262626" transform="translate(147.63 117.252422) scale(0.165 -0.165)">
      <defs>
       <path id="ArialMT-62" d="M 941 0 
L 419 0 
L 419 4581 
L 981 4581 
L 981 2947 
Q 1338 3394 1891 3394 
Q 2197 3394 2470 3270 
Q 2744 3147 2920 2923 
Q 3097 2700 3197 2384 
Q 3297 2069 3297 1709 
Q 3297 856 2875 390 
Q 2453 -75 1863 -75 
Q 1275 -75 941 416 
L 941 0 
z
M 934 1684 
Q 934 1088 1097 822 
Q 1363 388 1816 388 
Q 2184 388 2453 708 
Q 2722 1028 2722 1663 
Q 2722 2313 2464 2622 
Q 2206 2931 1841 2931 
Q 1472 2931 1203 2611 
Q 934 2291 934 1684 
z
" transform="scale(0.015625)"/>
      </defs>
      <use xlink:href="#ArialMT-43"/>
      <use xlink:href="#ArialMT-61" x="72.216797"/>
      <use xlink:href="#ArialMT-72" x="127.832031"/>
      <use xlink:href="#ArialMT-62" x="161.132812"/>
      <use xlink:href="#ArialMT-6f" x="216.748047"/>
      <use xlink:href="#ArialMT-6e" x="272.363281"/>
      <use xlink:href="#ArialMT-20" x="327.978516"/>
      <use xlink:href="#ArialMT-45" x="355.761719"/>
      <use xlink:href="#ArialMT-6d" x="422.460938"/>
      <use xlink:href="#ArialMT-69" x="505.761719"/>
      <use xlink:href="#ArialMT-73" x="527.978516"/>
      <use xlink:href="#ArialMT-73" x="577.978516"/>
      <use xlink:href="#ArialMT-69" x="627.978516"/>
      <use xlink:href="#ArialMT-6f" x="650.195312"/>
      <use xlink:href="#ArialMT-6e" x="705.810547"/>
      <use xlink:href="#ArialMT-20" x="761.425781"/>
      <use xlink:href="#ArialMT-4d" x="789.208984"/>
      <use xlink:href="#ArialMT-69" x="872.509766"/>
      <use xlink:href="#ArialMT-6e" x="894.726562"/>
      <use xlink:href="#ArialMT-69" x="950.341797"/>
      <use xlink:href="#ArialMT-6d" x="972.558594"/>
      <use xlink:href="#ArialMT-69" x="1055.859375"/>
      <use xlink:href="#ArialMT-73" x="1078.076172"/>
      <use xlink:href="#ArialMT-61" x="1128.076172"/>
      <use xlink:href="#ArialMT-74" x="1183.691406"/>
      <use xlink:href="#ArialMT-69" x="1211.474609"/>
      <use xlink:href="#ArialMT-6f" x="1233.691406"/>
      <use xlink:href="#ArialMT-6e" x="1289.306641"/>
      <use xlink:href="#ArialMT-20" x="1344.921875"/>
      <use xlink:href="#ArialMT-28" x="1372.705078"/>
      <use xlink:href="#ArialMT-43" x="1406.005859"/>
      <use xlink:href="#ArialMT-45" x="1478.222656"/>
      <use xlink:href="#ArialMT-4d" x="1544.921875"/>
      <use xlink:href="#ArialMT-29" x="1628.222656"/>
     </g>
    </g>
   </g>
  </g>
 </g>
 <defs>
  <clipPath id="pcb485e46c3">
   <rect x="86.58" y="18" width="975.42" height="567.54"/>
  </clipPath>
 </defs>
</svg>
