<?xml version="1.0" encoding="utf-8" standalone="no"?>
<!DOCTYPE svg PUBLIC "-//W3C//DTD SVG 1.1//EN"
  "http://www.w3.org/Graphics/SVG/1.1/DTD/svg11.dtd">
<svg xmlns:xlink="http://www.w3.org/1999/xlink" width="720pt" height="432pt" viewBox="0 0 720 432" xmlns="http://www.w3.org/2000/svg" version="1.1">
 <metadata>
  <rdf:RDF xmlns:dc="http://purl.org/dc/elements/1.1/" xmlns:cc="http://creativecommons.org/ns#" xmlns:rdf="http://www.w3.org/1999/02/22-rdf-syntax-ns#">
   <cc:Work>
    <dc:type rdf:resource="http://purl.org/dc/dcmitype/StillImage"/>
    <dc:date>2024-12-09T15:06:57.881286</dc:date>
    <dc:format>image/svg+xml</dc:format>
    <dc:creator>
     <cc:Agent>
      <dc:title>Matplotlib v3.9.2, https://matplotlib.org/</dc:title>
     </cc:Agent>
    </dc:creator>
   </cc:Work>
  </rdf:RDF>
 </metadata>
 <defs>
  <style type="text/css">*{stroke-linejoin: round; stroke-linecap: butt}</style>
 </defs>
 <g id="figure_1">
  <g id="patch_1">
   <path d="M 0 432 
L 720 432 
L 720 0 
L 0 0 
z
" style="fill: #ffffff"/>
  </g>
  <g id="axes_1">
   <g id="patch_2">
    <path d="M 71.01 365.107081 
L 653.67 365.107081 
L 653.67 18 
L 71.01 18 
z
" style="fill: #eaeaf2"/>
   </g>
   <g id="matplotlib.axis_1">
    <g id="xtick_1">
     <g id="line2d_1">
      <path d="M 71.01 365.107081 
L 71.01 18 
" clip-path="url(#p350d773e3f)" style="fill: none; stroke: #ffffff; stroke-linecap: round"/>
     </g>
     <g id="text_1">
      <!-- 00:00 -->
      <g style="fill: #262626" transform="translate(59.429331 412.151965) rotate(-45) scale(0.165 -0.165)">
       <defs>
        <path id="ArialMT-30" d="M 266 2259 
Q 266 3072 433 3567 
Q 600 4063 929 4331 
Q 1259 4600 1759 4600 
Q 2128 4600 2406 4451 
Q 2684 4303 2865 4023 
Q 3047 3744 3150 3342 
Q 3253 2941 3253 2259 
Q 3253 1453 3087 958 
Q 2922 463 2592 192 
Q 2263 -78 1759 -78 
Q 1097 -78 719 397 
Q 266 969 266 2259 
z
M 844 2259 
Q 844 1131 1108 757 
Q 1372 384 1759 384 
Q 2147 384 2411 759 
Q 2675 1134 2675 2259 
Q 2675 3391 2411 3762 
Q 2147 4134 1753 4134 
Q 1366 4134 1134 3806 
Q 844 3388 844 2259 
z
" transform="scale(0.015625)"/>
        <path id="ArialMT-3a" d="M 578 2678 
L 578 3319 
L 1219 3319 
L 1219 2678 
L 578 2678 
z
M 578 0 
L 578 641 
L 1219 641 
L 1219 0 
L 578 0 
z
" transform="scale(0.015625)"/>
       </defs>
       <use xlink:href="#ArialMT-30"/>
       <use xlink:href="#ArialMT-30" x="55.615234"/>
       <use xlink:href="#ArialMT-3a" x="111.230469"/>
       <use xlink:href="#ArialMT-30" x="139.013672"/>
       <use xlink:href="#ArialMT-30" x="194.628906"/>
      </g>
     </g>
    </g>
    <g id="xtick_2">
     <g id="line2d_2">
      <path d="M 95.037216 365.107081 
L 95.037216 18 
" clip-path="url(#p350d773e3f)" style="fill: none; stroke: #ffffff; stroke-linecap: round"/>
     </g>
     <g id="text_2">
      <!-- 01:00 -->
      <g style="fill: #262626" transform="translate(83.456548 412.151965) rotate(-45) scale(0.165 -0.165)">
       <defs>
        <path id="ArialMT-31" d="M 2384 0 
L 1822 0 
L 1822 3584 
Q 1619 3391 1289 3197 
Q 959 3003 697 2906 
L 697 3450 
Q 1169 3672 1522 3987 
Q 1875 4303 2022 4600 
L 2384 4600 
L 2384 0 
z
" transform="scale(0.015625)"/>
       </defs>
       <use xlink:href="#ArialMT-30"/>
       <use xlink:href="#ArialMT-31" x="55.615234"/>
       <use xlink:href="#ArialMT-3a" x="111.230469"/>
       <use xlink:href="#ArialMT-30" x="139.013672"/>
       <use xlink:href="#ArialMT-30" x="194.628906"/>
      </g>
     </g>
    </g>
    <g id="xtick_3">
     <g id="line2d_3">
      <path d="M 119.064433 365.107081 
L 119.064433 18 
" clip-path="url(#p350d773e3f)" style="fill: none; stroke: #ffffff; stroke-linecap: round"/>
     </g>
     <g id="text_3">
      <!-- 02:00 -->
      <g style="fill: #262626" transform="translate(107.483764 412.151965) rotate(-45) scale(0.165 -0.165)">
       <defs>
        <path id="ArialMT-32" d="M 3222 541 
L 3222 0 
L 194 0 
Q 188 203 259 391 
Q 375 700 629 1000 
Q 884 1300 1366 1694 
Q 2113 2306 2375 2664 
Q 2638 3022 2638 3341 
Q 2638 3675 2398 3904 
Q 2159 4134 1775 4134 
Q 1369 4134 1125 3890 
Q 881 3647 878 3216 
L 300 3275 
Q 359 3922 746 4261 
Q 1134 4600 1788 4600 
Q 2447 4600 2831 4234 
Q 3216 3869 3216 3328 
Q 3216 3053 3103 2787 
Q 2991 2522 2730 2228 
Q 2469 1934 1863 1422 
Q 1356 997 1212 845 
Q 1069 694 975 541 
L 3222 541 
z
" transform="scale(0.015625)"/>
       </defs>
       <use xlink:href="#ArialMT-30"/>
       <use xlink:href="#ArialMT-32" x="55.615234"/>
       <use xlink:href="#ArialMT-3a" x="111.230469"/>
       <use xlink:href="#ArialMT-30" x="139.013672"/>
       <use xlink:href="#ArialMT-30" x="194.628906"/>
      </g>
     </g>
    </g>
    <g id="xtick_4">
     <g id="line2d_4">
      <path d="M 143.091649 365.107081 
L 143.091649 18 
" clip-path="url(#p350d773e3f)" style="fill: none; stroke: #ffffff; stroke-linecap: round"/>
     </g>
     <g id="text_4">
      <!-- 03:00 -->
      <g style="fill: #262626" transform="translate(131.510981 412.151965) rotate(-45) scale(0.165 -0.165)">
       <defs>
        <path id="ArialMT-33" d="M 269 1209 
L 831 1284 
Q 928 806 1161 595 
Q 1394 384 1728 384 
Q 2125 384 2398 659 
Q 2672 934 2672 1341 
Q 2672 1728 2419 1979 
Q 2166 2231 1775 2231 
Q 1616 2231 1378 2169 
L 1441 2663 
Q 1497 2656 1531 2656 
Q 1891 2656 2178 2843 
Q 2466 3031 2466 3422 
Q 2466 3731 2256 3934 
Q 2047 4138 1716 4138 
Q 1388 4138 1169 3931 
Q 950 3725 888 3313 
L 325 3413 
Q 428 3978 793 4289 
Q 1159 4600 1703 4600 
Q 2078 4600 2393 4439 
Q 2709 4278 2876 4000 
Q 3044 3722 3044 3409 
Q 3044 3113 2884 2869 
Q 2725 2625 2413 2481 
Q 2819 2388 3044 2092 
Q 3269 1797 3269 1353 
Q 3269 753 2831 336 
Q 2394 -81 1725 -81 
Q 1122 -81 723 278 
Q 325 638 269 1209 
z
" transform="scale(0.015625)"/>
       </defs>
       <use xlink:href="#ArialMT-30"/>
       <use xlink:href="#ArialMT-33" x="55.615234"/>
       <use xlink:href="#ArialMT-3a" x="111.230469"/>
       <use xlink:href="#ArialMT-30" x="139.013672"/>
       <use xlink:href="#ArialMT-30" x="194.628906"/>
      </g>
     </g>
    </g>
    <g id="xtick_5">
     <g id="line2d_5">
      <path d="M 167.118866 365.107081 
L 167.118866 18 
" clip-path="url(#p350d773e3f)" style="fill: none; stroke: #ffffff; stroke-linecap: round"/>
     </g>
     <g id="text_5">
      <!-- 04:00 -->
      <g style="fill: #262626" transform="translate(155.538197 412.151965) rotate(-45) scale(0.165 -0.165)">
       <defs>
        <path id="ArialMT-34" d="M 2069 0 
L 2069 1097 
L 81 1097 
L 81 1613 
L 2172 4581 
L 2631 4581 
L 2631 1613 
L 3250 1613 
L 3250 1097 
L 2631 1097 
L 2631 0 
L 2069 0 
z
M 2069 1613 
L 2069 3678 
L 634 1613 
L 2069 1613 
z
" transform="scale(0.015625)"/>
       </defs>
       <use xlink:href="#ArialMT-30"/>
       <use xlink:href="#ArialMT-34" x="55.615234"/>
       <use xlink:href="#ArialMT-3a" x="111.230469"/>
       <use xlink:href="#ArialMT-30" x="139.013672"/>
       <use xlink:href="#ArialMT-30" x="194.628906"/>
      </g>
     </g>
    </g>
    <g id="xtick_6">
     <g id="line2d_6">
      <path d="M 191.146082 365.107081 
L 191.146082 18 
" clip-path="url(#p350d773e3f)" style="fill: none; stroke: #ffffff; stroke-linecap: round"/>
     </g>
     <g id="text_6">
      <!-- 05:00 -->
      <g style="fill: #262626" transform="translate(179.565414 412.151965) rotate(-45) scale(0.165 -0.165)">
       <defs>
        <path id="ArialMT-35" d="M 266 1200 
L 856 1250 
Q 922 819 1161 601 
Q 1400 384 1738 384 
Q 2144 384 2425 690 
Q 2706 997 2706 1503 
Q 2706 1984 2436 2262 
Q 2166 2541 1728 2541 
Q 1456 2541 1237 2417 
Q 1019 2294 894 2097 
L 366 2166 
L 809 4519 
L 3088 4519 
L 3088 3981 
L 1259 3981 
L 1013 2750 
Q 1425 3038 1878 3038 
Q 2478 3038 2890 2622 
Q 3303 2206 3303 1553 
Q 3303 931 2941 478 
Q 2500 -78 1738 -78 
Q 1113 -78 717 272 
Q 322 622 266 1200 
z
" transform="scale(0.015625)"/>
       </defs>
       <use xlink:href="#ArialMT-30"/>
       <use xlink:href="#ArialMT-35" x="55.615234"/>
       <use xlink:href="#ArialMT-3a" x="111.230469"/>
       <use xlink:href="#ArialMT-30" x="139.013672"/>
       <use xlink:href="#ArialMT-30" x="194.628906"/>
      </g>
     </g>
    </g>
    <g id="xtick_7">
     <g id="line2d_7">
      <path d="M 215.173299 365.107081 
L 215.173299 18 
" clip-path="url(#p350d773e3f)" style="fill: none; stroke: #ffffff; stroke-linecap: round"/>
     </g>
     <g id="text_7">
      <!-- 06:00 -->
      <g style="fill: #262626" transform="translate(203.59263 412.151965) rotate(-45) scale(0.165 -0.165)">
       <defs>
        <path id="ArialMT-36" d="M 3184 3459 
L 2625 3416 
Q 2550 3747 2413 3897 
Q 2184 4138 1850 4138 
Q 1581 4138 1378 3988 
Q 1113 3794 959 3422 
Q 806 3050 800 2363 
Q 1003 2672 1297 2822 
Q 1591 2972 1913 2972 
Q 2475 2972 2870 2558 
Q 3266 2144 3266 1488 
Q 3266 1056 3080 686 
Q 2894 316 2569 119 
Q 2244 -78 1831 -78 
Q 1128 -78 684 439 
Q 241 956 241 2144 
Q 241 3472 731 4075 
Q 1159 4600 1884 4600 
Q 2425 4600 2770 4297 
Q 3116 3994 3184 3459 
z
M 888 1484 
Q 888 1194 1011 928 
Q 1134 663 1356 523 
Q 1578 384 1822 384 
Q 2178 384 2434 671 
Q 2691 959 2691 1453 
Q 2691 1928 2437 2201 
Q 2184 2475 1800 2475 
Q 1419 2475 1153 2201 
Q 888 1928 888 1484 
z
" transform="scale(0.015625)"/>
       </defs>
       <use xlink:href="#ArialMT-30"/>
       <use xlink:href="#ArialMT-36" x="55.615234"/>
       <use xlink:href="#ArialMT-3a" x="111.230469"/>
       <use xlink:href="#ArialMT-30" x="139.013672"/>
       <use xlink:href="#ArialMT-30" x="194.628906"/>
      </g>
     </g>
    </g>
    <g id="xtick_8">
     <g id="line2d_8">
      <path d="M 239.200515 365.107081 
L 239.200515 18 
" clip-path="url(#p350d773e3f)" style="fill: none; stroke: #ffffff; stroke-linecap: round"/>
     </g>
     <g id="text_8">
      <!-- 07:00 -->
      <g style="fill: #262626" transform="translate(227.619847 412.151965) rotate(-45) scale(0.165 -0.165)">
       <defs>
        <path id="ArialMT-37" d="M 303 3981 
L 303 4522 
L 3269 4522 
L 3269 4084 
Q 2831 3619 2401 2847 
Q 1972 2075 1738 1259 
Q 1569 684 1522 0 
L 944 0 
Q 953 541 1156 1306 
Q 1359 2072 1739 2783 
Q 2119 3494 2547 3981 
L 303 3981 
z
" transform="scale(0.015625)"/>
       </defs>
       <use xlink:href="#ArialMT-30"/>
       <use xlink:href="#ArialMT-37" x="55.615234"/>
       <use xlink:href="#ArialMT-3a" x="111.230469"/>
       <use xlink:href="#ArialMT-30" x="139.013672"/>
       <use xlink:href="#ArialMT-30" x="194.628906"/>
      </g>
     </g>
    </g>
    <g id="xtick_9">
     <g id="line2d_9">
      <path d="M 263.227732 365.107081 
L 263.227732 18 
" clip-path="url(#p350d773e3f)" style="fill: none; stroke: #ffffff; stroke-linecap: round"/>
     </g>
     <g id="text_9">
      <!-- 08:00 -->
      <g style="fill: #262626" transform="translate(251.647063 412.151965) rotate(-45) scale(0.165 -0.165)">
       <defs>
        <path id="ArialMT-38" d="M 1131 2484 
Q 781 2613 612 2850 
Q 444 3088 444 3419 
Q 444 3919 803 4259 
Q 1163 4600 1759 4600 
Q 2359 4600 2725 4251 
Q 3091 3903 3091 3403 
Q 3091 3084 2923 2848 
Q 2756 2613 2416 2484 
Q 2838 2347 3058 2040 
Q 3278 1734 3278 1309 
Q 3278 722 2862 322 
Q 2447 -78 1769 -78 
Q 1091 -78 675 323 
Q 259 725 259 1325 
Q 259 1772 486 2073 
Q 713 2375 1131 2484 
z
M 1019 3438 
Q 1019 3113 1228 2906 
Q 1438 2700 1772 2700 
Q 2097 2700 2305 2904 
Q 2513 3109 2513 3406 
Q 2513 3716 2298 3927 
Q 2084 4138 1766 4138 
Q 1444 4138 1231 3931 
Q 1019 3725 1019 3438 
z
M 838 1322 
Q 838 1081 952 856 
Q 1066 631 1291 507 
Q 1516 384 1775 384 
Q 2178 384 2440 643 
Q 2703 903 2703 1303 
Q 2703 1709 2433 1975 
Q 2163 2241 1756 2241 
Q 1359 2241 1098 1978 
Q 838 1716 838 1322 
z
" transform="scale(0.015625)"/>
       </defs>
       <use xlink:href="#ArialMT-30"/>
       <use xlink:href="#ArialMT-38" x="55.615234"/>
       <use xlink:href="#ArialMT-3a" x="111.230469"/>
       <use xlink:href="#ArialMT-30" x="139.013672"/>
       <use xlink:href="#ArialMT-30" x="194.628906"/>
      </g>
     </g>
    </g>
    <g id="xtick_10">
     <g id="line2d_10">
      <path d="M 287.254948 365.107081 
L 287.254948 18 
" clip-path="url(#p350d773e3f)" style="fill: none; stroke: #ffffff; stroke-linecap: round"/>
     </g>
     <g id="text_10">
      <!-- 09:00 -->
      <g style="fill: #262626" transform="translate(275.67428 412.151965) rotate(-45) scale(0.165 -0.165)">
       <defs>
        <path id="ArialMT-39" d="M 350 1059 
L 891 1109 
Q 959 728 1153 556 
Q 1347 384 1650 384 
Q 1909 384 2104 503 
Q 2300 622 2425 820 
Q 2550 1019 2634 1356 
Q 2719 1694 2719 2044 
Q 2719 2081 2716 2156 
Q 2547 1888 2255 1720 
Q 1963 1553 1622 1553 
Q 1053 1553 659 1965 
Q 266 2378 266 3053 
Q 266 3750 677 4175 
Q 1088 4600 1706 4600 
Q 2153 4600 2523 4359 
Q 2894 4119 3086 3673 
Q 3278 3228 3278 2384 
Q 3278 1506 3087 986 
Q 2897 466 2520 194 
Q 2144 -78 1638 -78 
Q 1100 -78 759 220 
Q 419 519 350 1059 
z
M 2653 3081 
Q 2653 3566 2395 3850 
Q 2138 4134 1775 4134 
Q 1400 4134 1122 3828 
Q 844 3522 844 3034 
Q 844 2597 1108 2323 
Q 1372 2050 1759 2050 
Q 2150 2050 2401 2323 
Q 2653 2597 2653 3081 
z
" transform="scale(0.015625)"/>
       </defs>
       <use xlink:href="#ArialMT-30"/>
       <use xlink:href="#ArialMT-39" x="55.615234"/>
       <use xlink:href="#ArialMT-3a" x="111.230469"/>
       <use xlink:href="#ArialMT-30" x="139.013672"/>
       <use xlink:href="#ArialMT-30" x="194.628906"/>
      </g>
     </g>
    </g>
    <g id="xtick_11">
     <g id="line2d_11">
      <path d="M 311.282165 365.107081 
L 311.282165 18 
" clip-path="url(#p350d773e3f)" style="fill: none; stroke: #ffffff; stroke-linecap: round"/>
     </g>
     <g id="text_11">
      <!-- 10:00 -->
      <g style="fill: #262626" transform="translate(299.701496 412.151965) rotate(-45) scale(0.165 -0.165)">
       <use xlink:href="#ArialMT-31"/>
       <use xlink:href="#ArialMT-30" x="55.615234"/>
       <use xlink:href="#ArialMT-3a" x="111.230469"/>
       <use xlink:href="#ArialMT-30" x="139.013672"/>
       <use xlink:href="#ArialMT-30" x="194.628906"/>
      </g>
     </g>
    </g>
    <g id="xtick_12">
     <g id="line2d_12">
      <path d="M 335.309381 365.107081 
L 335.309381 18 
" clip-path="url(#p350d773e3f)" style="fill: none; stroke: #ffffff; stroke-linecap: round"/>
     </g>
     <g id="text_12">
      <!-- 11:00 -->
      <g style="fill: #262626" transform="translate(324.158943 411.291505) rotate(-45) scale(0.165 -0.165)">
       <use xlink:href="#ArialMT-31"/>
       <use xlink:href="#ArialMT-31" x="48.240234"/>
       <use xlink:href="#ArialMT-3a" x="103.855469"/>
       <use xlink:href="#ArialMT-30" x="131.638672"/>
       <use xlink:href="#ArialMT-30" x="187.253906"/>
      </g>
     </g>
    </g>
    <g id="xtick_13">
     <g id="line2d_13">
      <path d="M 359.336598 365.107081 
L 359.336598 18 
" clip-path="url(#p350d773e3f)" style="fill: none; stroke: #ffffff; stroke-linecap: round"/>
     </g>
     <g id="text_13">
      <!-- 12:00 -->
      <g style="fill: #262626" transform="translate(347.755929 412.151965) rotate(-45) scale(0.165 -0.165)">
       <use xlink:href="#ArialMT-31"/>
       <use xlink:href="#ArialMT-32" x="55.615234"/>
       <use xlink:href="#ArialMT-3a" x="111.230469"/>
       <use xlink:href="#ArialMT-30" x="139.013672"/>
       <use xlink:href="#ArialMT-30" x="194.628906"/>
      </g>
     </g>
    </g>
    <g id="xtick_14">
     <g id="line2d_14">
      <path d="M 383.363814 365.107081 
L 383.363814 18 
" clip-path="url(#p350d773e3f)" style="fill: none; stroke: #ffffff; stroke-linecap: round"/>
     </g>
     <g id="text_14">
      <!-- 13:00 -->
      <g style="fill: #262626" transform="translate(371.783146 412.151965) rotate(-45) scale(0.165 -0.165)">
       <use xlink:href="#ArialMT-31"/>
       <use xlink:href="#ArialMT-33" x="55.615234"/>
       <use xlink:href="#ArialMT-3a" x="111.230469"/>
       <use xlink:href="#ArialMT-30" x="139.013672"/>
       <use xlink:href="#ArialMT-30" x="194.628906"/>
      </g>
     </g>
    </g>
    <g id="xtick_15">
     <g id="line2d_15">
      <path d="M 407.391031 365.107081 
L 407.391031 18 
" clip-path="url(#p350d773e3f)" style="fill: none; stroke: #ffffff; stroke-linecap: round"/>
     </g>
     <g id="text_15">
      <!-- 14:00 -->
      <g style="fill: #262626" transform="translate(395.810362 412.151965) rotate(-45) scale(0.165 -0.165)">
       <use xlink:href="#ArialMT-31"/>
       <use xlink:href="#ArialMT-34" x="55.615234"/>
       <use xlink:href="#ArialMT-3a" x="111.230469"/>
       <use xlink:href="#ArialMT-30" x="139.013672"/>
       <use xlink:href="#ArialMT-30" x="194.628906"/>
      </g>
     </g>
    </g>
    <g id="xtick_16">
     <g id="line2d_16">
      <path d="M 431.418247 365.107081 
L 431.418247 18 
" clip-path="url(#p350d773e3f)" style="fill: none; stroke: #ffffff; stroke-linecap: round"/>
     </g>
     <g id="text_16">
      <!-- 15:00 -->
      <g style="fill: #262626" transform="translate(419.837578 412.151965) rotate(-45) scale(0.165 -0.165)">
       <use xlink:href="#ArialMT-31"/>
       <use xlink:href="#ArialMT-35" x="55.615234"/>
       <use xlink:href="#ArialMT-3a" x="111.230469"/>
       <use xlink:href="#ArialMT-30" x="139.013672"/>
       <use xlink:href="#ArialMT-30" x="194.628906"/>
      </g>
     </g>
    </g>
    <g id="xtick_17">
     <g id="line2d_17">
      <path d="M 455.445464 365.107081 
L 455.445464 18 
" clip-path="url(#p350d773e3f)" style="fill: none; stroke: #ffffff; stroke-linecap: round"/>
     </g>
     <g id="text_17">
      <!-- 16:00 -->
      <g style="fill: #262626" transform="translate(443.864795 412.151965) rotate(-45) scale(0.165 -0.165)">
       <use xlink:href="#ArialMT-31"/>
       <use xlink:href="#ArialMT-36" x="55.615234"/>
       <use xlink:href="#ArialMT-3a" x="111.230469"/>
       <use xlink:href="#ArialMT-30" x="139.013672"/>
       <use xlink:href="#ArialMT-30" x="194.628906"/>
      </g>
     </g>
    </g>
    <g id="xtick_18">
     <g id="line2d_18">
      <path d="M 479.47268 365.107081 
L 479.47268 18 
" clip-path="url(#p350d773e3f)" style="fill: none; stroke: #ffffff; stroke-linecap: round"/>
     </g>
     <g id="text_18">
      <!-- 17:00 -->
      <g style="fill: #262626" transform="translate(467.892011 412.151965) rotate(-45) scale(0.165 -0.165)">
       <use xlink:href="#ArialMT-31"/>
       <use xlink:href="#ArialMT-37" x="55.615234"/>
       <use xlink:href="#ArialMT-3a" x="111.230469"/>
       <use xlink:href="#ArialMT-30" x="139.013672"/>
       <use xlink:href="#ArialMT-30" x="194.628906"/>
      </g>
     </g>
    </g>
    <g id="xtick_19">
     <g id="line2d_19">
      <path d="M 503.499897 365.107081 
L 503.499897 18 
" clip-path="url(#p350d773e3f)" style="fill: none; stroke: #ffffff; stroke-linecap: round"/>
     </g>
     <g id="text_19">
      <!-- 18:00 -->
      <g style="fill: #262626" transform="translate(491.919228 412.151965) rotate(-45) scale(0.165 -0.165)">
       <use xlink:href="#ArialMT-31"/>
       <use xlink:href="#ArialMT-38" x="55.615234"/>
       <use xlink:href="#ArialMT-3a" x="111.230469"/>
       <use xlink:href="#ArialMT-30" x="139.013672"/>
       <use xlink:href="#ArialMT-30" x="194.628906"/>
      </g>
     </g>
    </g>
    <g id="xtick_20">
     <g id="line2d_20">
      <path d="M 527.527113 365.107081 
L 527.527113 18 
" clip-path="url(#p350d773e3f)" style="fill: none; stroke: #ffffff; stroke-linecap: round"/>
     </g>
     <g id="text_20">
      <!-- 19:00 -->
      <g style="fill: #262626" transform="translate(515.946444 412.151965) rotate(-45) scale(0.165 -0.165)">
       <use xlink:href="#ArialMT-31"/>
       <use xlink:href="#ArialMT-39" x="55.615234"/>
       <use xlink:href="#ArialMT-3a" x="111.230469"/>
       <use xlink:href="#ArialMT-30" x="139.013672"/>
       <use xlink:href="#ArialMT-30" x="194.628906"/>
      </g>
     </g>
    </g>
    <g id="xtick_21">
     <g id="line2d_21">
      <path d="M 551.55433 365.107081 
L 551.55433 18 
" clip-path="url(#p350d773e3f)" style="fill: none; stroke: #ffffff; stroke-linecap: round"/>
     </g>
     <g id="text_21">
      <!-- 20:00 -->
      <g style="fill: #262626" transform="translate(539.973661 412.151965) rotate(-45) scale(0.165 -0.165)">
       <use xlink:href="#ArialMT-32"/>
       <use xlink:href="#ArialMT-30" x="55.615234"/>
       <use xlink:href="#ArialMT-3a" x="111.230469"/>
       <use xlink:href="#ArialMT-30" x="139.013672"/>
       <use xlink:href="#ArialMT-30" x="194.628906"/>
      </g>
     </g>
    </g>
    <g id="xtick_22">
     <g id="line2d_22">
      <path d="M 575.581546 365.107081 
L 575.581546 18 
" clip-path="url(#p350d773e3f)" style="fill: none; stroke: #ffffff; stroke-linecap: round"/>
     </g>
     <g id="text_22">
      <!-- 21:00 -->
      <g style="fill: #262626" transform="translate(564.000877 412.151965) rotate(-45) scale(0.165 -0.165)">
       <use xlink:href="#ArialMT-32"/>
       <use xlink:href="#ArialMT-31" x="55.615234"/>
       <use xlink:href="#ArialMT-3a" x="111.230469"/>
       <use xlink:href="#ArialMT-30" x="139.013672"/>
       <use xlink:href="#ArialMT-30" x="194.628906"/>
      </g>
     </g>
    </g>
    <g id="xtick_23">
     <g id="line2d_23">
      <path d="M 599.608763 365.107081 
L 599.608763 18 
" clip-path="url(#p350d773e3f)" style="fill: none; stroke: #ffffff; stroke-linecap: round"/>
     </g>
     <g id="text_23">
      <!-- 22:00 -->
      <g style="fill: #262626" transform="translate(588.028094 412.151965) rotate(-45) scale(0.165 -0.165)">
       <use xlink:href="#ArialMT-32"/>
       <use xlink:href="#ArialMT-32" x="55.615234"/>
       <use xlink:href="#ArialMT-3a" x="111.230469"/>
       <use xlink:href="#ArialMT-30" x="139.013672"/>
       <use xlink:href="#ArialMT-30" x="194.628906"/>
      </g>
     </g>
    </g>
    <g id="xtick_24">
     <g id="line2d_24">
      <path d="M 623.635979 365.107081 
L 623.635979 18 
" clip-path="url(#p350d773e3f)" style="fill: none; stroke: #ffffff; stroke-linecap: round"/>
     </g>
     <g id="text_24">
      <!-- 23:00 -->
      <g style="fill: #262626" transform="translate(612.05531 412.151965) rotate(-45) scale(0.165 -0.165)">
       <use xlink:href="#ArialMT-32"/>
       <use xlink:href="#ArialMT-33" x="55.615234"/>
       <use xlink:href="#ArialMT-3a" x="111.230469"/>
       <use xlink:href="#ArialMT-30" x="139.013672"/>
       <use xlink:href="#ArialMT-30" x="194.628906"/>
      </g>
     </g>
    </g>
    <g id="xtick_25">
     <g id="line2d_25">
      <path d="M 647.663196 365.107081 
L 647.663196 18 
" clip-path="url(#p350d773e3f)" style="fill: none; stroke: #ffffff; stroke-linecap: round"/>
     </g>
     <g id="text_25">
      <!-- 24:00 -->
      <g style="fill: #262626" transform="translate(636.082527 412.151965) rotate(-45) scale(0.165 -0.165)">
       <use xlink:href="#ArialMT-32"/>
       <use xlink:href="#ArialMT-34" x="55.615234"/>
       <use xlink:href="#ArialMT-3a" x="111.230469"/>
       <use xlink:href="#ArialMT-30" x="139.013672"/>
       <use xlink:href="#ArialMT-30" x="194.628906"/>
      </g>
     </g>
    </g>
   </g>
   <g id="matplotlib.axis_2">
    <g id="ytick_1">
     <g id="line2d_26">
      <path d="M 71.01 351.437158 
L 653.67 351.437158 
" clip-path="url(#p350d773e3f)" style="fill: none; stroke: #ffffff; stroke-linecap: round"/>
     </g>
     <g id="line2d_27">
      <defs>
       <path id="m14e1a822c4" d="M 0 0 
L -6 0 
" style="stroke: #262626; stroke-width: 1.25"/>
      </defs>
      <g>
       <use xlink:href="#m14e1a822c4" x="71.01" y="351.437158" style="fill: #262626; stroke: #262626; stroke-width: 1.25"/>
      </g>
     </g>
     <g id="text_26">
      <!-- 0.6 -->
      <g style="fill: #262626" transform="translate(38.575 357.342354) scale(0.165 -0.165)">
       <defs>
        <path id="ArialMT-2e" d="M 581 0 
L 581 641 
L 1222 641 
L 1222 0 
L 581 0 
z
" transform="scale(0.015625)"/>
       </defs>
       <use xlink:href="#ArialMT-30"/>
       <use xlink:href="#ArialMT-2e" x="55.615234"/>
       <use xlink:href="#ArialMT-36" x="83.398438"/>
      </g>
     </g>
    </g>
    <g id="ytick_2">
     <g id="line2d_28">
      <path d="M 71.01 297.098321 
L 653.67 297.098321 
" clip-path="url(#p350d773e3f)" style="fill: none; stroke: #ffffff; stroke-linecap: round"/>
     </g>
     <g id="line2d_29">
      <g>
       <use xlink:href="#m14e1a822c4" x="71.01" y="297.098321" style="fill: #262626; stroke: #262626; stroke-width: 1.25"/>
      </g>
     </g>
     <g id="text_27">
      <!-- 0.8 -->
      <g style="fill: #262626" transform="translate(38.575 303.003517) scale(0.165 -0.165)">
       <use xlink:href="#ArialMT-30"/>
       <use xlink:href="#ArialMT-2e" x="55.615234"/>
       <use xlink:href="#ArialMT-38" x="83.398438"/>
      </g>
     </g>
    </g>
    <g id="ytick_3">
     <g id="line2d_30">
      <path d="M 71.01 242.759485 
L 653.67 242.759485 
" clip-path="url(#p350d773e3f)" style="fill: none; stroke: #ffffff; stroke-linecap: round"/>
     </g>
     <g id="line2d_31">
      <g>
       <use xlink:href="#m14e1a822c4" x="71.01" y="242.759485" style="fill: #262626; stroke: #262626; stroke-width: 1.25"/>
      </g>
     </g>
     <g id="text_28">
      <!-- 1.0 -->
      <g style="fill: #262626" transform="translate(38.575 248.66468) scale(0.165 -0.165)">
       <use xlink:href="#ArialMT-31"/>
       <use xlink:href="#ArialMT-2e" x="55.615234"/>
       <use xlink:href="#ArialMT-30" x="83.398438"/>
      </g>
     </g>
    </g>
    <g id="ytick_4">
     <g id="line2d_32">
      <path d="M 71.01 188.420648 
L 653.67 188.420648 
" clip-path="url(#p350d773e3f)" style="fill: none; stroke: #ffffff; stroke-linecap: round"/>
     </g>
     <g id="line2d_33">
      <g>
       <use xlink:href="#m14e1a822c4" x="71.01" y="188.420648" style="fill: #262626; stroke: #262626; stroke-width: 1.25"/>
      </g>
     </g>
     <g id="text_29">
      <!-- 1.2 -->
      <g style="fill: #262626" transform="translate(38.575 194.325843) scale(0.165 -0.165)">
       <use xlink:href="#ArialMT-31"/>
       <use xlink:href="#ArialMT-2e" x="55.615234"/>
       <use xlink:href="#ArialMT-32" x="83.398438"/>
      </g>
     </g>
    </g>
    <g id="ytick_5">
     <g id="line2d_34">
      <path d="M 71.01 134.081811 
L 653.67 134.081811 
" clip-path="url(#p350d773e3f)" style="fill: none; stroke: #ffffff; stroke-linecap: round"/>
     </g>
     <g id="line2d_35">
      <g>
       <use xlink:href="#m14e1a822c4" x="71.01" y="134.081811" style="fill: #262626; stroke: #262626; stroke-width: 1.25"/>
      </g>
     </g>
     <g id="text_30">
      <!-- 1.4 -->
      <g style="fill: #262626" transform="translate(38.575 139.987007) scale(0.165 -0.165)">
       <use xlink:href="#ArialMT-31"/>
       <use xlink:href="#ArialMT-2e" x="55.615234"/>
       <use xlink:href="#ArialMT-34" x="83.398438"/>
      </g>
     </g>
    </g>
    <g id="ytick_6">
     <g id="line2d_36">
      <path d="M 71.01 79.742974 
L 653.67 79.742974 
" clip-path="url(#p350d773e3f)" style="fill: none; stroke: #ffffff; stroke-linecap: round"/>
     </g>
     <g id="line2d_37">
      <g>
       <use xlink:href="#m14e1a822c4" x="71.01" y="79.742974" style="fill: #262626; stroke: #262626; stroke-width: 1.25"/>
      </g>
     </g>
     <g id="text_31">
      <!-- 1.6 -->
      <g style="fill: #262626" transform="translate(38.575 85.64817) scale(0.165 -0.165)">
       <use xlink:href="#ArialMT-31"/>
       <use xlink:href="#ArialMT-2e" x="55.615234"/>
       <use xlink:href="#ArialMT-36" x="83.398438"/>
      </g>
     </g>
    </g>
    <g id="ytick_7">
     <g id="line2d_38">
      <path d="M 71.01 25.404138 
L 653.67 25.404138 
" clip-path="url(#p350d773e3f)" style="fill: none; stroke: #ffffff; stroke-linecap: round"/>
     </g>
     <g id="line2d_39">
      <g>
       <use xlink:href="#m14e1a822c4" x="71.01" y="25.404138" style="fill: #262626; stroke: #262626; stroke-width: 1.25"/>
      </g>
     </g>
     <g id="text_32">
      <!-- 1.8 -->
      <g style="fill: #262626" transform="translate(38.575 31.309333) scale(0.165 -0.165)">
       <use xlink:href="#ArialMT-31"/>
       <use xlink:href="#ArialMT-2e" x="55.615234"/>
       <use xlink:href="#ArialMT-38" x="83.398438"/>
      </g>
     </g>
    </g>
    <g id="text_33">
     <!-- Electricity consumption [kWh] (normalised) -->
     <g style="fill: #262626" transform="translate(30.786563 361.595884) rotate(-90) scale(0.18 -0.18)">
      <defs>
       <path id="ArialMT-45" d="M 506 0 
L 506 4581 
L 3819 4581 
L 3819 4041 
L 1113 4041 
L 1113 2638 
L 3647 2638 
L 3647 2100 
L 1113 2100 
L 1113 541 
L 3925 541 
L 3925 0 
L 506 0 
z
" transform="scale(0.015625)"/>
       <path id="ArialMT-6c" d="M 409 0 
L 409 4581 
L 972 4581 
L 972 0 
L 409 0 
z
" transform="scale(0.015625)"/>
       <path id="ArialMT-65" d="M 2694 1069 
L 3275 997 
Q 3138 488 2766 206 
Q 2394 -75 1816 -75 
Q 1088 -75 661 373 
Q 234 822 234 1631 
Q 234 2469 665 2931 
Q 1097 3394 1784 3394 
Q 2450 3394 2872 2941 
Q 3294 2488 3294 1666 
Q 3294 1616 3291 1516 
L 816 1516 
Q 847 969 1125 678 
Q 1403 388 1819 388 
Q 2128 388 2347 550 
Q 2566 713 2694 1069 
z
M 847 1978 
L 2700 1978 
Q 2663 2397 2488 2606 
Q 2219 2931 1791 2931 
Q 1403 2931 1139 2672 
Q 875 2413 847 1978 
z
" transform="scale(0.015625)"/>
       <path id="ArialMT-63" d="M 2588 1216 
L 3141 1144 
Q 3050 572 2676 248 
Q 2303 -75 1759 -75 
Q 1078 -75 664 370 
Q 250 816 250 1647 
Q 250 2184 428 2587 
Q 606 2991 970 3192 
Q 1334 3394 1763 3394 
Q 2303 3394 2647 3120 
Q 2991 2847 3088 2344 
L 2541 2259 
Q 2463 2594 2264 2762 
Q 2066 2931 1784 2931 
Q 1359 2931 1093 2626 
Q 828 2322 828 1663 
Q 828 994 1084 691 
Q 1341 388 1753 388 
Q 2084 388 2306 591 
Q 2528 794 2588 1216 
z
" transform="scale(0.015625)"/>
       <path id="ArialMT-74" d="M 1650 503 
L 1731 6 
Q 1494 -44 1306 -44 
Q 1000 -44 831 53 
Q 663 150 594 308 
Q 525 466 525 972 
L 525 2881 
L 113 2881 
L 113 3319 
L 525 3319 
L 525 4141 
L 1084 4478 
L 1084 3319 
L 1650 3319 
L 1650 2881 
L 1084 2881 
L 1084 941 
Q 1084 700 1114 631 
Q 1144 563 1211 522 
Q 1278 481 1403 481 
Q 1497 481 1650 503 
z
" transform="scale(0.015625)"/>
       <path id="ArialMT-72" d="M 416 0 
L 416 3319 
L 922 3319 
L 922 2816 
Q 1116 3169 1280 3281 
Q 1444 3394 1641 3394 
Q 1925 3394 2219 3213 
L 2025 2691 
Q 1819 2813 1613 2813 
Q 1428 2813 1281 2702 
Q 1134 2591 1072 2394 
Q 978 2094 978 1738 
L 978 0 
L 416 0 
z
" transform="scale(0.015625)"/>
       <path id="ArialMT-69" d="M 425 3934 
L 425 4581 
L 988 4581 
L 988 3934 
L 425 3934 
z
M 425 0 
L 425 3319 
L 988 3319 
L 988 0 
L 425 0 
z
" transform="scale(0.015625)"/>
       <path id="ArialMT-79" d="M 397 -1278 
L 334 -750 
Q 519 -800 656 -800 
Q 844 -800 956 -737 
Q 1069 -675 1141 -563 
Q 1194 -478 1313 -144 
Q 1328 -97 1363 -6 
L 103 3319 
L 709 3319 
L 1400 1397 
Q 1534 1031 1641 628 
Q 1738 1016 1872 1384 
L 2581 3319 
L 3144 3319 
L 1881 -56 
Q 1678 -603 1566 -809 
Q 1416 -1088 1222 -1217 
Q 1028 -1347 759 -1347 
Q 597 -1347 397 -1278 
z
" transform="scale(0.015625)"/>
       <path id="ArialMT-20" transform="scale(0.015625)"/>
       <path id="ArialMT-6f" d="M 213 1659 
Q 213 2581 725 3025 
Q 1153 3394 1769 3394 
Q 2453 3394 2887 2945 
Q 3322 2497 3322 1706 
Q 3322 1066 3130 698 
Q 2938 331 2570 128 
Q 2203 -75 1769 -75 
Q 1072 -75 642 372 
Q 213 819 213 1659 
z
M 791 1659 
Q 791 1022 1069 705 
Q 1347 388 1769 388 
Q 2188 388 2466 706 
Q 2744 1025 2744 1678 
Q 2744 2294 2464 2611 
Q 2184 2928 1769 2928 
Q 1347 2928 1069 2612 
Q 791 2297 791 1659 
z
" transform="scale(0.015625)"/>
       <path id="ArialMT-6e" d="M 422 0 
L 422 3319 
L 928 3319 
L 928 2847 
Q 1294 3394 1984 3394 
Q 2284 3394 2536 3286 
Q 2788 3178 2913 3003 
Q 3038 2828 3088 2588 
Q 3119 2431 3119 2041 
L 3119 0 
L 2556 0 
L 2556 2019 
Q 2556 2363 2490 2533 
Q 2425 2703 2258 2804 
Q 2091 2906 1866 2906 
Q 1506 2906 1245 2678 
Q 984 2450 984 1813 
L 984 0 
L 422 0 
z
" transform="scale(0.015625)"/>
       <path id="ArialMT-73" d="M 197 991 
L 753 1078 
Q 800 744 1014 566 
Q 1228 388 1613 388 
Q 2000 388 2187 545 
Q 2375 703 2375 916 
Q 2375 1106 2209 1216 
Q 2094 1291 1634 1406 
Q 1016 1563 777 1677 
Q 538 1791 414 1992 
Q 291 2194 291 2438 
Q 291 2659 392 2848 
Q 494 3038 669 3163 
Q 800 3259 1026 3326 
Q 1253 3394 1513 3394 
Q 1903 3394 2198 3281 
Q 2494 3169 2634 2976 
Q 2775 2784 2828 2463 
L 2278 2388 
Q 2241 2644 2061 2787 
Q 1881 2931 1553 2931 
Q 1166 2931 1000 2803 
Q 834 2675 834 2503 
Q 834 2394 903 2306 
Q 972 2216 1119 2156 
Q 1203 2125 1616 2013 
Q 2213 1853 2448 1751 
Q 2684 1650 2818 1456 
Q 2953 1263 2953 975 
Q 2953 694 2789 445 
Q 2625 197 2315 61 
Q 2006 -75 1616 -75 
Q 969 -75 630 194 
Q 291 463 197 991 
z
" transform="scale(0.015625)"/>
       <path id="ArialMT-75" d="M 2597 0 
L 2597 488 
Q 2209 -75 1544 -75 
Q 1250 -75 995 37 
Q 741 150 617 320 
Q 494 491 444 738 
Q 409 903 409 1263 
L 409 3319 
L 972 3319 
L 972 1478 
Q 972 1038 1006 884 
Q 1059 663 1231 536 
Q 1403 409 1656 409 
Q 1909 409 2131 539 
Q 2353 669 2445 892 
Q 2538 1116 2538 1541 
L 2538 3319 
L 3100 3319 
L 3100 0 
L 2597 0 
z
" transform="scale(0.015625)"/>
       <path id="ArialMT-6d" d="M 422 0 
L 422 3319 
L 925 3319 
L 925 2853 
Q 1081 3097 1340 3245 
Q 1600 3394 1931 3394 
Q 2300 3394 2536 3241 
Q 2772 3088 2869 2813 
Q 3263 3394 3894 3394 
Q 4388 3394 4653 3120 
Q 4919 2847 4919 2278 
L 4919 0 
L 4359 0 
L 4359 2091 
Q 4359 2428 4304 2576 
Q 4250 2725 4106 2815 
Q 3963 2906 3769 2906 
Q 3419 2906 3187 2673 
Q 2956 2441 2956 1928 
L 2956 0 
L 2394 0 
L 2394 2156 
Q 2394 2531 2256 2718 
Q 2119 2906 1806 2906 
Q 1569 2906 1367 2781 
Q 1166 2656 1075 2415 
Q 984 2175 984 1722 
L 984 0 
L 422 0 
z
" transform="scale(0.015625)"/>
       <path id="ArialMT-70" d="M 422 -1272 
L 422 3319 
L 934 3319 
L 934 2888 
Q 1116 3141 1344 3267 
Q 1572 3394 1897 3394 
Q 2322 3394 2647 3175 
Q 2972 2956 3137 2557 
Q 3303 2159 3303 1684 
Q 3303 1175 3120 767 
Q 2938 359 2589 142 
Q 2241 -75 1856 -75 
Q 1575 -75 1351 44 
Q 1128 163 984 344 
L 984 -1272 
L 422 -1272 
z
M 931 1641 
Q 931 1000 1190 694 
Q 1450 388 1819 388 
Q 2194 388 2461 705 
Q 2728 1022 2728 1688 
Q 2728 2322 2467 2637 
Q 2206 2953 1844 2953 
Q 1484 2953 1207 2617 
Q 931 2281 931 1641 
z
" transform="scale(0.015625)"/>
       <path id="ArialMT-5b" d="M 434 -1272 
L 434 4581 
L 1675 4581 
L 1675 4116 
L 997 4116 
L 997 -806 
L 1675 -806 
L 1675 -1272 
L 434 -1272 
z
" transform="scale(0.015625)"/>
       <path id="ArialMT-6b" d="M 425 0 
L 425 4581 
L 988 4581 
L 988 1969 
L 2319 3319 
L 3047 3319 
L 1778 2088 
L 3175 0 
L 2481 0 
L 1384 1697 
L 988 1316 
L 988 0 
L 425 0 
z
" transform="scale(0.015625)"/>
       <path id="ArialMT-57" d="M 1294 0 
L 78 4581 
L 700 4581 
L 1397 1578 
Q 1509 1106 1591 641 
Q 1766 1375 1797 1488 
L 2669 4581 
L 3400 4581 
L 4056 2263 
Q 4303 1400 4413 641 
Q 4500 1075 4641 1638 
L 5359 4581 
L 5969 4581 
L 4713 0 
L 4128 0 
L 3163 3491 
Q 3041 3928 3019 4028 
Q 2947 3713 2884 3491 
L 1913 0 
L 1294 0 
z
" transform="scale(0.015625)"/>
       <path id="ArialMT-68" d="M 422 0 
L 422 4581 
L 984 4581 
L 984 2938 
Q 1378 3394 1978 3394 
Q 2347 3394 2619 3248 
Q 2891 3103 3008 2847 
Q 3125 2591 3125 2103 
L 3125 0 
L 2563 0 
L 2563 2103 
Q 2563 2525 2380 2717 
Q 2197 2909 1863 2909 
Q 1613 2909 1392 2779 
Q 1172 2650 1078 2428 
Q 984 2206 984 1816 
L 984 0 
L 422 0 
z
" transform="scale(0.015625)"/>
       <path id="ArialMT-5d" d="M 1363 -1272 
L 122 -1272 
L 122 -806 
L 800 -806 
L 800 4116 
L 122 4116 
L 122 4581 
L 1363 4581 
L 1363 -1272 
z
" transform="scale(0.015625)"/>
       <path id="ArialMT-28" d="M 1497 -1347 
Q 1031 -759 709 28 
Q 388 816 388 1659 
Q 388 2403 628 3084 
Q 909 3875 1497 4659 
L 1900 4659 
Q 1522 4009 1400 3731 
Q 1209 3300 1100 2831 
Q 966 2247 966 1656 
Q 966 153 1900 -1347 
L 1497 -1347 
z
" transform="scale(0.015625)"/>
       <path id="ArialMT-61" d="M 2588 409 
Q 2275 144 1986 34 
Q 1697 -75 1366 -75 
Q 819 -75 525 192 
Q 231 459 231 875 
Q 231 1119 342 1320 
Q 453 1522 633 1644 
Q 813 1766 1038 1828 
Q 1203 1872 1538 1913 
Q 2219 1994 2541 2106 
Q 2544 2222 2544 2253 
Q 2544 2597 2384 2738 
Q 2169 2928 1744 2928 
Q 1347 2928 1158 2789 
Q 969 2650 878 2297 
L 328 2372 
Q 403 2725 575 2942 
Q 747 3159 1072 3276 
Q 1397 3394 1825 3394 
Q 2250 3394 2515 3294 
Q 2781 3194 2906 3042 
Q 3031 2891 3081 2659 
Q 3109 2516 3109 2141 
L 3109 1391 
Q 3109 606 3145 398 
Q 3181 191 3288 0 
L 2700 0 
Q 2613 175 2588 409 
z
M 2541 1666 
Q 2234 1541 1622 1453 
Q 1275 1403 1131 1340 
Q 988 1278 909 1158 
Q 831 1038 831 891 
Q 831 666 1001 516 
Q 1172 366 1500 366 
Q 1825 366 2078 508 
Q 2331 650 2450 897 
Q 2541 1088 2541 1459 
L 2541 1666 
z
" transform="scale(0.015625)"/>
       <path id="ArialMT-64" d="M 2575 0 
L 2575 419 
Q 2259 -75 1647 -75 
Q 1250 -75 917 144 
Q 584 363 401 755 
Q 219 1147 219 1656 
Q 219 2153 384 2558 
Q 550 2963 881 3178 
Q 1213 3394 1622 3394 
Q 1922 3394 2156 3267 
Q 2391 3141 2538 2938 
L 2538 4581 
L 3097 4581 
L 3097 0 
L 2575 0 
z
M 797 1656 
Q 797 1019 1065 703 
Q 1334 388 1700 388 
Q 2069 388 2326 689 
Q 2584 991 2584 1609 
Q 2584 2291 2321 2609 
Q 2059 2928 1675 2928 
Q 1300 2928 1048 2622 
Q 797 2316 797 1656 
z
" transform="scale(0.015625)"/>
       <path id="ArialMT-29" d="M 791 -1347 
L 388 -1347 
Q 1322 153 1322 1656 
Q 1322 2244 1188 2822 
Q 1081 3291 891 3722 
Q 769 4003 388 4659 
L 791 4659 
Q 1378 3875 1659 3084 
Q 1900 2403 1900 1659 
Q 1900 816 1576 28 
Q 1253 -759 791 -1347 
z
" transform="scale(0.015625)"/>
      </defs>
      <use xlink:href="#ArialMT-45"/>
      <use xlink:href="#ArialMT-6c" x="66.699219"/>
      <use xlink:href="#ArialMT-65" x="88.916016"/>
      <use xlink:href="#ArialMT-63" x="144.53125"/>
      <use xlink:href="#ArialMT-74" x="194.53125"/>
      <use xlink:href="#ArialMT-72" x="222.314453"/>
      <use xlink:href="#ArialMT-69" x="255.615234"/>
      <use xlink:href="#ArialMT-63" x="277.832031"/>
      <use xlink:href="#ArialMT-69" x="327.832031"/>
      <use xlink:href="#ArialMT-74" x="350.048828"/>
      <use xlink:href="#ArialMT-79" x="377.832031"/>
      <use xlink:href="#ArialMT-20" x="427.832031"/>
      <use xlink:href="#ArialMT-63" x="455.615234"/>
      <use xlink:href="#ArialMT-6f" x="505.615234"/>
      <use xlink:href="#ArialMT-6e" x="561.230469"/>
      <use xlink:href="#ArialMT-73" x="616.845703"/>
      <use xlink:href="#ArialMT-75" x="666.845703"/>
      <use xlink:href="#ArialMT-6d" x="722.460938"/>
      <use xlink:href="#ArialMT-70" x="805.761719"/>
      <use xlink:href="#ArialMT-74" x="861.376953"/>
      <use xlink:href="#ArialMT-69" x="889.160156"/>
      <use xlink:href="#ArialMT-6f" x="911.376953"/>
      <use xlink:href="#ArialMT-6e" x="966.992188"/>
      <use xlink:href="#ArialMT-20" x="1022.607422"/>
      <use xlink:href="#ArialMT-5b" x="1050.390625"/>
      <use xlink:href="#ArialMT-6b" x="1078.173828"/>
      <use xlink:href="#ArialMT-57" x="1128.173828"/>
      <use xlink:href="#ArialMT-68" x="1222.558594"/>
      <use xlink:href="#ArialMT-5d" x="1278.173828"/>
      <use xlink:href="#ArialMT-20" x="1305.957031"/>
      <use xlink:href="#ArialMT-28" x="1333.740234"/>
      <use xlink:href="#ArialMT-6e" x="1367.041016"/>
      <use xlink:href="#ArialMT-6f" x="1422.65625"/>
      <use xlink:href="#ArialMT-72" x="1478.271484"/>
      <use xlink:href="#ArialMT-6d" x="1511.572266"/>
      <use xlink:href="#ArialMT-61" x="1594.873047"/>
      <use xlink:href="#ArialMT-6c" x="1650.488281"/>
      <use xlink:href="#ArialMT-69" x="1672.705078"/>
      <use xlink:href="#ArialMT-73" x="1694.921875"/>
      <use xlink:href="#ArialMT-65" x="1744.921875"/>
      <use xlink:href="#ArialMT-64" x="1800.537109"/>
      <use xlink:href="#ArialMT-29" x="1856.152344"/>
     </g>
    </g>
   </g>
   <g id="PolyCollection_1"/>
   <g id="PolyCollection_2"/>
   <g id="PolyCollection_3"/>
   <g id="line2d_40">
    <path d="M 77.016804 217.475525 
L 83.023608 217.475525 
L 89.030412 210.98507 
L 95.037216 210.98507 
L 101.044021 217.204647 
L 107.050825 217.204647 
L 113.057629 215.722783 
L 119.064433 215.722783 
L 125.071237 259.663481 
L 131.078041 259.663481 
L 137.084845 301.877994 
L 143.091649 301.877994 
L 149.098454 334.038145 
L 155.105258 334.038145 
L 161.112062 339.848749 
L 167.118866 339.848749 
L 173.12567 348.267219 
L 179.132474 348.267219 
L 185.139278 349.329487 
L 191.146082 349.329487 
L 197.152887 347.63517 
L 203.159691 347.63517 
L 209.166495 340.087759 
L 215.173299 340.087759 
L 221.180103 314.864215 
L 227.186907 314.864215 
L 233.193711 243.835695 
L 239.200515 243.835695 
L 245.20732 212.955576 
L 251.214124 212.955576 
L 257.220928 201.483087 
L 263.227732 201.483087 
L 269.234536 195.295378 
L 275.24134 195.295378 
L 281.248144 200.851037 
L 287.254948 200.851037 
L 293.261753 228.900213 
L 299.268557 228.900213 
L 305.275361 222.797485 
L 311.282165 222.797485 
L 317.288969 232.177308 
L 323.295773 232.177308 
L 329.302577 218.936143 
L 335.309381 218.936143 
L 341.316186 239.384793 
L 347.32299 239.384793 
L 353.329794 234.147814 
L 359.336598 234.147814 
L 365.343402 273.494205 
L 371.350206 273.494205 
L 377.35701 225.686853 
L 383.363814 225.686853 
L 389.370619 213.906306 
L 395.377423 213.906306 
L 401.384227 217.066552 
L 407.391031 217.066552 
L 413.397835 215.961794 
L 419.404639 215.961794 
L 425.411443 226.196742 
L 431.418247 226.196742 
L 437.425052 212.530669 
L 443.431856 212.530669 
L 449.43866 216.827542 
L 455.445464 216.827542 
L 461.452268 234.641769 
L 467.459072 234.641769 
L 473.465876 217.698601 
L 479.47268 217.698601 
L 485.479485 213.821324 
L 491.486289 213.821324 
L 497.493093 212.307593 
L 503.499897 212.307593 
L 509.506701 218.038527 
L 515.513505 218.038527 
L 521.520309 225.145097 
L 527.527113 225.145097 
L 533.533918 233.080235 
L 539.540722 233.080235 
L 545.547526 223.116166 
L 551.55433 223.116166 
L 557.561134 221.655548 
L 563.567938 221.655548 
L 569.574742 215.929926 
L 575.581546 215.929926 
L 581.588351 219.477899 
L 587.595155 219.477899 
L 593.601959 216.965636 
L 599.608763 216.965636 
L 605.615567 281.997657 
L 611.622371 281.997657 
L 617.629175 224.598029 
L 623.635979 224.598029 
L 629.642784 231.279692 
L 635.649588 231.279692 
L 641.656392 233.266132 
L 647.663196 233.266132 
" clip-path="url(#p350d773e3f)" style="fill: none; stroke: #808080; stroke-width: 1.5; stroke-linecap: round"/>
   </g>
   <g id="line2d_41">
    <path d="M 77.016804 217.369298 
L 83.023608 217.475525 
L 89.030412 210.98507 
L 95.037216 210.98507 
L 101.044021 217.204647 
L 107.050825 217.204647 
L 113.057629 215.722783 
L 119.064433 215.722783 
L 125.071237 259.663481 
L 131.078041 259.663481 
L 137.084845 301.877994 
L 143.091649 301.877994 
L 149.098454 334.038145 
L 155.105258 334.038145 
L 161.112062 339.848749 
L 167.118866 339.848749 
L 173.12567 348.267219 
L 179.132474 348.267219 
L 185.139278 349.329487 
L 191.146082 349.329487 
L 197.152887 347.63517 
L 203.159691 347.63517 
L 209.166495 340.087759 
L 215.173299 340.087759 
L 221.180103 314.864215 
L 227.186907 237.929487 
L 233.193711 84.947023 
L 239.200515 87.602692 
L 245.20732 61.157541 
L 251.214124 67.90294 
L 257.220928 65.167601 
L 263.227732 57.652058 
L 269.234536 49.233588 
L 275.24134 61.157541 
L 281.248144 76.804742 
L 287.254948 87.082181 
L 293.261753 125.488465 
L 299.268557 136.164254 
L 305.275361 139.170471 
L 311.282165 148.412199 
L 317.288969 167.378986 
L 323.295773 174.150942 
L 329.302577 168.159753 
L 335.309381 176.578224 
L 341.316186 203.267696 
L 347.32299 207.915117 
L 353.329794 205.333807 
L 359.336598 209.503207 
L 365.343402 252.859658 
L 371.350206 256.471367 
L 377.35701 211.160344 
L 383.363814 213.68323 
L 389.370619 204.930145 
L 395.377423 207.851381 
L 401.384227 212.923708 
L 407.391031 213.906306 
L 413.397835 214.129382 
L 419.404639 214.899526 
L 425.411443 225.320371 
L 431.418247 225.400041 
L 437.425052 212.424443 
L 443.431856 212.530669 
L 449.43866 216.827542 
L 455.445464 216.827542 
L 461.452268 201.047557 
L 467.459072 167.267448 
L 473.465876 151.466218 
L 479.47268 153.511083 
L 485.479485 152.289476 
L 491.486289 155.609062 
L 497.493093 156.777556 
L 503.499897 160.044029 
L 509.506701 169.785022 
L 515.513505 172.520361 
L 521.520309 183.105858 
L 527.527113 186.106764 
L 533.533918 198.370643 
L 539.540722 203.177403 
L 545.547526 198.949579 
L 551.55433 202.773742 
L 557.561134 204.021906 
L 563.567938 206.757245 
L 569.574742 203.288942 
L 575.581546 204.9089 
L 581.588351 210.554852 
L 587.595155 211.324996 
L 593.601959 210.167124 
L 599.608763 211.574629 
L 605.615567 276.951886 
L 611.622371 277.350236 
L 617.629175 220.986319 
L 623.635979 221.650236 
L 629.642784 228.65058 
L 635.649588 228.96926 
L 641.656392 231.672731 
L 647.663196 232.442875 
" clip-path="url(#p350d773e3f)" style="fill: none; stroke: #d62728; stroke-width: 2.5; stroke-linecap: round"/>
   </g>
   <g id="line2d_42">
    <path d="M 77.016804 157.829201 
L 83.023608 157.11217 
L 89.030412 178.187559 
L 95.037216 178.346899 
L 101.044021 162.736877 
L 107.050825 163.241454 
L 113.057629 151.907059 
L 119.064433 149.809081 
L 125.071237 192.289161 
L 131.078041 228.300031 
L 137.084845 301.877994 
L 143.091649 301.877994 
L 149.098454 334.038145 
L 155.105258 334.038145 
L 161.112062 339.848749 
L 167.118866 339.848749 
L 173.12567 348.267219 
L 179.132474 348.267219 
L 185.139278 349.329487 
L 191.146082 349.329487 
L 197.152887 347.63517 
L 203.159691 347.63517 
L 209.166495 340.087759 
L 215.173299 340.087759 
L 221.180103 314.864215 
L 227.186907 286.209548 
L 233.193711 243.782581 
L 239.200515 243.543571 
L 245.20732 212.76968 
L 251.214124 212.716566 
L 257.220928 201.483087 
L 263.227732 201.483087 
L 269.234536 193.887874 
L 275.24134 193.27707 
L 281.248144 200.851037 
L 287.254948 200.851037 
L 293.261753 223.615431 
L 299.268557 222.898401 
L 305.275361 202.640958 
L 311.282165 200.54298 
L 317.288969 222.271663 
L 323.295773 222.53723 
L 329.302577 152.358523 
L 335.309381 146.091144 
L 341.316186 147.392422 
L 347.32299 141.125044 
L 353.329794 195.853069 
L 359.336598 193.43641 
L 365.343402 88.022288 
L 371.350206 88.659648 
L 377.35701 88.999574 
L 383.363814 79.067372 
L 389.370619 57.46085 
L 395.377423 49.334503 
L 401.384227 101.837078 
L 407.391031 98.384708 
L 413.397835 163.884126 
L 419.404639 162.211055 
L 425.411443 198.737125 
L 431.418247 195.098859 
L 437.425052 38.292232 
L 443.431856 33.777595 
L 449.43866 203.947547 
L 455.445464 200.973198 
L 461.452268 233.473274 
L 467.459072 233.765398 
L 473.465876 217.406478 
L 479.47268 217.114354 
L 485.479485 213.237077 
L 491.486289 213.529201 
L 497.493093 211.139099 
L 503.499897 211.988913 
L 509.506701 217.61362 
L 515.513505 217.746403 
L 521.520309 224.268726 
L 527.527113 224.56085 
L 533.533918 232.681885 
L 539.540722 232.788112 
L 545.547526 216.556663 
L 551.55433 216.955014 
L 557.561134 217.140911 
L 563.567938 217.087797 
L 569.574742 193.542637 
L 575.581546 192.427256 
L 581.588351 211.271882 
L 587.595155 210.262728 
L 593.601959 200.951953 
L 599.608763 200.208366 
L 605.615567 278.784298 
L 611.622371 278.917081 
L 617.629175 177.566132 
L 623.635979 177.778586 
L 629.642784 220.497676 
L 635.649588 219.063615 
L 641.656392 192.953078 
L 647.663196 192.634398 
" clip-path="url(#p350d773e3f)" style="fill: none; stroke: #ff7f0e; stroke-width: 2.5; stroke-linecap: round"/>
   </g>
   <g id="line2d_43">
    <path d="M 71.01 272.312432 
L 653.67 272.312432 
" clip-path="url(#p350d773e3f)" style="fill: none; stroke-dasharray: 1.5,2.475; stroke-dashoffset: 0; stroke: #808080; stroke-width: 1.5"/>
   </g>
   <g id="patch_3">
    <path d="M 71.01 365.107081 
L 71.01 18 
" style="fill: none; stroke: #ffffff; stroke-width: 1.25; stroke-linejoin: miter; stroke-linecap: square"/>
   </g>
   <g id="patch_4">
    <path d="M 653.67 365.107081 
L 653.67 18 
" style="fill: none; stroke: #ffffff; stroke-width: 1.25; stroke-linejoin: miter; stroke-linecap: square"/>
   </g>
   <g id="patch_5">
    <path d="M 71.01 365.107081 
L 653.67 365.107081 
" style="fill: none; stroke: #ffffff; stroke-width: 1.25; stroke-linejoin: miter; stroke-linecap: square"/>
   </g>
   <g id="patch_6">
    <path d="M 71.01 18 
L 653.67 18 
" style="fill: none; stroke: #ffffff; stroke-width: 1.25; stroke-linejoin: miter; stroke-linecap: square"/>
   </g>
   <g id="legend_1">
    <g id="patch_7">
     <path d="M 308.722031 356.857081 
L 642.12 356.857081 
Q 645.42 356.857081 645.42 353.557081 
L 645.42 284.205519 
Q 645.42 280.905519 642.12 280.905519 
L 308.722031 280.905519 
Q 305.422031 280.905519 305.422031 284.205519 
L 305.422031 353.557081 
Q 305.422031 356.857081 308.722031 356.857081 
z
" style="fill: #eaeaf2; opacity: 0.8; stroke: #cccccc; stroke-linejoin: miter"/>
    </g>
    <g id="line2d_44">
     <path d="M 312.022031 293.540909 
L 328.522031 293.540909 
L 345.022031 293.540909 
" style="fill: none; stroke: #808080; stroke-width: 1.5; stroke-linecap: round"/>
    </g>
    <g id="text_34">
     <!-- Electricity demand curve industrial site -->
     <g style="fill: #262626" transform="translate(358.222031 299.315909) scale(0.165 -0.165)">
      <defs>
       <path id="ArialMT-76" d="M 1344 0 
L 81 3319 
L 675 3319 
L 1388 1331 
Q 1503 1009 1600 663 
Q 1675 925 1809 1294 
L 2547 3319 
L 3125 3319 
L 1869 0 
L 1344 0 
z
" transform="scale(0.015625)"/>
      </defs>
      <use xlink:href="#ArialMT-45"/>
      <use xlink:href="#ArialMT-6c" x="66.699219"/>
      <use xlink:href="#ArialMT-65" x="88.916016"/>
      <use xlink:href="#ArialMT-63" x="144.53125"/>
      <use xlink:href="#ArialMT-74" x="194.53125"/>
      <use xlink:href="#ArialMT-72" x="222.314453"/>
      <use xlink:href="#ArialMT-69" x="255.615234"/>
      <use xlink:href="#ArialMT-63" x="277.832031"/>
      <use xlink:href="#ArialMT-69" x="327.832031"/>
      <use xlink:href="#ArialMT-74" x="350.048828"/>
      <use xlink:href="#ArialMT-79" x="377.832031"/>
      <use xlink:href="#ArialMT-20" x="427.832031"/>
      <use xlink:href="#ArialMT-64" x="455.615234"/>
      <use xlink:href="#ArialMT-65" x="511.230469"/>
      <use xlink:href="#ArialMT-6d" x="566.845703"/>
      <use xlink:href="#ArialMT-61" x="650.146484"/>
      <use xlink:href="#ArialMT-6e" x="705.761719"/>
      <use xlink:href="#ArialMT-64" x="761.376953"/>
      <use xlink:href="#ArialMT-20" x="816.992188"/>
      <use xlink:href="#ArialMT-63" x="844.775391"/>
      <use xlink:href="#ArialMT-75" x="894.775391"/>
      <use xlink:href="#ArialMT-72" x="950.390625"/>
      <use xlink:href="#ArialMT-76" x="983.691406"/>
      <use xlink:href="#ArialMT-65" x="1033.691406"/>
      <use xlink:href="#ArialMT-20" x="1089.306641"/>
      <use xlink:href="#ArialMT-69" x="1117.089844"/>
      <use xlink:href="#ArialMT-6e" x="1139.306641"/>
      <use xlink:href="#ArialMT-64" x="1194.921875"/>
      <use xlink:href="#ArialMT-75" x="1250.537109"/>
      <use xlink:href="#ArialMT-73" x="1306.152344"/>
      <use xlink:href="#ArialMT-74" x="1356.152344"/>
      <use xlink:href="#ArialMT-72" x="1383.935547"/>
      <use xlink:href="#ArialMT-69" x="1417.236328"/>
      <use xlink:href="#ArialMT-61" x="1439.453125"/>
      <use xlink:href="#ArialMT-6c" x="1495.068359"/>
      <use xlink:href="#ArialMT-20" x="1517.285156"/>
      <use xlink:href="#ArialMT-73" x="1545.068359"/>
      <use xlink:href="#ArialMT-69" x="1595.068359"/>
      <use xlink:href="#ArialMT-74" x="1617.285156"/>
      <use xlink:href="#ArialMT-65" x="1645.068359"/>
     </g>
    </g>
    <g id="line2d_45">
     <path d="M 312.022031 317.275128 
L 328.522031 317.275128 
L 345.022031 317.275128 
" style="fill: none; stroke: #d62728; stroke-width: 2.5; stroke-linecap: round"/>
    </g>
    <g id="text_35">
     <!-- Uncontrolled charging (UCC) -->
     <g style="fill: #262626" transform="translate(358.222031 323.050128) scale(0.165 -0.165)">
      <defs>
       <path id="ArialMT-55" d="M 3500 4581 
L 4106 4581 
L 4106 1934 
Q 4106 1244 3950 837 
Q 3794 431 3386 176 
Q 2978 -78 2316 -78 
Q 1672 -78 1262 144 
Q 853 366 678 786 
Q 503 1206 503 1934 
L 503 4581 
L 1109 4581 
L 1109 1938 
Q 1109 1341 1220 1058 
Q 1331 775 1601 622 
Q 1872 469 2263 469 
Q 2931 469 3215 772 
Q 3500 1075 3500 1938 
L 3500 4581 
z
" transform="scale(0.015625)"/>
       <path id="ArialMT-67" d="M 319 -275 
L 866 -356 
Q 900 -609 1056 -725 
Q 1266 -881 1628 -881 
Q 2019 -881 2231 -725 
Q 2444 -569 2519 -288 
Q 2563 -116 2559 434 
Q 2191 0 1641 0 
Q 956 0 581 494 
Q 206 988 206 1678 
Q 206 2153 378 2554 
Q 550 2956 876 3175 
Q 1203 3394 1644 3394 
Q 2231 3394 2613 2919 
L 2613 3319 
L 3131 3319 
L 3131 450 
Q 3131 -325 2973 -648 
Q 2816 -972 2473 -1159 
Q 2131 -1347 1631 -1347 
Q 1038 -1347 672 -1080 
Q 306 -813 319 -275 
z
M 784 1719 
Q 784 1066 1043 766 
Q 1303 466 1694 466 
Q 2081 466 2343 764 
Q 2606 1063 2606 1700 
Q 2606 2309 2336 2618 
Q 2066 2928 1684 2928 
Q 1309 2928 1046 2623 
Q 784 2319 784 1719 
z
" transform="scale(0.015625)"/>
       <path id="ArialMT-43" d="M 3763 1606 
L 4369 1453 
Q 4178 706 3683 314 
Q 3188 -78 2472 -78 
Q 1731 -78 1267 223 
Q 803 525 561 1097 
Q 319 1669 319 2325 
Q 319 3041 592 3573 
Q 866 4106 1370 4382 
Q 1875 4659 2481 4659 
Q 3169 4659 3637 4309 
Q 4106 3959 4291 3325 
L 3694 3184 
Q 3534 3684 3231 3912 
Q 2928 4141 2469 4141 
Q 1941 4141 1586 3887 
Q 1231 3634 1087 3207 
Q 944 2781 944 2328 
Q 944 1744 1114 1308 
Q 1284 872 1643 656 
Q 2003 441 2422 441 
Q 2931 441 3284 734 
Q 3638 1028 3763 1606 
z
" transform="scale(0.015625)"/>
      </defs>
      <use xlink:href="#ArialMT-55"/>
      <use xlink:href="#ArialMT-6e" x="72.216797"/>
      <use xlink:href="#ArialMT-63" x="127.832031"/>
      <use xlink:href="#ArialMT-6f" x="177.832031"/>
      <use xlink:href="#ArialMT-6e" x="233.447266"/>
      <use xlink:href="#ArialMT-74" x="289.0625"/>
      <use xlink:href="#ArialMT-72" x="316.845703"/>
      <use xlink:href="#ArialMT-6f" x="350.146484"/>
      <use xlink:href="#ArialMT-6c" x="405.761719"/>
      <use xlink:href="#ArialMT-6c" x="427.978516"/>
      <use xlink:href="#ArialMT-65" x="450.195312"/>
      <use xlink:href="#ArialMT-64" x="505.810547"/>
      <use xlink:href="#ArialMT-20" x="561.425781"/>
      <use xlink:href="#ArialMT-63" x="589.208984"/>
      <use xlink:href="#ArialMT-68" x="639.208984"/>
      <use xlink:href="#ArialMT-61" x="694.824219"/>
      <use xlink:href="#ArialMT-72" x="750.439453"/>
      <use xlink:href="#ArialMT-67" x="783.740234"/>
      <use xlink:href="#ArialMT-69" x="839.355469"/>
      <use xlink:href="#ArialMT-6e" x="861.572266"/>
      <use xlink:href="#ArialMT-67" x="917.1875"/>
      <use xlink:href="#ArialMT-20" x="972.802734"/>
      <use xlink:href="#ArialMT-28" x="1000.585938"/>
      <use xlink:href="#ArialMT-55" x="1033.886719"/>
      <use xlink:href="#ArialMT-43" x="1106.103516"/>
      <use xlink:href="#ArialMT-43" x="1178.320312"/>
      <use xlink:href="#ArialMT-29" x="1250.537109"/>
     </g>
    </g>
    <g id="line2d_46">
     <path d="M 312.022031 341.009347 
L 328.522031 341.009347 
L 345.022031 341.009347 
" style="fill: none; stroke: #ff7f0e; stroke-width: 2.5; stroke-linecap: round"/>
    </g>
    <g id="text_36">
     <!-- Smart charging (SC) -->
     <g style="fill: #262626" transform="translate(358.222031 346.784347) scale(0.165 -0.165)">
      <defs>
       <path id="ArialMT-53" d="M 288 1472 
L 859 1522 
Q 900 1178 1048 958 
Q 1197 738 1509 602 
Q 1822 466 2213 466 
Q 2559 466 2825 569 
Q 3091 672 3220 851 
Q 3350 1031 3350 1244 
Q 3350 1459 3225 1620 
Q 3100 1781 2813 1891 
Q 2628 1963 1997 2114 
Q 1366 2266 1113 2400 
Q 784 2572 623 2826 
Q 463 3081 463 3397 
Q 463 3744 659 4045 
Q 856 4347 1234 4503 
Q 1613 4659 2075 4659 
Q 2584 4659 2973 4495 
Q 3363 4331 3572 4012 
Q 3781 3694 3797 3291 
L 3216 3247 
Q 3169 3681 2898 3903 
Q 2628 4125 2100 4125 
Q 1550 4125 1298 3923 
Q 1047 3722 1047 3438 
Q 1047 3191 1225 3031 
Q 1400 2872 2139 2705 
Q 2878 2538 3153 2413 
Q 3553 2228 3743 1945 
Q 3934 1663 3934 1294 
Q 3934 928 3725 604 
Q 3516 281 3123 101 
Q 2731 -78 2241 -78 
Q 1619 -78 1198 103 
Q 778 284 539 648 
Q 300 1013 288 1472 
z
" transform="scale(0.015625)"/>
      </defs>
      <use xlink:href="#ArialMT-53"/>
      <use xlink:href="#ArialMT-6d" x="66.699219"/>
      <use xlink:href="#ArialMT-61" x="150"/>
      <use xlink:href="#ArialMT-72" x="205.615234"/>
      <use xlink:href="#ArialMT-74" x="238.916016"/>
      <use xlink:href="#ArialMT-20" x="266.699219"/>
      <use xlink:href="#ArialMT-63" x="294.482422"/>
      <use xlink:href="#ArialMT-68" x="344.482422"/>
      <use xlink:href="#ArialMT-61" x="400.097656"/>
      <use xlink:href="#ArialMT-72" x="455.712891"/>
      <use xlink:href="#ArialMT-67" x="489.013672"/>
      <use xlink:href="#ArialMT-69" x="544.628906"/>
      <use xlink:href="#ArialMT-6e" x="566.845703"/>
      <use xlink:href="#ArialMT-67" x="622.460938"/>
      <use xlink:href="#ArialMT-20" x="678.076172"/>
      <use xlink:href="#ArialMT-28" x="705.859375"/>
      <use xlink:href="#ArialMT-53" x="739.160156"/>
      <use xlink:href="#ArialMT-43" x="805.859375"/>
      <use xlink:href="#ArialMT-29" x="878.076172"/>
     </g>
    </g>
   </g>
  </g>
  <g id="axes_2">
   <g id="matplotlib.axis_3">
    <g id="ytick_8">
     <g id="line2d_47">
      <path d="M 71.01 342.489489 
L 653.67 342.489489 
" clip-path="url(#p350d773e3f)" style="fill: none; stroke: #ffffff; stroke-linecap: round"/>
     </g>
     <g id="line2d_48">
      <defs>
       <path id="m5e913286f2" d="M 0 0 
L 6 0 
" style="stroke: #262626; stroke-width: 1.25"/>
      </defs>
      <g>
       <use xlink:href="#m5e913286f2" x="653.67" y="342.489489" style="fill: #262626; stroke: #262626; stroke-width: 1.25"/>
      </g>
     </g>
     <g id="text_37">
      <!-- 15 -->
      <g style="fill: #262626" transform="translate(663.17 348.394684) scale(0.165 -0.165)">
       <use xlink:href="#ArialMT-31"/>
       <use xlink:href="#ArialMT-35" x="55.615234"/>
      </g>
     </g>
    </g>
    <g id="ytick_9">
     <g id="line2d_49">
      <path d="M 71.01 266.489515 
L 653.67 266.489515 
" clip-path="url(#p350d773e3f)" style="fill: none; stroke: #ffffff; stroke-linecap: round"/>
     </g>
     <g id="line2d_50">
      <g>
       <use xlink:href="#m5e913286f2" x="653.67" y="266.489515" style="fill: #262626; stroke: #262626; stroke-width: 1.25"/>
      </g>
     </g>
     <g id="text_38">
      <!-- 20 -->
      <g style="fill: #262626" transform="translate(663.17 272.39471) scale(0.165 -0.165)">
       <use xlink:href="#ArialMT-32"/>
       <use xlink:href="#ArialMT-30" x="55.615234"/>
      </g>
     </g>
    </g>
    <g id="ytick_10">
     <g id="line2d_51">
      <path d="M 71.01 190.489541 
L 653.67 190.489541 
" clip-path="url(#p350d773e3f)" style="fill: none; stroke: #ffffff; stroke-linecap: round"/>
     </g>
     <g id="line2d_52">
      <g>
       <use xlink:href="#m5e913286f2" x="653.67" y="190.489541" style="fill: #262626; stroke: #262626; stroke-width: 1.25"/>
      </g>
     </g>
     <g id="text_39">
      <!-- 25 -->
      <g style="fill: #262626" transform="translate(663.17 196.394736) scale(0.165 -0.165)">
       <use xlink:href="#ArialMT-32"/>
       <use xlink:href="#ArialMT-35" x="55.615234"/>
      </g>
     </g>
    </g>
    <g id="ytick_11">
     <g id="line2d_53">
      <path d="M 71.01 114.489567 
L 653.67 114.489567 
" clip-path="url(#p350d773e3f)" style="fill: none; stroke: #ffffff; stroke-linecap: round"/>
     </g>
     <g id="line2d_54">
      <g>
       <use xlink:href="#m5e913286f2" x="653.67" y="114.489567" style="fill: #262626; stroke: #262626; stroke-width: 1.25"/>
      </g>
     </g>
     <g id="text_40">
      <!-- 30 -->
      <g style="fill: #262626" transform="translate(663.17 120.394762) scale(0.165 -0.165)">
       <use xlink:href="#ArialMT-33"/>
       <use xlink:href="#ArialMT-30" x="55.615234"/>
      </g>
     </g>
    </g>
    <g id="ytick_12">
     <g id="line2d_55">
      <path d="M 71.01 38.489593 
L 653.67 38.489593 
" clip-path="url(#p350d773e3f)" style="fill: none; stroke: #ffffff; stroke-linecap: round"/>
     </g>
     <g id="line2d_56">
      <g>
       <use xlink:href="#m5e913286f2" x="653.67" y="38.489593" style="fill: #262626; stroke: #262626; stroke-width: 1.25"/>
      </g>
     </g>
     <g id="text_41">
      <!-- 35 -->
      <g style="fill: #262626" transform="translate(663.17 44.394788) scale(0.165 -0.165)">
       <use xlink:href="#ArialMT-33"/>
       <use xlink:href="#ArialMT-35" x="55.615234"/>
      </g>
     </g>
    </g>
    <g id="text_42">
     <!-- Electricity costs [p/kWh] -->
     <g style="fill: #262626" transform="translate(698.624531 286.569634) rotate(-90) scale(0.18 -0.18)">
      <defs>
       <path id="ArialMT-2f" d="M 0 -78 
L 1328 4659 
L 1778 4659 
L 453 -78 
L 0 -78 
z
" transform="scale(0.015625)"/>
      </defs>
      <use xlink:href="#ArialMT-45"/>
      <use xlink:href="#ArialMT-6c" x="66.699219"/>
      <use xlink:href="#ArialMT-65" x="88.916016"/>
      <use xlink:href="#ArialMT-63" x="144.53125"/>
      <use xlink:href="#ArialMT-74" x="194.53125"/>
      <use xlink:href="#ArialMT-72" x="222.314453"/>
      <use xlink:href="#ArialMT-69" x="255.615234"/>
      <use xlink:href="#ArialMT-63" x="277.832031"/>
      <use xlink:href="#ArialMT-69" x="327.832031"/>
      <use xlink:href="#ArialMT-74" x="350.048828"/>
      <use xlink:href="#ArialMT-79" x="377.832031"/>
      <use xlink:href="#ArialMT-20" x="427.832031"/>
      <use xlink:href="#ArialMT-63" x="455.615234"/>
      <use xlink:href="#ArialMT-6f" x="505.615234"/>
      <use xlink:href="#ArialMT-73" x="561.230469"/>
      <use xlink:href="#ArialMT-74" x="611.230469"/>
      <use xlink:href="#ArialMT-73" x="639.013672"/>
      <use xlink:href="#ArialMT-20" x="689.013672"/>
      <use xlink:href="#ArialMT-5b" x="716.796875"/>
      <use xlink:href="#ArialMT-70" x="744.580078"/>
      <use xlink:href="#ArialMT-2f" x="800.195312"/>
      <use xlink:href="#ArialMT-6b" x="827.978516"/>
      <use xlink:href="#ArialMT-57" x="877.978516"/>
      <use xlink:href="#ArialMT-68" x="972.363281"/>
      <use xlink:href="#ArialMT-5d" x="1027.978516"/>
     </g>
    </g>
   </g>
   <g id="PolyCollection_4"/>
   <g id="line2d_57">
    <path d="M 77.016804 215.873532 
L 83.023608 215.873532 
L 89.030412 135.16156 
L 95.037216 135.16156 
L 101.044021 169.057548 
L 107.050825 169.057548 
L 113.057629 276.673511 
L 119.064433 276.673511 
L 125.071237 283.665509 
L 131.078041 283.665509 
L 137.084845 309.6575 
L 143.091649 309.6575 
L 149.098454 317.713497 
L 155.105258 317.713497 
L 161.112062 349.329487 
L 167.118866 349.329487 
L 173.12567 328.809494 
L 179.132474 328.809494 
L 185.139278 337.169491 
L 191.146082 337.169491 
L 197.152887 294.609505 
L 203.159691 294.609505 
L 209.166495 144.129557 
L 215.173299 144.129557 
L 221.180103 131.513561 
L 227.186907 131.513561 
L 233.193711 43.809591 
L 239.200515 43.809591 
L 245.20732 43.809591 
L 251.214124 43.809591 
L 257.220928 33.777595 
L 263.227732 33.777595 
L 269.234536 49.129589 
L 275.24134 49.129589 
L 281.248144 33.777595 
L 287.254948 33.777595 
L 293.261753 60.681585 
L 299.268557 60.681585 
L 305.275361 104.153571 
L 311.282165 104.153571 
L 317.288969 85.913577 
L 323.295773 85.913577 
L 329.302577 131.513561 
L 335.309381 131.513561 
L 341.316186 135.16156 
L 347.32299 135.16156 
L 353.329794 129.537562 
L 359.336598 129.537562 
L 365.343402 173.769547 
L 371.350206 173.769547 
L 377.35701 154.769553 
L 383.363814 154.769553 
L 389.370619 159.633552 
L 395.377423 159.633552 
L 401.384227 149.753555 
L 407.391031 149.753555 
L 413.397835 130.905561 
L 419.404639 130.905561 
L 425.411443 122.849564 
L 431.418247 122.849564 
L 437.425052 161.457551 
L 443.431856 161.457551 
L 449.43866 103.545571 
L 455.445464 103.545571 
L 461.452268 33.777595 
L 467.459072 33.777595 
L 473.465876 33.777595 
L 479.47268 33.777595 
L 485.479485 33.777595 
L 491.486289 33.777595 
L 497.493093 33.777595 
L 503.499897 33.777595 
L 509.506701 33.777595 
L 515.513505 33.777595 
L 521.520309 33.777595 
L 527.527113 33.777595 
L 533.533918 33.777595 
L 539.540722 33.777595 
L 545.547526 78.921579 
L 551.55433 78.921579 
L 557.561134 71.929582 
L 563.567938 71.929582 
L 569.574742 109.473569 
L 575.581546 109.473569 
L 581.588351 89.409576 
L 587.595155 89.409576 
L 593.601959 100.049572 
L 599.608763 100.049572 
L 605.615567 66.609583 
L 611.622371 66.609583 
L 617.629175 163.12955 
L 623.635979 163.12955 
L 629.642784 91.841575 
L 635.649588 91.841575 
L 641.656392 156.137553 
L 647.663196 156.137553 
" clip-path="url(#p350d773e3f)" style="fill: none; stroke-dasharray: 5.55,2.4; stroke-dashoffset: 0; stroke: #808080; stroke-width: 1.5"/>
   </g>
   <g id="patch_8">
    <path d="M 71.01 365.107081 
L 71.01 18 
" style="fill: none; stroke: #ffffff; stroke-width: 1.25; stroke-linejoin: miter; stroke-linecap: square"/>
   </g>
   <g id="patch_9">
    <path d="M 653.67 365.107081 
L 653.67 18 
" style="fill: none; stroke: #ffffff; stroke-width: 1.25; stroke-linejoin: miter; stroke-linecap: square"/>
   </g>
   <g id="patch_10">
    <path d="M 71.01 365.107081 
L 653.67 365.107081 
" style="fill: none; stroke: #ffffff; stroke-width: 1.25; stroke-linejoin: miter; stroke-linecap: square"/>
   </g>
   <g id="patch_11">
    <path d="M 71.01 18 
L 653.67 18 
" style="fill: none; stroke: #ffffff; stroke-width: 1.25; stroke-linejoin: miter; stroke-linecap: square"/>
   </g>
   <g id="legend_2">
    <g id="patch_12">
     <path d="M 475.635 54.733125 
L 642.12 54.733125 
Q 645.42 54.733125 645.42 51.433125 
L 645.42 29.55 
Q 645.42 26.25 642.12 26.25 
L 475.635 26.25 
Q 472.335 26.25 472.335 29.55 
L 472.335 51.433125 
Q 472.335 54.733125 475.635 54.733125 
z
" style="fill: #eaeaf2; opacity: 0.8; stroke: #cccccc; stroke-linejoin: miter"/>
    </g>
    <g id="line2d_58">
     <path d="M 478.935 38.885391 
L 495.435 38.885391 
L 511.935 38.885391 
" style="fill: none; stroke-dasharray: 5.55,2.4; stroke-dashoffset: 0; stroke: #808080; stroke-width: 1.5"/>
    </g>
    <g id="text_43">
     <!-- Electricity costs -->
     <g style="fill: #262626" transform="translate(525.135 44.660391) scale(0.165 -0.165)">
      <use xlink:href="#ArialMT-45"/>
      <use xlink:href="#ArialMT-6c" x="66.699219"/>
      <use xlink:href="#ArialMT-65" x="88.916016"/>
      <use xlink:href="#ArialMT-63" x="144.53125"/>
      <use xlink:href="#ArialMT-74" x="194.53125"/>
      <use xlink:href="#ArialMT-72" x="222.314453"/>
      <use xlink:href="#ArialMT-69" x="255.615234"/>
      <use xlink:href="#ArialMT-63" x="277.832031"/>
      <use xlink:href="#ArialMT-69" x="327.832031"/>
      <use xlink:href="#ArialMT-74" x="350.048828"/>
      <use xlink:href="#ArialMT-79" x="377.832031"/>
      <use xlink:href="#ArialMT-20" x="427.832031"/>
      <use xlink:href="#ArialMT-63" x="455.615234"/>
      <use xlink:href="#ArialMT-6f" x="505.615234"/>
      <use xlink:href="#ArialMT-73" x="561.230469"/>
      <use xlink:href="#ArialMT-74" x="611.230469"/>
      <use xlink:href="#ArialMT-73" x="639.013672"/>
     </g>
    </g>
   </g>
  </g>
 </g>
 <defs>
  <clipPath id="p350d773e3f">
   <rect x="71.01" y="18" width="582.66" height="347.107081"/>
  </clipPath>
 </defs>
</svg>
