<?xml version="1.0" encoding="utf-8" standalone="no"?>
<!DOCTYPE svg PUBLIC "-//W3C//DTD SVG 1.1//EN"
  "http://www.w3.org/Graphics/SVG/1.1/DTD/svg11.dtd">
<svg xmlns:xlink="http://www.w3.org/1999/xlink" width="720pt" height="432pt" viewBox="0 0 720 432" xmlns="http://www.w3.org/2000/svg" version="1.1">
 <metadata>
  <rdf:RDF xmlns:dc="http://purl.org/dc/elements/1.1/" xmlns:cc="http://creativecommons.org/ns#" xmlns:rdf="http://www.w3.org/1999/02/22-rdf-syntax-ns#">
   <cc:Work>
    <dc:type rdf:resource="http://purl.org/dc/dcmitype/StillImage"/>
    <dc:date>2024-12-09T15:07:14.575158</dc:date>
    <dc:format>image/svg+xml</dc:format>
    <dc:creator>
     <cc:Agent>
      <dc:title>Matplotlib v3.9.2, https://matplotlib.org/</dc:title>
     </cc:Agent>
    </dc:creator>
   </cc:Work>
  </rdf:RDF>
 </metadata>
 <defs>
  <style type="text/css">*{stroke-linejoin: round; stroke-linecap: butt}</style>
 </defs>
 <g id="figure_1">
  <g id="patch_1">
   <path d="M 0 432 
L 720 432 
L 720 0 
L 0 0 
z
" style="fill: #ffffff"/>
  </g>
  <g id="axes_1">
   <g id="patch_2">
    <path d="M 71.01 365.107081 
L 688.087938 365.107081 
L 688.087938 18 
L 71.01 18 
z
" style="fill: #eaeaf2"/>
   </g>
   <g id="matplotlib.axis_1">
    <g id="xtick_1">
     <g id="line2d_1">
      <path d="M 71.01 365.107081 
L 71.01 18 
" clip-path="url(#pd23d8ff8df)" style="fill: none; stroke: #ffffff; stroke-linecap: round"/>
     </g>
     <g id="text_1">
      <!-- 00:00 -->
      <g style="fill: #262626" transform="translate(59.429331 412.151965) rotate(-45) scale(0.165 -0.165)">
       <defs>
        <path id="ArialMT-30" d="M 266 2259 
Q 266 3072 433 3567 
Q 600 4063 929 4331 
Q 1259 4600 1759 4600 
Q 2128 4600 2406 4451 
Q 2684 4303 2865 4023 
Q 3047 3744 3150 3342 
Q 3253 2941 3253 2259 
Q 3253 1453 3087 958 
Q 2922 463 2592 192 
Q 2263 -78 1759 -78 
Q 1097 -78 719 397 
Q 266 969 266 2259 
z
M 844 2259 
Q 844 1131 1108 757 
Q 1372 384 1759 384 
Q 2147 384 2411 759 
Q 2675 1134 2675 2259 
Q 2675 3391 2411 3762 
Q 2147 4134 1753 4134 
Q 1366 4134 1134 3806 
Q 844 3388 844 2259 
z
" transform="scale(0.015625)"/>
        <path id="ArialMT-3a" d="M 578 2678 
L 578 3319 
L 1219 3319 
L 1219 2678 
L 578 2678 
z
M 578 0 
L 578 641 
L 1219 641 
L 1219 0 
L 578 0 
z
" transform="scale(0.015625)"/>
       </defs>
       <use xlink:href="#ArialMT-30"/>
       <use xlink:href="#ArialMT-30" x="55.615234"/>
       <use xlink:href="#ArialMT-3a" x="111.230469"/>
       <use xlink:href="#ArialMT-30" x="139.013672"/>
       <use xlink:href="#ArialMT-30" x="194.628906"/>
      </g>
     </g>
    </g>
    <g id="xtick_2">
     <g id="line2d_2">
      <path d="M 96.456513 365.107081 
L 96.456513 18 
" clip-path="url(#pd23d8ff8df)" style="fill: none; stroke: #ffffff; stroke-linecap: round"/>
     </g>
     <g id="text_2">
      <!-- 01:00 -->
      <g style="fill: #262626" transform="translate(84.875844 412.151965) rotate(-45) scale(0.165 -0.165)">
       <defs>
        <path id="ArialMT-31" d="M 2384 0 
L 1822 0 
L 1822 3584 
Q 1619 3391 1289 3197 
Q 959 3003 697 2906 
L 697 3450 
Q 1169 3672 1522 3987 
Q 1875 4303 2022 4600 
L 2384 4600 
L 2384 0 
z
" transform="scale(0.015625)"/>
       </defs>
       <use xlink:href="#ArialMT-30"/>
       <use xlink:href="#ArialMT-31" x="55.615234"/>
       <use xlink:href="#ArialMT-3a" x="111.230469"/>
       <use xlink:href="#ArialMT-30" x="139.013672"/>
       <use xlink:href="#ArialMT-30" x="194.628906"/>
      </g>
     </g>
    </g>
    <g id="xtick_3">
     <g id="line2d_3">
      <path d="M 121.903026 365.107081 
L 121.903026 18 
" clip-path="url(#pd23d8ff8df)" style="fill: none; stroke: #ffffff; stroke-linecap: round"/>
     </g>
     <g id="text_3">
      <!-- 02:00 -->
      <g style="fill: #262626" transform="translate(110.322357 412.151965) rotate(-45) scale(0.165 -0.165)">
       <defs>
        <path id="ArialMT-32" d="M 3222 541 
L 3222 0 
L 194 0 
Q 188 203 259 391 
Q 375 700 629 1000 
Q 884 1300 1366 1694 
Q 2113 2306 2375 2664 
Q 2638 3022 2638 3341 
Q 2638 3675 2398 3904 
Q 2159 4134 1775 4134 
Q 1369 4134 1125 3890 
Q 881 3647 878 3216 
L 300 3275 
Q 359 3922 746 4261 
Q 1134 4600 1788 4600 
Q 2447 4600 2831 4234 
Q 3216 3869 3216 3328 
Q 3216 3053 3103 2787 
Q 2991 2522 2730 2228 
Q 2469 1934 1863 1422 
Q 1356 997 1212 845 
Q 1069 694 975 541 
L 3222 541 
z
" transform="scale(0.015625)"/>
       </defs>
       <use xlink:href="#ArialMT-30"/>
       <use xlink:href="#ArialMT-32" x="55.615234"/>
       <use xlink:href="#ArialMT-3a" x="111.230469"/>
       <use xlink:href="#ArialMT-30" x="139.013672"/>
       <use xlink:href="#ArialMT-30" x="194.628906"/>
      </g>
     </g>
    </g>
    <g id="xtick_4">
     <g id="line2d_4">
      <path d="M 147.349539 365.107081 
L 147.349539 18 
" clip-path="url(#pd23d8ff8df)" style="fill: none; stroke: #ffffff; stroke-linecap: round"/>
     </g>
     <g id="text_4">
      <!-- 03:00 -->
      <g style="fill: #262626" transform="translate(135.76887 412.151965) rotate(-45) scale(0.165 -0.165)">
       <defs>
        <path id="ArialMT-33" d="M 269 1209 
L 831 1284 
Q 928 806 1161 595 
Q 1394 384 1728 384 
Q 2125 384 2398 659 
Q 2672 934 2672 1341 
Q 2672 1728 2419 1979 
Q 2166 2231 1775 2231 
Q 1616 2231 1378 2169 
L 1441 2663 
Q 1497 2656 1531 2656 
Q 1891 2656 2178 2843 
Q 2466 3031 2466 3422 
Q 2466 3731 2256 3934 
Q 2047 4138 1716 4138 
Q 1388 4138 1169 3931 
Q 950 3725 888 3313 
L 325 3413 
Q 428 3978 793 4289 
Q 1159 4600 1703 4600 
Q 2078 4600 2393 4439 
Q 2709 4278 2876 4000 
Q 3044 3722 3044 3409 
Q 3044 3113 2884 2869 
Q 2725 2625 2413 2481 
Q 2819 2388 3044 2092 
Q 3269 1797 3269 1353 
Q 3269 753 2831 336 
Q 2394 -81 1725 -81 
Q 1122 -81 723 278 
Q 325 638 269 1209 
z
" transform="scale(0.015625)"/>
       </defs>
       <use xlink:href="#ArialMT-30"/>
       <use xlink:href="#ArialMT-33" x="55.615234"/>
       <use xlink:href="#ArialMT-3a" x="111.230469"/>
       <use xlink:href="#ArialMT-30" x="139.013672"/>
       <use xlink:href="#ArialMT-30" x="194.628906"/>
      </g>
     </g>
    </g>
    <g id="xtick_5">
     <g id="line2d_5">
      <path d="M 172.796052 365.107081 
L 172.796052 18 
" clip-path="url(#pd23d8ff8df)" style="fill: none; stroke: #ffffff; stroke-linecap: round"/>
     </g>
     <g id="text_5">
      <!-- 04:00 -->
      <g style="fill: #262626" transform="translate(161.215383 412.151965) rotate(-45) scale(0.165 -0.165)">
       <defs>
        <path id="ArialMT-34" d="M 2069 0 
L 2069 1097 
L 81 1097 
L 81 1613 
L 2172 4581 
L 2631 4581 
L 2631 1613 
L 3250 1613 
L 3250 1097 
L 2631 1097 
L 2631 0 
L 2069 0 
z
M 2069 1613 
L 2069 3678 
L 634 1613 
L 2069 1613 
z
" transform="scale(0.015625)"/>
       </defs>
       <use xlink:href="#ArialMT-30"/>
       <use xlink:href="#ArialMT-34" x="55.615234"/>
       <use xlink:href="#ArialMT-3a" x="111.230469"/>
       <use xlink:href="#ArialMT-30" x="139.013672"/>
       <use xlink:href="#ArialMT-30" x="194.628906"/>
      </g>
     </g>
    </g>
    <g id="xtick_6">
     <g id="line2d_6">
      <path d="M 198.242564 365.107081 
L 198.242564 18 
" clip-path="url(#pd23d8ff8df)" style="fill: none; stroke: #ffffff; stroke-linecap: round"/>
     </g>
     <g id="text_6">
      <!-- 05:00 -->
      <g style="fill: #262626" transform="translate(186.661896 412.151965) rotate(-45) scale(0.165 -0.165)">
       <defs>
        <path id="ArialMT-35" d="M 266 1200 
L 856 1250 
Q 922 819 1161 601 
Q 1400 384 1738 384 
Q 2144 384 2425 690 
Q 2706 997 2706 1503 
Q 2706 1984 2436 2262 
Q 2166 2541 1728 2541 
Q 1456 2541 1237 2417 
Q 1019 2294 894 2097 
L 366 2166 
L 809 4519 
L 3088 4519 
L 3088 3981 
L 1259 3981 
L 1013 2750 
Q 1425 3038 1878 3038 
Q 2478 3038 2890 2622 
Q 3303 2206 3303 1553 
Q 3303 931 2941 478 
Q 2500 -78 1738 -78 
Q 1113 -78 717 272 
Q 322 622 266 1200 
z
" transform="scale(0.015625)"/>
       </defs>
       <use xlink:href="#ArialMT-30"/>
       <use xlink:href="#ArialMT-35" x="55.615234"/>
       <use xlink:href="#ArialMT-3a" x="111.230469"/>
       <use xlink:href="#ArialMT-30" x="139.013672"/>
       <use xlink:href="#ArialMT-30" x="194.628906"/>
      </g>
     </g>
    </g>
    <g id="xtick_7">
     <g id="line2d_7">
      <path d="M 223.689077 365.107081 
L 223.689077 18 
" clip-path="url(#pd23d8ff8df)" style="fill: none; stroke: #ffffff; stroke-linecap: round"/>
     </g>
     <g id="text_7">
      <!-- 06:00 -->
      <g style="fill: #262626" transform="translate(212.108408 412.151965) rotate(-45) scale(0.165 -0.165)">
       <defs>
        <path id="ArialMT-36" d="M 3184 3459 
L 2625 3416 
Q 2550 3747 2413 3897 
Q 2184 4138 1850 4138 
Q 1581 4138 1378 3988 
Q 1113 3794 959 3422 
Q 806 3050 800 2363 
Q 1003 2672 1297 2822 
Q 1591 2972 1913 2972 
Q 2475 2972 2870 2558 
Q 3266 2144 3266 1488 
Q 3266 1056 3080 686 
Q 2894 316 2569 119 
Q 2244 -78 1831 -78 
Q 1128 -78 684 439 
Q 241 956 241 2144 
Q 241 3472 731 4075 
Q 1159 4600 1884 4600 
Q 2425 4600 2770 4297 
Q 3116 3994 3184 3459 
z
M 888 1484 
Q 888 1194 1011 928 
Q 1134 663 1356 523 
Q 1578 384 1822 384 
Q 2178 384 2434 671 
Q 2691 959 2691 1453 
Q 2691 1928 2437 2201 
Q 2184 2475 1800 2475 
Q 1419 2475 1153 2201 
Q 888 1928 888 1484 
z
" transform="scale(0.015625)"/>
       </defs>
       <use xlink:href="#ArialMT-30"/>
       <use xlink:href="#ArialMT-36" x="55.615234"/>
       <use xlink:href="#ArialMT-3a" x="111.230469"/>
       <use xlink:href="#ArialMT-30" x="139.013672"/>
       <use xlink:href="#ArialMT-30" x="194.628906"/>
      </g>
     </g>
    </g>
    <g id="xtick_8">
     <g id="line2d_8">
      <path d="M 249.13559 365.107081 
L 249.13559 18 
" clip-path="url(#pd23d8ff8df)" style="fill: none; stroke: #ffffff; stroke-linecap: round"/>
     </g>
     <g id="text_8">
      <!-- 07:00 -->
      <g style="fill: #262626" transform="translate(237.554921 412.151965) rotate(-45) scale(0.165 -0.165)">
       <defs>
        <path id="ArialMT-37" d="M 303 3981 
L 303 4522 
L 3269 4522 
L 3269 4084 
Q 2831 3619 2401 2847 
Q 1972 2075 1738 1259 
Q 1569 684 1522 0 
L 944 0 
Q 953 541 1156 1306 
Q 1359 2072 1739 2783 
Q 2119 3494 2547 3981 
L 303 3981 
z
" transform="scale(0.015625)"/>
       </defs>
       <use xlink:href="#ArialMT-30"/>
       <use xlink:href="#ArialMT-37" x="55.615234"/>
       <use xlink:href="#ArialMT-3a" x="111.230469"/>
       <use xlink:href="#ArialMT-30" x="139.013672"/>
       <use xlink:href="#ArialMT-30" x="194.628906"/>
      </g>
     </g>
    </g>
    <g id="xtick_9">
     <g id="line2d_9">
      <path d="M 274.582103 365.107081 
L 274.582103 18 
" clip-path="url(#pd23d8ff8df)" style="fill: none; stroke: #ffffff; stroke-linecap: round"/>
     </g>
     <g id="text_9">
      <!-- 08:00 -->
      <g style="fill: #262626" transform="translate(263.001434 412.151965) rotate(-45) scale(0.165 -0.165)">
       <defs>
        <path id="ArialMT-38" d="M 1131 2484 
Q 781 2613 612 2850 
Q 444 3088 444 3419 
Q 444 3919 803 4259 
Q 1163 4600 1759 4600 
Q 2359 4600 2725 4251 
Q 3091 3903 3091 3403 
Q 3091 3084 2923 2848 
Q 2756 2613 2416 2484 
Q 2838 2347 3058 2040 
Q 3278 1734 3278 1309 
Q 3278 722 2862 322 
Q 2447 -78 1769 -78 
Q 1091 -78 675 323 
Q 259 725 259 1325 
Q 259 1772 486 2073 
Q 713 2375 1131 2484 
z
M 1019 3438 
Q 1019 3113 1228 2906 
Q 1438 2700 1772 2700 
Q 2097 2700 2305 2904 
Q 2513 3109 2513 3406 
Q 2513 3716 2298 3927 
Q 2084 4138 1766 4138 
Q 1444 4138 1231 3931 
Q 1019 3725 1019 3438 
z
M 838 1322 
Q 838 1081 952 856 
Q 1066 631 1291 507 
Q 1516 384 1775 384 
Q 2178 384 2440 643 
Q 2703 903 2703 1303 
Q 2703 1709 2433 1975 
Q 2163 2241 1756 2241 
Q 1359 2241 1098 1978 
Q 838 1716 838 1322 
z
" transform="scale(0.015625)"/>
       </defs>
       <use xlink:href="#ArialMT-30"/>
       <use xlink:href="#ArialMT-38" x="55.615234"/>
       <use xlink:href="#ArialMT-3a" x="111.230469"/>
       <use xlink:href="#ArialMT-30" x="139.013672"/>
       <use xlink:href="#ArialMT-30" x="194.628906"/>
      </g>
     </g>
    </g>
    <g id="xtick_10">
     <g id="line2d_10">
      <path d="M 300.028616 365.107081 
L 300.028616 18 
" clip-path="url(#pd23d8ff8df)" style="fill: none; stroke: #ffffff; stroke-linecap: round"/>
     </g>
     <g id="text_10">
      <!-- 09:00 -->
      <g style="fill: #262626" transform="translate(288.447947 412.151965) rotate(-45) scale(0.165 -0.165)">
       <defs>
        <path id="ArialMT-39" d="M 350 1059 
L 891 1109 
Q 959 728 1153 556 
Q 1347 384 1650 384 
Q 1909 384 2104 503 
Q 2300 622 2425 820 
Q 2550 1019 2634 1356 
Q 2719 1694 2719 2044 
Q 2719 2081 2716 2156 
Q 2547 1888 2255 1720 
Q 1963 1553 1622 1553 
Q 1053 1553 659 1965 
Q 266 2378 266 3053 
Q 266 3750 677 4175 
Q 1088 4600 1706 4600 
Q 2153 4600 2523 4359 
Q 2894 4119 3086 3673 
Q 3278 3228 3278 2384 
Q 3278 1506 3087 986 
Q 2897 466 2520 194 
Q 2144 -78 1638 -78 
Q 1100 -78 759 220 
Q 419 519 350 1059 
z
M 2653 3081 
Q 2653 3566 2395 3850 
Q 2138 4134 1775 4134 
Q 1400 4134 1122 3828 
Q 844 3522 844 3034 
Q 844 2597 1108 2323 
Q 1372 2050 1759 2050 
Q 2150 2050 2401 2323 
Q 2653 2597 2653 3081 
z
" transform="scale(0.015625)"/>
       </defs>
       <use xlink:href="#ArialMT-30"/>
       <use xlink:href="#ArialMT-39" x="55.615234"/>
       <use xlink:href="#ArialMT-3a" x="111.230469"/>
       <use xlink:href="#ArialMT-30" x="139.013672"/>
       <use xlink:href="#ArialMT-30" x="194.628906"/>
      </g>
     </g>
    </g>
    <g id="xtick_11">
     <g id="line2d_11">
      <path d="M 325.475129 365.107081 
L 325.475129 18 
" clip-path="url(#pd23d8ff8df)" style="fill: none; stroke: #ffffff; stroke-linecap: round"/>
     </g>
     <g id="text_11">
      <!-- 10:00 -->
      <g style="fill: #262626" transform="translate(313.89446 412.151965) rotate(-45) scale(0.165 -0.165)">
       <use xlink:href="#ArialMT-31"/>
       <use xlink:href="#ArialMT-30" x="55.615234"/>
       <use xlink:href="#ArialMT-3a" x="111.230469"/>
       <use xlink:href="#ArialMT-30" x="139.013672"/>
       <use xlink:href="#ArialMT-30" x="194.628906"/>
      </g>
     </g>
    </g>
    <g id="xtick_12">
     <g id="line2d_12">
      <path d="M 350.921642 365.107081 
L 350.921642 18 
" clip-path="url(#pd23d8ff8df)" style="fill: none; stroke: #ffffff; stroke-linecap: round"/>
     </g>
     <g id="text_12">
      <!-- 11:00 -->
      <g style="fill: #262626" transform="translate(339.771203 411.291505) rotate(-45) scale(0.165 -0.165)">
       <use xlink:href="#ArialMT-31"/>
       <use xlink:href="#ArialMT-31" x="48.240234"/>
       <use xlink:href="#ArialMT-3a" x="103.855469"/>
       <use xlink:href="#ArialMT-30" x="131.638672"/>
       <use xlink:href="#ArialMT-30" x="187.253906"/>
      </g>
     </g>
    </g>
    <g id="xtick_13">
     <g id="line2d_13">
      <path d="M 376.368155 365.107081 
L 376.368155 18 
" clip-path="url(#pd23d8ff8df)" style="fill: none; stroke: #ffffff; stroke-linecap: round"/>
     </g>
     <g id="text_13">
      <!-- 12:00 -->
      <g style="fill: #262626" transform="translate(364.787486 412.151965) rotate(-45) scale(0.165 -0.165)">
       <use xlink:href="#ArialMT-31"/>
       <use xlink:href="#ArialMT-32" x="55.615234"/>
       <use xlink:href="#ArialMT-3a" x="111.230469"/>
       <use xlink:href="#ArialMT-30" x="139.013672"/>
       <use xlink:href="#ArialMT-30" x="194.628906"/>
      </g>
     </g>
    </g>
    <g id="xtick_14">
     <g id="line2d_14">
      <path d="M 401.814668 365.107081 
L 401.814668 18 
" clip-path="url(#pd23d8ff8df)" style="fill: none; stroke: #ffffff; stroke-linecap: round"/>
     </g>
     <g id="text_14">
      <!-- 13:00 -->
      <g style="fill: #262626" transform="translate(390.233999 412.151965) rotate(-45) scale(0.165 -0.165)">
       <use xlink:href="#ArialMT-31"/>
       <use xlink:href="#ArialMT-33" x="55.615234"/>
       <use xlink:href="#ArialMT-3a" x="111.230469"/>
       <use xlink:href="#ArialMT-30" x="139.013672"/>
       <use xlink:href="#ArialMT-30" x="194.628906"/>
      </g>
     </g>
    </g>
    <g id="xtick_15">
     <g id="line2d_15">
      <path d="M 427.261181 365.107081 
L 427.261181 18 
" clip-path="url(#pd23d8ff8df)" style="fill: none; stroke: #ffffff; stroke-linecap: round"/>
     </g>
     <g id="text_15">
      <!-- 14:00 -->
      <g style="fill: #262626" transform="translate(415.680512 412.151965) rotate(-45) scale(0.165 -0.165)">
       <use xlink:href="#ArialMT-31"/>
       <use xlink:href="#ArialMT-34" x="55.615234"/>
       <use xlink:href="#ArialMT-3a" x="111.230469"/>
       <use xlink:href="#ArialMT-30" x="139.013672"/>
       <use xlink:href="#ArialMT-30" x="194.628906"/>
      </g>
     </g>
    </g>
    <g id="xtick_16">
     <g id="line2d_16">
      <path d="M 452.707693 365.107081 
L 452.707693 18 
" clip-path="url(#pd23d8ff8df)" style="fill: none; stroke: #ffffff; stroke-linecap: round"/>
     </g>
     <g id="text_16">
      <!-- 15:00 -->
      <g style="fill: #262626" transform="translate(441.127025 412.151965) rotate(-45) scale(0.165 -0.165)">
       <use xlink:href="#ArialMT-31"/>
       <use xlink:href="#ArialMT-35" x="55.615234"/>
       <use xlink:href="#ArialMT-3a" x="111.230469"/>
       <use xlink:href="#ArialMT-30" x="139.013672"/>
       <use xlink:href="#ArialMT-30" x="194.628906"/>
      </g>
     </g>
    </g>
    <g id="xtick_17">
     <g id="line2d_17">
      <path d="M 478.154206 365.107081 
L 478.154206 18 
" clip-path="url(#pd23d8ff8df)" style="fill: none; stroke: #ffffff; stroke-linecap: round"/>
     </g>
     <g id="text_17">
      <!-- 16:00 -->
      <g style="fill: #262626" transform="translate(466.573537 412.151965) rotate(-45) scale(0.165 -0.165)">
       <use xlink:href="#ArialMT-31"/>
       <use xlink:href="#ArialMT-36" x="55.615234"/>
       <use xlink:href="#ArialMT-3a" x="111.230469"/>
       <use xlink:href="#ArialMT-30" x="139.013672"/>
       <use xlink:href="#ArialMT-30" x="194.628906"/>
      </g>
     </g>
    </g>
    <g id="xtick_18">
     <g id="line2d_18">
      <path d="M 503.600719 365.107081 
L 503.600719 18 
" clip-path="url(#pd23d8ff8df)" style="fill: none; stroke: #ffffff; stroke-linecap: round"/>
     </g>
     <g id="text_18">
      <!-- 17:00 -->
      <g style="fill: #262626" transform="translate(492.02005 412.151965) rotate(-45) scale(0.165 -0.165)">
       <use xlink:href="#ArialMT-31"/>
       <use xlink:href="#ArialMT-37" x="55.615234"/>
       <use xlink:href="#ArialMT-3a" x="111.230469"/>
       <use xlink:href="#ArialMT-30" x="139.013672"/>
       <use xlink:href="#ArialMT-30" x="194.628906"/>
      </g>
     </g>
    </g>
    <g id="xtick_19">
     <g id="line2d_19">
      <path d="M 529.047232 365.107081 
L 529.047232 18 
" clip-path="url(#pd23d8ff8df)" style="fill: none; stroke: #ffffff; stroke-linecap: round"/>
     </g>
     <g id="text_19">
      <!-- 18:00 -->
      <g style="fill: #262626" transform="translate(517.466563 412.151965) rotate(-45) scale(0.165 -0.165)">
       <use xlink:href="#ArialMT-31"/>
       <use xlink:href="#ArialMT-38" x="55.615234"/>
       <use xlink:href="#ArialMT-3a" x="111.230469"/>
       <use xlink:href="#ArialMT-30" x="139.013672"/>
       <use xlink:href="#ArialMT-30" x="194.628906"/>
      </g>
     </g>
    </g>
    <g id="xtick_20">
     <g id="line2d_20">
      <path d="M 554.493745 365.107081 
L 554.493745 18 
" clip-path="url(#pd23d8ff8df)" style="fill: none; stroke: #ffffff; stroke-linecap: round"/>
     </g>
     <g id="text_20">
      <!-- 19:00 -->
      <g style="fill: #262626" transform="translate(542.913076 412.151965) rotate(-45) scale(0.165 -0.165)">
       <use xlink:href="#ArialMT-31"/>
       <use xlink:href="#ArialMT-39" x="55.615234"/>
       <use xlink:href="#ArialMT-3a" x="111.230469"/>
       <use xlink:href="#ArialMT-30" x="139.013672"/>
       <use xlink:href="#ArialMT-30" x="194.628906"/>
      </g>
     </g>
    </g>
    <g id="xtick_21">
     <g id="line2d_21">
      <path d="M 579.940258 365.107081 
L 579.940258 18 
" clip-path="url(#pd23d8ff8df)" style="fill: none; stroke: #ffffff; stroke-linecap: round"/>
     </g>
     <g id="text_21">
      <!-- 20:00 -->
      <g style="fill: #262626" transform="translate(568.359589 412.151965) rotate(-45) scale(0.165 -0.165)">
       <use xlink:href="#ArialMT-32"/>
       <use xlink:href="#ArialMT-30" x="55.615234"/>
       <use xlink:href="#ArialMT-3a" x="111.230469"/>
       <use xlink:href="#ArialMT-30" x="139.013672"/>
       <use xlink:href="#ArialMT-30" x="194.628906"/>
      </g>
     </g>
    </g>
    <g id="xtick_22">
     <g id="line2d_22">
      <path d="M 605.386771 365.107081 
L 605.386771 18 
" clip-path="url(#pd23d8ff8df)" style="fill: none; stroke: #ffffff; stroke-linecap: round"/>
     </g>
     <g id="text_22">
      <!-- 21:00 -->
      <g style="fill: #262626" transform="translate(593.806102 412.151965) rotate(-45) scale(0.165 -0.165)">
       <use xlink:href="#ArialMT-32"/>
       <use xlink:href="#ArialMT-31" x="55.615234"/>
       <use xlink:href="#ArialMT-3a" x="111.230469"/>
       <use xlink:href="#ArialMT-30" x="139.013672"/>
       <use xlink:href="#ArialMT-30" x="194.628906"/>
      </g>
     </g>
    </g>
    <g id="xtick_23">
     <g id="line2d_23">
      <path d="M 630.833284 365.107081 
L 630.833284 18 
" clip-path="url(#pd23d8ff8df)" style="fill: none; stroke: #ffffff; stroke-linecap: round"/>
     </g>
     <g id="text_23">
      <!-- 22:00 -->
      <g style="fill: #262626" transform="translate(619.252615 412.151965) rotate(-45) scale(0.165 -0.165)">
       <use xlink:href="#ArialMT-32"/>
       <use xlink:href="#ArialMT-32" x="55.615234"/>
       <use xlink:href="#ArialMT-3a" x="111.230469"/>
       <use xlink:href="#ArialMT-30" x="139.013672"/>
       <use xlink:href="#ArialMT-30" x="194.628906"/>
      </g>
     </g>
    </g>
    <g id="xtick_24">
     <g id="line2d_24">
      <path d="M 656.279797 365.107081 
L 656.279797 18 
" clip-path="url(#pd23d8ff8df)" style="fill: none; stroke: #ffffff; stroke-linecap: round"/>
     </g>
     <g id="text_24">
      <!-- 23:00 -->
      <g style="fill: #262626" transform="translate(644.699128 412.151965) rotate(-45) scale(0.165 -0.165)">
       <use xlink:href="#ArialMT-32"/>
       <use xlink:href="#ArialMT-33" x="55.615234"/>
       <use xlink:href="#ArialMT-3a" x="111.230469"/>
       <use xlink:href="#ArialMT-30" x="139.013672"/>
       <use xlink:href="#ArialMT-30" x="194.628906"/>
      </g>
     </g>
    </g>
    <g id="xtick_25">
     <g id="line2d_25">
      <path d="M 681.72631 365.107081 
L 681.72631 18 
" clip-path="url(#pd23d8ff8df)" style="fill: none; stroke: #ffffff; stroke-linecap: round"/>
     </g>
     <g id="text_25">
      <!-- 24:00 -->
      <g style="fill: #262626" transform="translate(670.145641 412.151965) rotate(-45) scale(0.165 -0.165)">
       <use xlink:href="#ArialMT-32"/>
       <use xlink:href="#ArialMT-34" x="55.615234"/>
       <use xlink:href="#ArialMT-3a" x="111.230469"/>
       <use xlink:href="#ArialMT-30" x="139.013672"/>
       <use xlink:href="#ArialMT-30" x="194.628906"/>
      </g>
     </g>
    </g>
   </g>
   <g id="matplotlib.axis_2">
    <g id="ytick_1">
     <g id="line2d_26">
      <path d="M 71.01 351.301872 
L 688.087938 351.301872 
" clip-path="url(#pd23d8ff8df)" style="fill: none; stroke: #ffffff; stroke-linecap: round"/>
     </g>
     <g id="text_26">
      <!-- 0.6 -->
      <g style="fill: #262626" transform="translate(38.575 357.207068) scale(0.165 -0.165)">
       <defs>
        <path id="ArialMT-2e" d="M 581 0 
L 581 641 
L 1222 641 
L 1222 0 
L 581 0 
z
" transform="scale(0.015625)"/>
       </defs>
       <use xlink:href="#ArialMT-30"/>
       <use xlink:href="#ArialMT-2e" x="55.615234"/>
       <use xlink:href="#ArialMT-36" x="83.398438"/>
      </g>
     </g>
    </g>
    <g id="ytick_2">
     <g id="line2d_27">
      <path d="M 71.01 300.450903 
L 688.087938 300.450903 
" clip-path="url(#pd23d8ff8df)" style="fill: none; stroke: #ffffff; stroke-linecap: round"/>
     </g>
     <g id="text_27">
      <!-- 0.8 -->
      <g style="fill: #262626" transform="translate(38.575 306.356098) scale(0.165 -0.165)">
       <use xlink:href="#ArialMT-30"/>
       <use xlink:href="#ArialMT-2e" x="55.615234"/>
       <use xlink:href="#ArialMT-38" x="83.398438"/>
      </g>
     </g>
    </g>
    <g id="ytick_3">
     <g id="line2d_28">
      <path d="M 71.01 249.599934 
L 688.087938 249.599934 
" clip-path="url(#pd23d8ff8df)" style="fill: none; stroke: #ffffff; stroke-linecap: round"/>
     </g>
     <g id="text_28">
      <!-- 1.0 -->
      <g style="fill: #262626" transform="translate(38.575 255.505129) scale(0.165 -0.165)">
       <use xlink:href="#ArialMT-31"/>
       <use xlink:href="#ArialMT-2e" x="55.615234"/>
       <use xlink:href="#ArialMT-30" x="83.398438"/>
      </g>
     </g>
    </g>
    <g id="ytick_4">
     <g id="line2d_29">
      <path d="M 71.01 198.748965 
L 688.087938 198.748965 
" clip-path="url(#pd23d8ff8df)" style="fill: none; stroke: #ffffff; stroke-linecap: round"/>
     </g>
     <g id="text_29">
      <!-- 1.2 -->
      <g style="fill: #262626" transform="translate(38.575 204.65416) scale(0.165 -0.165)">
       <use xlink:href="#ArialMT-31"/>
       <use xlink:href="#ArialMT-2e" x="55.615234"/>
       <use xlink:href="#ArialMT-32" x="83.398438"/>
      </g>
     </g>
    </g>
    <g id="ytick_5">
     <g id="line2d_30">
      <path d="M 71.01 147.897996 
L 688.087938 147.897996 
" clip-path="url(#pd23d8ff8df)" style="fill: none; stroke: #ffffff; stroke-linecap: round"/>
     </g>
     <g id="text_30">
      <!-- 1.4 -->
      <g style="fill: #262626" transform="translate(38.575 153.803191) scale(0.165 -0.165)">
       <use xlink:href="#ArialMT-31"/>
       <use xlink:href="#ArialMT-2e" x="55.615234"/>
       <use xlink:href="#ArialMT-34" x="83.398438"/>
      </g>
     </g>
    </g>
    <g id="ytick_6">
     <g id="line2d_31">
      <path d="M 71.01 97.047026 
L 688.087938 97.047026 
" clip-path="url(#pd23d8ff8df)" style="fill: none; stroke: #ffffff; stroke-linecap: round"/>
     </g>
     <g id="text_31">
      <!-- 1.6 -->
      <g style="fill: #262626" transform="translate(38.575 102.952222) scale(0.165 -0.165)">
       <use xlink:href="#ArialMT-31"/>
       <use xlink:href="#ArialMT-2e" x="55.615234"/>
       <use xlink:href="#ArialMT-36" x="83.398438"/>
      </g>
     </g>
    </g>
    <g id="ytick_7">
     <g id="line2d_32">
      <path d="M 71.01 46.196057 
L 688.087938 46.196057 
" clip-path="url(#pd23d8ff8df)" style="fill: none; stroke: #ffffff; stroke-linecap: round"/>
     </g>
     <g id="text_32">
      <!-- 1.8 -->
      <g style="fill: #262626" transform="translate(38.575 52.101252) scale(0.165 -0.165)">
       <use xlink:href="#ArialMT-31"/>
       <use xlink:href="#ArialMT-2e" x="55.615234"/>
       <use xlink:href="#ArialMT-38" x="83.398438"/>
      </g>
     </g>
    </g>
    <g id="text_33">
     <!-- Electricity consumption [kWh] (normalised) -->
     <g style="fill: #262626" transform="translate(30.786563 361.595884) rotate(-90) scale(0.18 -0.18)">
      <defs>
       <path id="ArialMT-45" d="M 506 0 
L 506 4581 
L 3819 4581 
L 3819 4041 
L 1113 4041 
L 1113 2638 
L 3647 2638 
L 3647 2100 
L 1113 2100 
L 1113 541 
L 3925 541 
L 3925 0 
L 506 0 
z
" transform="scale(0.015625)"/>
       <path id="ArialMT-6c" d="M 409 0 
L 409 4581 
L 972 4581 
L 972 0 
L 409 0 
z
" transform="scale(0.015625)"/>
       <path id="ArialMT-65" d="M 2694 1069 
L 3275 997 
Q 3138 488 2766 206 
Q 2394 -75 1816 -75 
Q 1088 -75 661 373 
Q 234 822 234 1631 
Q 234 2469 665 2931 
Q 1097 3394 1784 3394 
Q 2450 3394 2872 2941 
Q 3294 2488 3294 1666 
Q 3294 1616 3291 1516 
L 816 1516 
Q 847 969 1125 678 
Q 1403 388 1819 388 
Q 2128 388 2347 550 
Q 2566 713 2694 1069 
z
M 847 1978 
L 2700 1978 
Q 2663 2397 2488 2606 
Q 2219 2931 1791 2931 
Q 1403 2931 1139 2672 
Q 875 2413 847 1978 
z
" transform="scale(0.015625)"/>
       <path id="ArialMT-63" d="M 2588 1216 
L 3141 1144 
Q 3050 572 2676 248 
Q 2303 -75 1759 -75 
Q 1078 -75 664 370 
Q 250 816 250 1647 
Q 250 2184 428 2587 
Q 606 2991 970 3192 
Q 1334 3394 1763 3394 
Q 2303 3394 2647 3120 
Q 2991 2847 3088 2344 
L 2541 2259 
Q 2463 2594 2264 2762 
Q 2066 2931 1784 2931 
Q 1359 2931 1093 2626 
Q 828 2322 828 1663 
Q 828 994 1084 691 
Q 1341 388 1753 388 
Q 2084 388 2306 591 
Q 2528 794 2588 1216 
z
" transform="scale(0.015625)"/>
       <path id="ArialMT-74" d="M 1650 503 
L 1731 6 
Q 1494 -44 1306 -44 
Q 1000 -44 831 53 
Q 663 150 594 308 
Q 525 466 525 972 
L 525 2881 
L 113 2881 
L 113 3319 
L 525 3319 
L 525 4141 
L 1084 4478 
L 1084 3319 
L 1650 3319 
L 1650 2881 
L 1084 2881 
L 1084 941 
Q 1084 700 1114 631 
Q 1144 563 1211 522 
Q 1278 481 1403 481 
Q 1497 481 1650 503 
z
" transform="scale(0.015625)"/>
       <path id="ArialMT-72" d="M 416 0 
L 416 3319 
L 922 3319 
L 922 2816 
Q 1116 3169 1280 3281 
Q 1444 3394 1641 3394 
Q 1925 3394 2219 3213 
L 2025 2691 
Q 1819 2813 1613 2813 
Q 1428 2813 1281 2702 
Q 1134 2591 1072 2394 
Q 978 2094 978 1738 
L 978 0 
L 416 0 
z
" transform="scale(0.015625)"/>
       <path id="ArialMT-69" d="M 425 3934 
L 425 4581 
L 988 4581 
L 988 3934 
L 425 3934 
z
M 425 0 
L 425 3319 
L 988 3319 
L 988 0 
L 425 0 
z
" transform="scale(0.015625)"/>
       <path id="ArialMT-79" d="M 397 -1278 
L 334 -750 
Q 519 -800 656 -800 
Q 844 -800 956 -737 
Q 1069 -675 1141 -563 
Q 1194 -478 1313 -144 
Q 1328 -97 1363 -6 
L 103 3319 
L 709 3319 
L 1400 1397 
Q 1534 1031 1641 628 
Q 1738 1016 1872 1384 
L 2581 3319 
L 3144 3319 
L 1881 -56 
Q 1678 -603 1566 -809 
Q 1416 -1088 1222 -1217 
Q 1028 -1347 759 -1347 
Q 597 -1347 397 -1278 
z
" transform="scale(0.015625)"/>
       <path id="ArialMT-20" transform="scale(0.015625)"/>
       <path id="ArialMT-6f" d="M 213 1659 
Q 213 2581 725 3025 
Q 1153 3394 1769 3394 
Q 2453 3394 2887 2945 
Q 3322 2497 3322 1706 
Q 3322 1066 3130 698 
Q 2938 331 2570 128 
Q 2203 -75 1769 -75 
Q 1072 -75 642 372 
Q 213 819 213 1659 
z
M 791 1659 
Q 791 1022 1069 705 
Q 1347 388 1769 388 
Q 2188 388 2466 706 
Q 2744 1025 2744 1678 
Q 2744 2294 2464 2611 
Q 2184 2928 1769 2928 
Q 1347 2928 1069 2612 
Q 791 2297 791 1659 
z
" transform="scale(0.015625)"/>
       <path id="ArialMT-6e" d="M 422 0 
L 422 3319 
L 928 3319 
L 928 2847 
Q 1294 3394 1984 3394 
Q 2284 3394 2536 3286 
Q 2788 3178 2913 3003 
Q 3038 2828 3088 2588 
Q 3119 2431 3119 2041 
L 3119 0 
L 2556 0 
L 2556 2019 
Q 2556 2363 2490 2533 
Q 2425 2703 2258 2804 
Q 2091 2906 1866 2906 
Q 1506 2906 1245 2678 
Q 984 2450 984 1813 
L 984 0 
L 422 0 
z
" transform="scale(0.015625)"/>
       <path id="ArialMT-73" d="M 197 991 
L 753 1078 
Q 800 744 1014 566 
Q 1228 388 1613 388 
Q 2000 388 2187 545 
Q 2375 703 2375 916 
Q 2375 1106 2209 1216 
Q 2094 1291 1634 1406 
Q 1016 1563 777 1677 
Q 538 1791 414 1992 
Q 291 2194 291 2438 
Q 291 2659 392 2848 
Q 494 3038 669 3163 
Q 800 3259 1026 3326 
Q 1253 3394 1513 3394 
Q 1903 3394 2198 3281 
Q 2494 3169 2634 2976 
Q 2775 2784 2828 2463 
L 2278 2388 
Q 2241 2644 2061 2787 
Q 1881 2931 1553 2931 
Q 1166 2931 1000 2803 
Q 834 2675 834 2503 
Q 834 2394 903 2306 
Q 972 2216 1119 2156 
Q 1203 2125 1616 2013 
Q 2213 1853 2448 1751 
Q 2684 1650 2818 1456 
Q 2953 1263 2953 975 
Q 2953 694 2789 445 
Q 2625 197 2315 61 
Q 2006 -75 1616 -75 
Q 969 -75 630 194 
Q 291 463 197 991 
z
" transform="scale(0.015625)"/>
       <path id="ArialMT-75" d="M 2597 0 
L 2597 488 
Q 2209 -75 1544 -75 
Q 1250 -75 995 37 
Q 741 150 617 320 
Q 494 491 444 738 
Q 409 903 409 1263 
L 409 3319 
L 972 3319 
L 972 1478 
Q 972 1038 1006 884 
Q 1059 663 1231 536 
Q 1403 409 1656 409 
Q 1909 409 2131 539 
Q 2353 669 2445 892 
Q 2538 1116 2538 1541 
L 2538 3319 
L 3100 3319 
L 3100 0 
L 2597 0 
z
" transform="scale(0.015625)"/>
       <path id="ArialMT-6d" d="M 422 0 
L 422 3319 
L 925 3319 
L 925 2853 
Q 1081 3097 1340 3245 
Q 1600 3394 1931 3394 
Q 2300 3394 2536 3241 
Q 2772 3088 2869 2813 
Q 3263 3394 3894 3394 
Q 4388 3394 4653 3120 
Q 4919 2847 4919 2278 
L 4919 0 
L 4359 0 
L 4359 2091 
Q 4359 2428 4304 2576 
Q 4250 2725 4106 2815 
Q 3963 2906 3769 2906 
Q 3419 2906 3187 2673 
Q 2956 2441 2956 1928 
L 2956 0 
L 2394 0 
L 2394 2156 
Q 2394 2531 2256 2718 
Q 2119 2906 1806 2906 
Q 1569 2906 1367 2781 
Q 1166 2656 1075 2415 
Q 984 2175 984 1722 
L 984 0 
L 422 0 
z
" transform="scale(0.015625)"/>
       <path id="ArialMT-70" d="M 422 -1272 
L 422 3319 
L 934 3319 
L 934 2888 
Q 1116 3141 1344 3267 
Q 1572 3394 1897 3394 
Q 2322 3394 2647 3175 
Q 2972 2956 3137 2557 
Q 3303 2159 3303 1684 
Q 3303 1175 3120 767 
Q 2938 359 2589 142 
Q 2241 -75 1856 -75 
Q 1575 -75 1351 44 
Q 1128 163 984 344 
L 984 -1272 
L 422 -1272 
z
M 931 1641 
Q 931 1000 1190 694 
Q 1450 388 1819 388 
Q 2194 388 2461 705 
Q 2728 1022 2728 1688 
Q 2728 2322 2467 2637 
Q 2206 2953 1844 2953 
Q 1484 2953 1207 2617 
Q 931 2281 931 1641 
z
" transform="scale(0.015625)"/>
       <path id="ArialMT-5b" d="M 434 -1272 
L 434 4581 
L 1675 4581 
L 1675 4116 
L 997 4116 
L 997 -806 
L 1675 -806 
L 1675 -1272 
L 434 -1272 
z
" transform="scale(0.015625)"/>
       <path id="ArialMT-6b" d="M 425 0 
L 425 4581 
L 988 4581 
L 988 1969 
L 2319 3319 
L 3047 3319 
L 1778 2088 
L 3175 0 
L 2481 0 
L 1384 1697 
L 988 1316 
L 988 0 
L 425 0 
z
" transform="scale(0.015625)"/>
       <path id="ArialMT-57" d="M 1294 0 
L 78 4581 
L 700 4581 
L 1397 1578 
Q 1509 1106 1591 641 
Q 1766 1375 1797 1488 
L 2669 4581 
L 3400 4581 
L 4056 2263 
Q 4303 1400 4413 641 
Q 4500 1075 4641 1638 
L 5359 4581 
L 5969 4581 
L 4713 0 
L 4128 0 
L 3163 3491 
Q 3041 3928 3019 4028 
Q 2947 3713 2884 3491 
L 1913 0 
L 1294 0 
z
" transform="scale(0.015625)"/>
       <path id="ArialMT-68" d="M 422 0 
L 422 4581 
L 984 4581 
L 984 2938 
Q 1378 3394 1978 3394 
Q 2347 3394 2619 3248 
Q 2891 3103 3008 2847 
Q 3125 2591 3125 2103 
L 3125 0 
L 2563 0 
L 2563 2103 
Q 2563 2525 2380 2717 
Q 2197 2909 1863 2909 
Q 1613 2909 1392 2779 
Q 1172 2650 1078 2428 
Q 984 2206 984 1816 
L 984 0 
L 422 0 
z
" transform="scale(0.015625)"/>
       <path id="ArialMT-5d" d="M 1363 -1272 
L 122 -1272 
L 122 -806 
L 800 -806 
L 800 4116 
L 122 4116 
L 122 4581 
L 1363 4581 
L 1363 -1272 
z
" transform="scale(0.015625)"/>
       <path id="ArialMT-28" d="M 1497 -1347 
Q 1031 -759 709 28 
Q 388 816 388 1659 
Q 388 2403 628 3084 
Q 909 3875 1497 4659 
L 1900 4659 
Q 1522 4009 1400 3731 
Q 1209 3300 1100 2831 
Q 966 2247 966 1656 
Q 966 153 1900 -1347 
L 1497 -1347 
z
" transform="scale(0.015625)"/>
       <path id="ArialMT-61" d="M 2588 409 
Q 2275 144 1986 34 
Q 1697 -75 1366 -75 
Q 819 -75 525 192 
Q 231 459 231 875 
Q 231 1119 342 1320 
Q 453 1522 633 1644 
Q 813 1766 1038 1828 
Q 1203 1872 1538 1913 
Q 2219 1994 2541 2106 
Q 2544 2222 2544 2253 
Q 2544 2597 2384 2738 
Q 2169 2928 1744 2928 
Q 1347 2928 1158 2789 
Q 969 2650 878 2297 
L 328 2372 
Q 403 2725 575 2942 
Q 747 3159 1072 3276 
Q 1397 3394 1825 3394 
Q 2250 3394 2515 3294 
Q 2781 3194 2906 3042 
Q 3031 2891 3081 2659 
Q 3109 2516 3109 2141 
L 3109 1391 
Q 3109 606 3145 398 
Q 3181 191 3288 0 
L 2700 0 
Q 2613 175 2588 409 
z
M 2541 1666 
Q 2234 1541 1622 1453 
Q 1275 1403 1131 1340 
Q 988 1278 909 1158 
Q 831 1038 831 891 
Q 831 666 1001 516 
Q 1172 366 1500 366 
Q 1825 366 2078 508 
Q 2331 650 2450 897 
Q 2541 1088 2541 1459 
L 2541 1666 
z
" transform="scale(0.015625)"/>
       <path id="ArialMT-64" d="M 2575 0 
L 2575 419 
Q 2259 -75 1647 -75 
Q 1250 -75 917 144 
Q 584 363 401 755 
Q 219 1147 219 1656 
Q 219 2153 384 2558 
Q 550 2963 881 3178 
Q 1213 3394 1622 3394 
Q 1922 3394 2156 3267 
Q 2391 3141 2538 2938 
L 2538 4581 
L 3097 4581 
L 3097 0 
L 2575 0 
z
M 797 1656 
Q 797 1019 1065 703 
Q 1334 388 1700 388 
Q 2069 388 2326 689 
Q 2584 991 2584 1609 
Q 2584 2291 2321 2609 
Q 2059 2928 1675 2928 
Q 1300 2928 1048 2622 
Q 797 2316 797 1656 
z
" transform="scale(0.015625)"/>
       <path id="ArialMT-29" d="M 791 -1347 
L 388 -1347 
Q 1322 153 1322 1656 
Q 1322 2244 1188 2822 
Q 1081 3291 891 3722 
Q 769 4003 388 4659 
L 791 4659 
Q 1378 3875 1659 3084 
Q 1900 2403 1900 1659 
Q 1900 816 1576 28 
Q 1253 -759 791 -1347 
z
" transform="scale(0.015625)"/>
      </defs>
      <use xlink:href="#ArialMT-45"/>
      <use xlink:href="#ArialMT-6c" x="66.699219"/>
      <use xlink:href="#ArialMT-65" x="88.916016"/>
      <use xlink:href="#ArialMT-63" x="144.53125"/>
      <use xlink:href="#ArialMT-74" x="194.53125"/>
      <use xlink:href="#ArialMT-72" x="222.314453"/>
      <use xlink:href="#ArialMT-69" x="255.615234"/>
      <use xlink:href="#ArialMT-63" x="277.832031"/>
      <use xlink:href="#ArialMT-69" x="327.832031"/>
      <use xlink:href="#ArialMT-74" x="350.048828"/>
      <use xlink:href="#ArialMT-79" x="377.832031"/>
      <use xlink:href="#ArialMT-20" x="427.832031"/>
      <use xlink:href="#ArialMT-63" x="455.615234"/>
      <use xlink:href="#ArialMT-6f" x="505.615234"/>
      <use xlink:href="#ArialMT-6e" x="561.230469"/>
      <use xlink:href="#ArialMT-73" x="616.845703"/>
      <use xlink:href="#ArialMT-75" x="666.845703"/>
      <use xlink:href="#ArialMT-6d" x="722.460938"/>
      <use xlink:href="#ArialMT-70" x="805.761719"/>
      <use xlink:href="#ArialMT-74" x="861.376953"/>
      <use xlink:href="#ArialMT-69" x="889.160156"/>
      <use xlink:href="#ArialMT-6f" x="911.376953"/>
      <use xlink:href="#ArialMT-6e" x="966.992188"/>
      <use xlink:href="#ArialMT-20" x="1022.607422"/>
      <use xlink:href="#ArialMT-5b" x="1050.390625"/>
      <use xlink:href="#ArialMT-6b" x="1078.173828"/>
      <use xlink:href="#ArialMT-57" x="1128.173828"/>
      <use xlink:href="#ArialMT-68" x="1222.558594"/>
      <use xlink:href="#ArialMT-5d" x="1278.173828"/>
      <use xlink:href="#ArialMT-20" x="1305.957031"/>
      <use xlink:href="#ArialMT-28" x="1333.740234"/>
      <use xlink:href="#ArialMT-6e" x="1367.041016"/>
      <use xlink:href="#ArialMT-6f" x="1422.65625"/>
      <use xlink:href="#ArialMT-72" x="1478.271484"/>
      <use xlink:href="#ArialMT-6d" x="1511.572266"/>
      <use xlink:href="#ArialMT-61" x="1594.873047"/>
      <use xlink:href="#ArialMT-6c" x="1650.488281"/>
      <use xlink:href="#ArialMT-69" x="1672.705078"/>
      <use xlink:href="#ArialMT-73" x="1694.921875"/>
      <use xlink:href="#ArialMT-65" x="1744.921875"/>
      <use xlink:href="#ArialMT-64" x="1800.537109"/>
      <use xlink:href="#ArialMT-29" x="1856.152344"/>
     </g>
    </g>
   </g>
   <g id="PolyCollection_1"/>
   <g id="PolyCollection_2"/>
   <g id="PolyCollection_3"/>
   <g id="line2d_33">
    <path d="M 77.371628 225.938885 
L 83.733256 225.938885 
L 90.094885 219.865036 
L 96.456513 219.865036 
L 102.818141 225.685394 
L 109.179769 225.685394 
L 115.541398 224.298648 
L 121.903026 224.298648 
L 128.264654 265.418907 
L 134.626282 265.418907 
L 140.98791 304.923781 
L 147.349539 304.923781 
L 153.711167 335.019656 
L 160.072795 335.019656 
L 166.434423 340.457292 
L 172.796052 340.457292 
L 179.15768 348.335403 
L 185.519308 348.335403 
L 191.880936 349.329487 
L 198.242564 349.329487 
L 204.604193 347.743924 
L 210.965821 347.743924 
L 217.327449 340.680961 
L 223.689077 340.680961 
L 230.050706 317.076451 
L 236.412334 317.076451 
L 242.773962 250.607065 
L 249.13559 250.607065 
L 255.497218 221.70906 
L 261.858847 221.70906 
L 268.220475 210.97296 
L 274.582103 210.97296 
L 280.943731 205.182424 
L 287.30536 205.182424 
L 293.666988 210.38148 
L 300.028616 210.38148 
L 306.390244 236.630252 
L 312.751873 236.630252 
L 319.113501 230.919243 
L 325.475129 230.919243 
L 331.836757 239.696999 
L 338.198385 239.696999 
L 344.560014 227.30575 
L 350.921642 227.30575 
L 357.28327 246.441855 
L 363.644898 246.441855 
L 370.006527 241.541024 
L 376.368155 241.541024 
L 382.729783 278.361873 
L 389.091411 278.361873 
L 395.453039 233.62315 
L 401.814668 233.62315 
L 408.176296 222.598765 
L 414.537924 222.598765 
L 420.899552 225.556163 
L 427.261181 225.556163 
L 433.622809 224.522316 
L 439.984437 224.522316 
L 446.346065 234.10031 
L 452.707693 234.10031 
L 459.069322 221.311427 
L 465.43095 221.311427 
L 471.792578 225.332494 
L 478.154206 225.332494 
L 484.515835 242.003273 
L 490.877463 242.003273 
L 497.239091 226.147643 
L 503.600719 226.147643 
L 509.962347 222.519238 
L 516.323976 222.519238 
L 522.685604 221.10267 
L 529.047232 221.10267 
L 535.40886 226.465749 
L 541.770489 226.465749 
L 548.132117 233.116167 
L 554.493745 233.116167 
L 560.855373 240.54197 
L 567.217001 240.54197 
L 573.57863 231.217468 
L 579.940258 231.217468 
L 586.301886 229.850603 
L 592.663514 229.850603 
L 599.025143 224.492494 
L 605.386771 224.492494 
L 611.748399 227.812732 
L 618.110027 227.812732 
L 624.471655 225.461725 
L 630.833284 225.461725 
L 637.194912 286.319511 
L 643.55654 286.319511 
L 649.918168 232.604214 
L 656.279797 232.604214 
L 662.641425 238.856999 
L 669.003053 238.856999 
L 675.364681 240.715935 
L 681.72631 240.715935 
" clip-path="url(#pd23d8ff8df)" style="fill: none; stroke: #808080; stroke-width: 1.5; stroke-linecap: round"/>
   </g>
   <g id="line2d_34">
    <path d="M 77.371628 225.566104 
L 83.733256 225.839477 
L 90.094885 219.865036 
L 96.456513 219.865036 
L 102.818141 225.685394 
L 109.179769 225.685394 
L 115.541398 224.298648 
L 121.903026 224.298648 
L 128.264654 265.418907 
L 134.626282 265.418907 
L 140.98791 304.923781 
L 147.349539 304.923781 
L 153.711167 335.019656 
L 160.072795 335.019656 
L 166.434423 340.457292 
L 172.796052 340.457292 
L 179.15768 348.335403 
L 185.519308 348.335403 
L 191.880936 349.329487 
L 198.242564 349.329487 
L 204.604193 347.743924 
L 210.965821 347.743924 
L 217.327449 340.680961 
L 223.689077 340.680961 
L 230.050706 317.076451 
L 236.412334 223.831428 
L 242.773962 61.38329 
L 249.13559 65.086251 
L 255.497218 41.82967 
L 261.858847 49.533816 
L 268.220475 48.092395 
L 274.582103 41.158664 
L 280.943731 33.777595 
L 287.30536 47.620206 
L 293.666988 63.306842 
L 300.028616 75.136434 
L 306.390244 113.165095 
L 312.751873 125.044391 
L 319.113501 130.144039 
L 325.475129 140.979548 
L 331.836757 160.692222 
L 338.198385 169.365599 
L 344.560014 166.293882 
L 350.921642 175.81223 
L 357.28327 202.677334 
L 363.644898 208.989763 
L 370.006527 208.58716 
L 376.368155 212.787162 
L 382.729783 253.634049 
L 389.091411 258.05772 
L 395.453039 216.798288 
L 401.814668 219.581722 
L 408.176296 212.111185 
L 414.537924 215.167992 
L 420.899552 220.262669 
L 427.261181 221.505273 
L 433.622809 221.962552 
L 439.984437 223.453677 
L 446.346065 233.280191 
L 452.707693 233.354747 
L 459.069322 221.212019 
L 465.43095 221.311427 
L 471.792578 225.332494 
L 478.154206 225.332494 
L 484.515835 202.364198 
L 490.877463 162.799678 
L 497.239091 148.087244 
L 503.600719 150.224523 
L 509.962347 149.155884 
L 516.323976 152.759436 
L 522.685604 154.822159 
L 529.047232 158.922753 
L 535.40886 168.808913 
L 541.770489 172.188796 
L 548.132117 182.865252 
L 554.493745 186.54336 
L 560.855373 198.964432 
L 567.217001 204.829524 
L 573.57863 202.488458 
L 579.940258 206.812721 
L 586.301886 208.22929 
L 592.663514 211.310948 
L 599.025143 208.338639 
L 605.386771 210.301953 
L 611.748399 216.629294 
L 618.110027 218.393792 
L 624.471655 217.459354 
L 630.833284 218.776514 
L 637.194912 280.131342 
L 643.55654 280.678087 
L 649.918168 228.205395 
L 656.279797 229.298887 
L 662.641425 236.023861 
L 669.003053 236.421495 
L 675.364681 239.100549 
L 681.72631 239.94552 
" clip-path="url(#pd23d8ff8df)" style="fill: none; stroke: #d62728; stroke-width: 2.5; stroke-linecap: round"/>
   </g>
   <g id="line2d_35">
    <path d="M 77.371628 206.926626 
L 83.733256 206.926626 
L 90.094885 206.926626 
L 96.456513 206.926626 
L 102.818141 206.926626 
L 109.179769 206.926626 
L 115.541398 206.926626 
L 121.903026 206.926626 
L 128.264654 206.926626 
L 134.626282 228.960899 
L 140.98791 304.923781 
L 147.349539 304.923781 
L 153.711167 335.019656 
L 160.072795 335.019656 
L 166.434423 340.457292 
L 172.796052 340.457292 
L 179.15768 348.335403 
L 185.519308 348.335403 
L 191.880936 349.329487 
L 198.242564 349.329487 
L 204.604193 347.743924 
L 210.965821 347.743924 
L 217.327449 340.680961 
L 223.689077 340.680961 
L 230.050706 317.076451 
L 236.412334 223.831428 
L 242.773962 167.657958 
L 249.13559 167.657958 
L 255.497218 167.657958 
L 261.858847 167.657958 
L 268.220475 167.657958 
L 274.582103 167.657958 
L 280.943731 167.657958 
L 287.30536 167.657958 
L 293.666988 167.657958 
L 300.028616 167.657958 
L 306.390244 167.657958 
L 312.751873 167.657958 
L 319.113501 167.657958 
L 325.475129 167.657958 
L 331.836757 167.657958 
L 338.198385 167.657958 
L 344.560014 167.657958 
L 350.921642 167.657958 
L 357.28327 167.657958 
L 363.644898 167.657958 
L 370.006527 167.657958 
L 376.368155 167.657958 
L 382.729783 167.657958 
L 389.091411 167.657958 
L 395.453039 167.657958 
L 401.814668 167.657958 
L 408.176296 167.657958 
L 414.537924 167.657958 
L 420.899552 167.657958 
L 427.261181 167.657958 
L 433.622809 167.657958 
L 439.984437 167.657958 
L 446.346065 167.657958 
L 452.707693 167.657958 
L 459.069322 167.657958 
L 465.43095 167.657958 
L 471.792578 167.657958 
L 478.154206 167.657958 
L 484.515835 167.657958 
L 490.877463 167.657958 
L 497.239091 167.657958 
L 503.600719 206.926626 
L 509.962347 206.926626 
L 516.323976 206.926626 
L 522.685604 206.926626 
L 529.047232 206.926626 
L 535.40886 206.926626 
L 541.770489 206.926626 
L 548.132117 206.926626 
L 554.493745 206.926626 
L 560.855373 206.926626 
L 567.217001 206.926626 
L 573.57863 206.926626 
L 579.940258 206.926626 
L 586.301886 206.926626 
L 592.663514 206.926626 
L 599.025143 206.926626 
L 605.386771 206.926626 
L 611.748399 206.926626 
L 618.110027 206.926626 
L 624.471655 206.926626 
L 630.833284 206.926626 
L 637.194912 207.675088 
L 643.55654 207.675088 
L 649.918168 206.926626 
L 656.279797 206.926626 
L 662.641425 206.926626 
L 669.003053 206.926626 
L 675.364681 206.926626 
L 681.72631 206.926626 
" clip-path="url(#pd23d8ff8df)" style="fill: none; stroke: #1f77b4; stroke-width: 2.5; stroke-linecap: round"/>
   </g>
   <g id="line2d_36">
    <path d="M 71.01 277.255955 
L 688.087938 277.255955 
" clip-path="url(#pd23d8ff8df)" style="fill: none; stroke-dasharray: 1.5,2.475; stroke-dashoffset: 0; stroke: #808080; stroke-width: 1.5"/>
   </g>
   <g id="patch_3">
    <path d="M 71.01 365.107081 
L 71.01 18 
" style="fill: none; stroke: #ffffff; stroke-width: 1.25; stroke-linejoin: miter; stroke-linecap: square"/>
   </g>
   <g id="patch_4">
    <path d="M 688.087938 365.107081 
L 688.087938 18 
" style="fill: none; stroke: #ffffff; stroke-width: 1.25; stroke-linejoin: miter; stroke-linecap: square"/>
   </g>
   <g id="patch_5">
    <path d="M 71.01 365.107081 
L 688.087938 365.107081 
" style="fill: none; stroke: #ffffff; stroke-width: 1.25; stroke-linejoin: miter; stroke-linecap: square"/>
   </g>
   <g id="patch_6">
    <path d="M 71.01 18 
L 688.087938 18 
" style="fill: none; stroke: #ffffff; stroke-width: 1.25; stroke-linejoin: miter; stroke-linecap: square"/>
   </g>
   <g id="legend_1">
    <g id="patch_7">
     <path d="M 343.139969 356.857081 
L 676.537938 356.857081 
Q 679.837938 356.857081 679.837938 353.557081 
L 679.837938 284.205519 
Q 679.837938 280.905519 676.537938 280.905519 
L 343.139969 280.905519 
Q 339.839969 280.905519 339.839969 284.205519 
L 339.839969 353.557081 
Q 339.839969 356.857081 343.139969 356.857081 
z
" style="fill: #eaeaf2; opacity: 0.8; stroke: #cccccc; stroke-linejoin: miter"/>
    </g>
    <g id="line2d_37">
     <path d="M 346.439969 293.540909 
L 362.939969 293.540909 
L 379.439969 293.540909 
" style="fill: none; stroke: #808080; stroke-width: 1.5; stroke-linecap: round"/>
    </g>
    <g id="text_34">
     <!-- Electricity demand curve industrial site -->
     <g style="fill: #262626" transform="translate(392.639969 299.315909) scale(0.165 -0.165)">
      <defs>
       <path id="ArialMT-76" d="M 1344 0 
L 81 3319 
L 675 3319 
L 1388 1331 
Q 1503 1009 1600 663 
Q 1675 925 1809 1294 
L 2547 3319 
L 3125 3319 
L 1869 0 
L 1344 0 
z
" transform="scale(0.015625)"/>
      </defs>
      <use xlink:href="#ArialMT-45"/>
      <use xlink:href="#ArialMT-6c" x="66.699219"/>
      <use xlink:href="#ArialMT-65" x="88.916016"/>
      <use xlink:href="#ArialMT-63" x="144.53125"/>
      <use xlink:href="#ArialMT-74" x="194.53125"/>
      <use xlink:href="#ArialMT-72" x="222.314453"/>
      <use xlink:href="#ArialMT-69" x="255.615234"/>
      <use xlink:href="#ArialMT-63" x="277.832031"/>
      <use xlink:href="#ArialMT-69" x="327.832031"/>
      <use xlink:href="#ArialMT-74" x="350.048828"/>
      <use xlink:href="#ArialMT-79" x="377.832031"/>
      <use xlink:href="#ArialMT-20" x="427.832031"/>
      <use xlink:href="#ArialMT-64" x="455.615234"/>
      <use xlink:href="#ArialMT-65" x="511.230469"/>
      <use xlink:href="#ArialMT-6d" x="566.845703"/>
      <use xlink:href="#ArialMT-61" x="650.146484"/>
      <use xlink:href="#ArialMT-6e" x="705.761719"/>
      <use xlink:href="#ArialMT-64" x="761.376953"/>
      <use xlink:href="#ArialMT-20" x="816.992188"/>
      <use xlink:href="#ArialMT-63" x="844.775391"/>
      <use xlink:href="#ArialMT-75" x="894.775391"/>
      <use xlink:href="#ArialMT-72" x="950.390625"/>
      <use xlink:href="#ArialMT-76" x="983.691406"/>
      <use xlink:href="#ArialMT-65" x="1033.691406"/>
      <use xlink:href="#ArialMT-20" x="1089.306641"/>
      <use xlink:href="#ArialMT-69" x="1117.089844"/>
      <use xlink:href="#ArialMT-6e" x="1139.306641"/>
      <use xlink:href="#ArialMT-64" x="1194.921875"/>
      <use xlink:href="#ArialMT-75" x="1250.537109"/>
      <use xlink:href="#ArialMT-73" x="1306.152344"/>
      <use xlink:href="#ArialMT-74" x="1356.152344"/>
      <use xlink:href="#ArialMT-72" x="1383.935547"/>
      <use xlink:href="#ArialMT-69" x="1417.236328"/>
      <use xlink:href="#ArialMT-61" x="1439.453125"/>
      <use xlink:href="#ArialMT-6c" x="1495.068359"/>
      <use xlink:href="#ArialMT-20" x="1517.285156"/>
      <use xlink:href="#ArialMT-73" x="1545.068359"/>
      <use xlink:href="#ArialMT-69" x="1595.068359"/>
      <use xlink:href="#ArialMT-74" x="1617.285156"/>
      <use xlink:href="#ArialMT-65" x="1645.068359"/>
     </g>
    </g>
    <g id="line2d_38">
     <path d="M 346.439969 317.275128 
L 362.939969 317.275128 
L 379.439969 317.275128 
" style="fill: none; stroke: #d62728; stroke-width: 2.5; stroke-linecap: round"/>
    </g>
    <g id="text_35">
     <!-- Uncontrolled charging (UCC) -->
     <g style="fill: #262626" transform="translate(392.639969 323.050128) scale(0.165 -0.165)">
      <defs>
       <path id="ArialMT-55" d="M 3500 4581 
L 4106 4581 
L 4106 1934 
Q 4106 1244 3950 837 
Q 3794 431 3386 176 
Q 2978 -78 2316 -78 
Q 1672 -78 1262 144 
Q 853 366 678 786 
Q 503 1206 503 1934 
L 503 4581 
L 1109 4581 
L 1109 1938 
Q 1109 1341 1220 1058 
Q 1331 775 1601 622 
Q 1872 469 2263 469 
Q 2931 469 3215 772 
Q 3500 1075 3500 1938 
L 3500 4581 
z
" transform="scale(0.015625)"/>
       <path id="ArialMT-67" d="M 319 -275 
L 866 -356 
Q 900 -609 1056 -725 
Q 1266 -881 1628 -881 
Q 2019 -881 2231 -725 
Q 2444 -569 2519 -288 
Q 2563 -116 2559 434 
Q 2191 0 1641 0 
Q 956 0 581 494 
Q 206 988 206 1678 
Q 206 2153 378 2554 
Q 550 2956 876 3175 
Q 1203 3394 1644 3394 
Q 2231 3394 2613 2919 
L 2613 3319 
L 3131 3319 
L 3131 450 
Q 3131 -325 2973 -648 
Q 2816 -972 2473 -1159 
Q 2131 -1347 1631 -1347 
Q 1038 -1347 672 -1080 
Q 306 -813 319 -275 
z
M 784 1719 
Q 784 1066 1043 766 
Q 1303 466 1694 466 
Q 2081 466 2343 764 
Q 2606 1063 2606 1700 
Q 2606 2309 2336 2618 
Q 2066 2928 1684 2928 
Q 1309 2928 1046 2623 
Q 784 2319 784 1719 
z
" transform="scale(0.015625)"/>
       <path id="ArialMT-43" d="M 3763 1606 
L 4369 1453 
Q 4178 706 3683 314 
Q 3188 -78 2472 -78 
Q 1731 -78 1267 223 
Q 803 525 561 1097 
Q 319 1669 319 2325 
Q 319 3041 592 3573 
Q 866 4106 1370 4382 
Q 1875 4659 2481 4659 
Q 3169 4659 3637 4309 
Q 4106 3959 4291 3325 
L 3694 3184 
Q 3534 3684 3231 3912 
Q 2928 4141 2469 4141 
Q 1941 4141 1586 3887 
Q 1231 3634 1087 3207 
Q 944 2781 944 2328 
Q 944 1744 1114 1308 
Q 1284 872 1643 656 
Q 2003 441 2422 441 
Q 2931 441 3284 734 
Q 3638 1028 3763 1606 
z
" transform="scale(0.015625)"/>
      </defs>
      <use xlink:href="#ArialMT-55"/>
      <use xlink:href="#ArialMT-6e" x="72.216797"/>
      <use xlink:href="#ArialMT-63" x="127.832031"/>
      <use xlink:href="#ArialMT-6f" x="177.832031"/>
      <use xlink:href="#ArialMT-6e" x="233.447266"/>
      <use xlink:href="#ArialMT-74" x="289.0625"/>
      <use xlink:href="#ArialMT-72" x="316.845703"/>
      <use xlink:href="#ArialMT-6f" x="350.146484"/>
      <use xlink:href="#ArialMT-6c" x="405.761719"/>
      <use xlink:href="#ArialMT-6c" x="427.978516"/>
      <use xlink:href="#ArialMT-65" x="450.195312"/>
      <use xlink:href="#ArialMT-64" x="505.810547"/>
      <use xlink:href="#ArialMT-20" x="561.425781"/>
      <use xlink:href="#ArialMT-63" x="589.208984"/>
      <use xlink:href="#ArialMT-68" x="639.208984"/>
      <use xlink:href="#ArialMT-61" x="694.824219"/>
      <use xlink:href="#ArialMT-72" x="750.439453"/>
      <use xlink:href="#ArialMT-67" x="783.740234"/>
      <use xlink:href="#ArialMT-69" x="839.355469"/>
      <use xlink:href="#ArialMT-6e" x="861.572266"/>
      <use xlink:href="#ArialMT-67" x="917.1875"/>
      <use xlink:href="#ArialMT-20" x="972.802734"/>
      <use xlink:href="#ArialMT-28" x="1000.585938"/>
      <use xlink:href="#ArialMT-55" x="1033.886719"/>
      <use xlink:href="#ArialMT-43" x="1106.103516"/>
      <use xlink:href="#ArialMT-43" x="1178.320312"/>
      <use xlink:href="#ArialMT-29" x="1250.537109"/>
     </g>
    </g>
    <g id="line2d_39">
     <path d="M 346.439969 341.009347 
L 362.939969 341.009347 
L 379.439969 341.009347 
" style="fill: none; stroke: #1f77b4; stroke-width: 2.5; stroke-linecap: round"/>
    </g>
    <g id="text_36">
     <!-- Smart charging (SC) -->
     <g style="fill: #262626" transform="translate(392.639969 346.784347) scale(0.165 -0.165)">
      <defs>
       <path id="ArialMT-53" d="M 288 1472 
L 859 1522 
Q 900 1178 1048 958 
Q 1197 738 1509 602 
Q 1822 466 2213 466 
Q 2559 466 2825 569 
Q 3091 672 3220 851 
Q 3350 1031 3350 1244 
Q 3350 1459 3225 1620 
Q 3100 1781 2813 1891 
Q 2628 1963 1997 2114 
Q 1366 2266 1113 2400 
Q 784 2572 623 2826 
Q 463 3081 463 3397 
Q 463 3744 659 4045 
Q 856 4347 1234 4503 
Q 1613 4659 2075 4659 
Q 2584 4659 2973 4495 
Q 3363 4331 3572 4012 
Q 3781 3694 3797 3291 
L 3216 3247 
Q 3169 3681 2898 3903 
Q 2628 4125 2100 4125 
Q 1550 4125 1298 3923 
Q 1047 3722 1047 3438 
Q 1047 3191 1225 3031 
Q 1400 2872 2139 2705 
Q 2878 2538 3153 2413 
Q 3553 2228 3743 1945 
Q 3934 1663 3934 1294 
Q 3934 928 3725 604 
Q 3516 281 3123 101 
Q 2731 -78 2241 -78 
Q 1619 -78 1198 103 
Q 778 284 539 648 
Q 300 1013 288 1472 
z
" transform="scale(0.015625)"/>
      </defs>
      <use xlink:href="#ArialMT-53"/>
      <use xlink:href="#ArialMT-6d" x="66.699219"/>
      <use xlink:href="#ArialMT-61" x="150"/>
      <use xlink:href="#ArialMT-72" x="205.615234"/>
      <use xlink:href="#ArialMT-74" x="238.916016"/>
      <use xlink:href="#ArialMT-20" x="266.699219"/>
      <use xlink:href="#ArialMT-63" x="294.482422"/>
      <use xlink:href="#ArialMT-68" x="344.482422"/>
      <use xlink:href="#ArialMT-61" x="400.097656"/>
      <use xlink:href="#ArialMT-72" x="455.712891"/>
      <use xlink:href="#ArialMT-67" x="489.013672"/>
      <use xlink:href="#ArialMT-69" x="544.628906"/>
      <use xlink:href="#ArialMT-6e" x="566.845703"/>
      <use xlink:href="#ArialMT-67" x="622.460938"/>
      <use xlink:href="#ArialMT-20" x="678.076172"/>
      <use xlink:href="#ArialMT-28" x="705.859375"/>
      <use xlink:href="#ArialMT-53" x="739.160156"/>
      <use xlink:href="#ArialMT-43" x="805.859375"/>
      <use xlink:href="#ArialMT-29" x="878.076172"/>
     </g>
    </g>
   </g>
  </g>
 </g>
 <defs>
  <clipPath id="pd23d8ff8df">
   <rect x="71.01" y="18" width="617.077938" height="347.107081"/>
  </clipPath>
 </defs>
</svg>
