<?xml version="1.0" encoding="utf-8" standalone="no"?>
<!DOCTYPE svg PUBLIC "-//W3C//DTD SVG 1.1//EN"
  "http://www.w3.org/Graphics/SVG/1.1/DTD/svg11.dtd">
<svg xmlns:xlink="http://www.w3.org/1999/xlink" width="1080pt" height="648pt" viewBox="0 0 1080 648" xmlns="http://www.w3.org/2000/svg" version="1.1">
 <metadata>
  <rdf:RDF xmlns:dc="http://purl.org/dc/elements/1.1/" xmlns:cc="http://creativecommons.org/ns#" xmlns:rdf="http://www.w3.org/1999/02/22-rdf-syntax-ns#">
   <cc:Work>
    <dc:type rdf:resource="http://purl.org/dc/dcmitype/StillImage"/>
    <dc:date>2024-12-09T15:15:55.254805</dc:date>
    <dc:format>image/svg+xml</dc:format>
    <dc:creator>
     <cc:Agent>
      <dc:title>Matplotlib v3.9.2, https://matplotlib.org/</dc:title>
     </cc:Agent>
    </dc:creator>
   </cc:Work>
  </rdf:RDF>
 </metadata>
 <defs>
  <style type="text/css">*{stroke-linejoin: round; stroke-linecap: butt}</style>
 </defs>
 <g id="figure_1">
  <g id="patch_1">
   <path d="M 0 648 
L 1080 648 
L 1080 0 
L 0 0 
z
" style="fill: #ffffff"/>
  </g>
  <g id="axes_1">
   <g id="patch_2">
    <path d="M 86.58 531.591059 
L 1062 531.591059 
L 1062 18 
L 86.58 18 
z
" style="fill: #eaeaf2"/>
   </g>
   <g id="matplotlib.axis_1">
    <g id="xtick_1">
     <g id="line2d_1">
      <path d="M 130.917273 531.591059 
L 130.917273 18 
" clip-path="url(#pef00828d37)" style="fill: none; stroke: #ffffff; stroke-linecap: round"/>
     </g>
     <g id="text_1">
      <!-- 01.02.2023 -->
      <g style="fill: #262626" transform="translate(104.739765 607.82962) rotate(-45) scale(0.165 -0.165)">
       <defs>
        <path id="ArialMT-30" d="M 266 2259 
Q 266 3072 433 3567 
Q 600 4063 929 4331 
Q 1259 4600 1759 4600 
Q 2128 4600 2406 4451 
Q 2684 4303 2865 4023 
Q 3047 3744 3150 3342 
Q 3253 2941 3253 2259 
Q 3253 1453 3087 958 
Q 2922 463 2592 192 
Q 2263 -78 1759 -78 
Q 1097 -78 719 397 
Q 266 969 266 2259 
z
M 844 2259 
Q 844 1131 1108 757 
Q 1372 384 1759 384 
Q 2147 384 2411 759 
Q 2675 1134 2675 2259 
Q 2675 3391 2411 3762 
Q 2147 4134 1753 4134 
Q 1366 4134 1134 3806 
Q 844 3388 844 2259 
z
" transform="scale(0.015625)"/>
        <path id="ArialMT-31" d="M 2384 0 
L 1822 0 
L 1822 3584 
Q 1619 3391 1289 3197 
Q 959 3003 697 2906 
L 697 3450 
Q 1169 3672 1522 3987 
Q 1875 4303 2022 4600 
L 2384 4600 
L 2384 0 
z
" transform="scale(0.015625)"/>
        <path id="ArialMT-2e" d="M 581 0 
L 581 641 
L 1222 641 
L 1222 0 
L 581 0 
z
" transform="scale(0.015625)"/>
        <path id="ArialMT-32" d="M 3222 541 
L 3222 0 
L 194 0 
Q 188 203 259 391 
Q 375 700 629 1000 
Q 884 1300 1366 1694 
Q 2113 2306 2375 2664 
Q 2638 3022 2638 3341 
Q 2638 3675 2398 3904 
Q 2159 4134 1775 4134 
Q 1369 4134 1125 3890 
Q 881 3647 878 3216 
L 300 3275 
Q 359 3922 746 4261 
Q 1134 4600 1788 4600 
Q 2447 4600 2831 4234 
Q 3216 3869 3216 3328 
Q 3216 3053 3103 2787 
Q 2991 2522 2730 2228 
Q 2469 1934 1863 1422 
Q 1356 997 1212 845 
Q 1069 694 975 541 
L 3222 541 
z
" transform="scale(0.015625)"/>
        <path id="ArialMT-33" d="M 269 1209 
L 831 1284 
Q 928 806 1161 595 
Q 1394 384 1728 384 
Q 2125 384 2398 659 
Q 2672 934 2672 1341 
Q 2672 1728 2419 1979 
Q 2166 2231 1775 2231 
Q 1616 2231 1378 2169 
L 1441 2663 
Q 1497 2656 1531 2656 
Q 1891 2656 2178 2843 
Q 2466 3031 2466 3422 
Q 2466 3731 2256 3934 
Q 2047 4138 1716 4138 
Q 1388 4138 1169 3931 
Q 950 3725 888 3313 
L 325 3413 
Q 428 3978 793 4289 
Q 1159 4600 1703 4600 
Q 2078 4600 2393 4439 
Q 2709 4278 2876 4000 
Q 3044 3722 3044 3409 
Q 3044 3113 2884 2869 
Q 2725 2625 2413 2481 
Q 2819 2388 3044 2092 
Q 3269 1797 3269 1353 
Q 3269 753 2831 336 
Q 2394 -81 1725 -81 
Q 1122 -81 723 278 
Q 325 638 269 1209 
z
" transform="scale(0.015625)"/>
       </defs>
       <use xlink:href="#ArialMT-30"/>
       <use xlink:href="#ArialMT-31" x="55.615234"/>
       <use xlink:href="#ArialMT-2e" x="111.230469"/>
       <use xlink:href="#ArialMT-30" x="139.013672"/>
       <use xlink:href="#ArialMT-32" x="194.628906"/>
       <use xlink:href="#ArialMT-2e" x="250.244141"/>
       <use xlink:href="#ArialMT-32" x="278.027344"/>
       <use xlink:href="#ArialMT-30" x="333.642578"/>
       <use xlink:href="#ArialMT-32" x="389.257812"/>
       <use xlink:href="#ArialMT-33" x="444.873047"/>
      </g>
     </g>
    </g>
    <g id="xtick_2">
     <g id="line2d_2">
      <path d="M 163.759697 531.591059 
L 163.759697 18 
" clip-path="url(#pef00828d37)" style="fill: none; stroke: #ffffff; stroke-linecap: round"/>
     </g>
     <g id="text_2">
      <!-- 02.02.2023 -->
      <g style="fill: #262626" transform="translate(137.58219 607.82962) rotate(-45) scale(0.165 -0.165)">
       <use xlink:href="#ArialMT-30"/>
       <use xlink:href="#ArialMT-32" x="55.615234"/>
       <use xlink:href="#ArialMT-2e" x="111.230469"/>
       <use xlink:href="#ArialMT-30" x="139.013672"/>
       <use xlink:href="#ArialMT-32" x="194.628906"/>
       <use xlink:href="#ArialMT-2e" x="250.244141"/>
       <use xlink:href="#ArialMT-32" x="278.027344"/>
       <use xlink:href="#ArialMT-30" x="333.642578"/>
       <use xlink:href="#ArialMT-32" x="389.257812"/>
       <use xlink:href="#ArialMT-33" x="444.873047"/>
      </g>
     </g>
    </g>
    <g id="xtick_3">
     <g id="line2d_3">
      <path d="M 196.602121 531.591059 
L 196.602121 18 
" clip-path="url(#pef00828d37)" style="fill: none; stroke: #ffffff; stroke-linecap: round"/>
     </g>
     <g id="text_3">
      <!-- 03.02.2023 -->
      <g style="fill: #262626" transform="translate(170.424614 607.82962) rotate(-45) scale(0.165 -0.165)">
       <use xlink:href="#ArialMT-30"/>
       <use xlink:href="#ArialMT-33" x="55.615234"/>
       <use xlink:href="#ArialMT-2e" x="111.230469"/>
       <use xlink:href="#ArialMT-30" x="139.013672"/>
       <use xlink:href="#ArialMT-32" x="194.628906"/>
       <use xlink:href="#ArialMT-2e" x="250.244141"/>
       <use xlink:href="#ArialMT-32" x="278.027344"/>
       <use xlink:href="#ArialMT-30" x="333.642578"/>
       <use xlink:href="#ArialMT-32" x="389.257812"/>
       <use xlink:href="#ArialMT-33" x="444.873047"/>
      </g>
     </g>
    </g>
    <g id="xtick_4">
     <g id="line2d_4">
      <path d="M 229.444545 531.591059 
L 229.444545 18 
" clip-path="url(#pef00828d37)" style="fill: none; stroke: #ffffff; stroke-linecap: round"/>
     </g>
     <g id="text_4">
      <!-- 04.02.2023 -->
      <g style="fill: #262626" transform="translate(203.267038 607.82962) rotate(-45) scale(0.165 -0.165)">
       <defs>
        <path id="ArialMT-34" d="M 2069 0 
L 2069 1097 
L 81 1097 
L 81 1613 
L 2172 4581 
L 2631 4581 
L 2631 1613 
L 3250 1613 
L 3250 1097 
L 2631 1097 
L 2631 0 
L 2069 0 
z
M 2069 1613 
L 2069 3678 
L 634 1613 
L 2069 1613 
z
" transform="scale(0.015625)"/>
       </defs>
       <use xlink:href="#ArialMT-30"/>
       <use xlink:href="#ArialMT-34" x="55.615234"/>
       <use xlink:href="#ArialMT-2e" x="111.230469"/>
       <use xlink:href="#ArialMT-30" x="139.013672"/>
       <use xlink:href="#ArialMT-32" x="194.628906"/>
       <use xlink:href="#ArialMT-2e" x="250.244141"/>
       <use xlink:href="#ArialMT-32" x="278.027344"/>
       <use xlink:href="#ArialMT-30" x="333.642578"/>
       <use xlink:href="#ArialMT-32" x="389.257812"/>
       <use xlink:href="#ArialMT-33" x="444.873047"/>
      </g>
     </g>
    </g>
    <g id="xtick_5">
     <g id="line2d_5">
      <path d="M 262.28697 531.591059 
L 262.28697 18 
" clip-path="url(#pef00828d37)" style="fill: none; stroke: #ffffff; stroke-linecap: round"/>
     </g>
     <g id="text_5">
      <!-- 05.02.2023 -->
      <g style="fill: #262626" transform="translate(236.109462 607.82962) rotate(-45) scale(0.165 -0.165)">
       <defs>
        <path id="ArialMT-35" d="M 266 1200 
L 856 1250 
Q 922 819 1161 601 
Q 1400 384 1738 384 
Q 2144 384 2425 690 
Q 2706 997 2706 1503 
Q 2706 1984 2436 2262 
Q 2166 2541 1728 2541 
Q 1456 2541 1237 2417 
Q 1019 2294 894 2097 
L 366 2166 
L 809 4519 
L 3088 4519 
L 3088 3981 
L 1259 3981 
L 1013 2750 
Q 1425 3038 1878 3038 
Q 2478 3038 2890 2622 
Q 3303 2206 3303 1553 
Q 3303 931 2941 478 
Q 2500 -78 1738 -78 
Q 1113 -78 717 272 
Q 322 622 266 1200 
z
" transform="scale(0.015625)"/>
       </defs>
       <use xlink:href="#ArialMT-30"/>
       <use xlink:href="#ArialMT-35" x="55.615234"/>
       <use xlink:href="#ArialMT-2e" x="111.230469"/>
       <use xlink:href="#ArialMT-30" x="139.013672"/>
       <use xlink:href="#ArialMT-32" x="194.628906"/>
       <use xlink:href="#ArialMT-2e" x="250.244141"/>
       <use xlink:href="#ArialMT-32" x="278.027344"/>
       <use xlink:href="#ArialMT-30" x="333.642578"/>
       <use xlink:href="#ArialMT-32" x="389.257812"/>
       <use xlink:href="#ArialMT-33" x="444.873047"/>
      </g>
     </g>
    </g>
    <g id="xtick_6">
     <g id="line2d_6">
      <path d="M 295.129394 531.591059 
L 295.129394 18 
" clip-path="url(#pef00828d37)" style="fill: none; stroke: #ffffff; stroke-linecap: round"/>
     </g>
     <g id="text_6">
      <!-- 06.02.2023 -->
      <g style="fill: #262626" transform="translate(268.951887 607.82962) rotate(-45) scale(0.165 -0.165)">
       <defs>
        <path id="ArialMT-36" d="M 3184 3459 
L 2625 3416 
Q 2550 3747 2413 3897 
Q 2184 4138 1850 4138 
Q 1581 4138 1378 3988 
Q 1113 3794 959 3422 
Q 806 3050 800 2363 
Q 1003 2672 1297 2822 
Q 1591 2972 1913 2972 
Q 2475 2972 2870 2558 
Q 3266 2144 3266 1488 
Q 3266 1056 3080 686 
Q 2894 316 2569 119 
Q 2244 -78 1831 -78 
Q 1128 -78 684 439 
Q 241 956 241 2144 
Q 241 3472 731 4075 
Q 1159 4600 1884 4600 
Q 2425 4600 2770 4297 
Q 3116 3994 3184 3459 
z
M 888 1484 
Q 888 1194 1011 928 
Q 1134 663 1356 523 
Q 1578 384 1822 384 
Q 2178 384 2434 671 
Q 2691 959 2691 1453 
Q 2691 1928 2437 2201 
Q 2184 2475 1800 2475 
Q 1419 2475 1153 2201 
Q 888 1928 888 1484 
z
" transform="scale(0.015625)"/>
       </defs>
       <use xlink:href="#ArialMT-30"/>
       <use xlink:href="#ArialMT-36" x="55.615234"/>
       <use xlink:href="#ArialMT-2e" x="111.230469"/>
       <use xlink:href="#ArialMT-30" x="139.013672"/>
       <use xlink:href="#ArialMT-32" x="194.628906"/>
       <use xlink:href="#ArialMT-2e" x="250.244141"/>
       <use xlink:href="#ArialMT-32" x="278.027344"/>
       <use xlink:href="#ArialMT-30" x="333.642578"/>
       <use xlink:href="#ArialMT-32" x="389.257812"/>
       <use xlink:href="#ArialMT-33" x="444.873047"/>
      </g>
     </g>
    </g>
    <g id="xtick_7">
     <g id="line2d_7">
      <path d="M 327.971818 531.591059 
L 327.971818 18 
" clip-path="url(#pef00828d37)" style="fill: none; stroke: #ffffff; stroke-linecap: round"/>
     </g>
     <g id="text_7">
      <!-- 07.02.2023 -->
      <g style="fill: #262626" transform="translate(301.794311 607.82962) rotate(-45) scale(0.165 -0.165)">
       <defs>
        <path id="ArialMT-37" d="M 303 3981 
L 303 4522 
L 3269 4522 
L 3269 4084 
Q 2831 3619 2401 2847 
Q 1972 2075 1738 1259 
Q 1569 684 1522 0 
L 944 0 
Q 953 541 1156 1306 
Q 1359 2072 1739 2783 
Q 2119 3494 2547 3981 
L 303 3981 
z
" transform="scale(0.015625)"/>
       </defs>
       <use xlink:href="#ArialMT-30"/>
       <use xlink:href="#ArialMT-37" x="55.615234"/>
       <use xlink:href="#ArialMT-2e" x="111.230469"/>
       <use xlink:href="#ArialMT-30" x="139.013672"/>
       <use xlink:href="#ArialMT-32" x="194.628906"/>
       <use xlink:href="#ArialMT-2e" x="250.244141"/>
       <use xlink:href="#ArialMT-32" x="278.027344"/>
       <use xlink:href="#ArialMT-30" x="333.642578"/>
       <use xlink:href="#ArialMT-32" x="389.257812"/>
       <use xlink:href="#ArialMT-33" x="444.873047"/>
      </g>
     </g>
    </g>
    <g id="xtick_8">
     <g id="line2d_8">
      <path d="M 360.814242 531.591059 
L 360.814242 18 
" clip-path="url(#pef00828d37)" style="fill: none; stroke: #ffffff; stroke-linecap: round"/>
     </g>
     <g id="text_8">
      <!-- 08.02.2023 -->
      <g style="fill: #262626" transform="translate(334.636735 607.82962) rotate(-45) scale(0.165 -0.165)">
       <defs>
        <path id="ArialMT-38" d="M 1131 2484 
Q 781 2613 612 2850 
Q 444 3088 444 3419 
Q 444 3919 803 4259 
Q 1163 4600 1759 4600 
Q 2359 4600 2725 4251 
Q 3091 3903 3091 3403 
Q 3091 3084 2923 2848 
Q 2756 2613 2416 2484 
Q 2838 2347 3058 2040 
Q 3278 1734 3278 1309 
Q 3278 722 2862 322 
Q 2447 -78 1769 -78 
Q 1091 -78 675 323 
Q 259 725 259 1325 
Q 259 1772 486 2073 
Q 713 2375 1131 2484 
z
M 1019 3438 
Q 1019 3113 1228 2906 
Q 1438 2700 1772 2700 
Q 2097 2700 2305 2904 
Q 2513 3109 2513 3406 
Q 2513 3716 2298 3927 
Q 2084 4138 1766 4138 
Q 1444 4138 1231 3931 
Q 1019 3725 1019 3438 
z
M 838 1322 
Q 838 1081 952 856 
Q 1066 631 1291 507 
Q 1516 384 1775 384 
Q 2178 384 2440 643 
Q 2703 903 2703 1303 
Q 2703 1709 2433 1975 
Q 2163 2241 1756 2241 
Q 1359 2241 1098 1978 
Q 838 1716 838 1322 
z
" transform="scale(0.015625)"/>
       </defs>
       <use xlink:href="#ArialMT-30"/>
       <use xlink:href="#ArialMT-38" x="55.615234"/>
       <use xlink:href="#ArialMT-2e" x="111.230469"/>
       <use xlink:href="#ArialMT-30" x="139.013672"/>
       <use xlink:href="#ArialMT-32" x="194.628906"/>
       <use xlink:href="#ArialMT-2e" x="250.244141"/>
       <use xlink:href="#ArialMT-32" x="278.027344"/>
       <use xlink:href="#ArialMT-30" x="333.642578"/>
       <use xlink:href="#ArialMT-32" x="389.257812"/>
       <use xlink:href="#ArialMT-33" x="444.873047"/>
      </g>
     </g>
    </g>
    <g id="xtick_9">
     <g id="line2d_9">
      <path d="M 393.656667 531.591059 
L 393.656667 18 
" clip-path="url(#pef00828d37)" style="fill: none; stroke: #ffffff; stroke-linecap: round"/>
     </g>
     <g id="text_9">
      <!-- 09.02.2023 -->
      <g style="fill: #262626" transform="translate(367.479159 607.82962) rotate(-45) scale(0.165 -0.165)">
       <defs>
        <path id="ArialMT-39" d="M 350 1059 
L 891 1109 
Q 959 728 1153 556 
Q 1347 384 1650 384 
Q 1909 384 2104 503 
Q 2300 622 2425 820 
Q 2550 1019 2634 1356 
Q 2719 1694 2719 2044 
Q 2719 2081 2716 2156 
Q 2547 1888 2255 1720 
Q 1963 1553 1622 1553 
Q 1053 1553 659 1965 
Q 266 2378 266 3053 
Q 266 3750 677 4175 
Q 1088 4600 1706 4600 
Q 2153 4600 2523 4359 
Q 2894 4119 3086 3673 
Q 3278 3228 3278 2384 
Q 3278 1506 3087 986 
Q 2897 466 2520 194 
Q 2144 -78 1638 -78 
Q 1100 -78 759 220 
Q 419 519 350 1059 
z
M 2653 3081 
Q 2653 3566 2395 3850 
Q 2138 4134 1775 4134 
Q 1400 4134 1122 3828 
Q 844 3522 844 3034 
Q 844 2597 1108 2323 
Q 1372 2050 1759 2050 
Q 2150 2050 2401 2323 
Q 2653 2597 2653 3081 
z
" transform="scale(0.015625)"/>
       </defs>
       <use xlink:href="#ArialMT-30"/>
       <use xlink:href="#ArialMT-39" x="55.615234"/>
       <use xlink:href="#ArialMT-2e" x="111.230469"/>
       <use xlink:href="#ArialMT-30" x="139.013672"/>
       <use xlink:href="#ArialMT-32" x="194.628906"/>
       <use xlink:href="#ArialMT-2e" x="250.244141"/>
       <use xlink:href="#ArialMT-32" x="278.027344"/>
       <use xlink:href="#ArialMT-30" x="333.642578"/>
       <use xlink:href="#ArialMT-32" x="389.257812"/>
       <use xlink:href="#ArialMT-33" x="444.873047"/>
      </g>
     </g>
    </g>
    <g id="xtick_10">
     <g id="line2d_10">
      <path d="M 426.499091 531.591059 
L 426.499091 18 
" clip-path="url(#pef00828d37)" style="fill: none; stroke: #ffffff; stroke-linecap: round"/>
     </g>
     <g id="text_10">
      <!-- 10.02.2023 -->
      <g style="fill: #262626" transform="translate(400.321584 607.82962) rotate(-45) scale(0.165 -0.165)">
       <use xlink:href="#ArialMT-31"/>
       <use xlink:href="#ArialMT-30" x="55.615234"/>
       <use xlink:href="#ArialMT-2e" x="111.230469"/>
       <use xlink:href="#ArialMT-30" x="139.013672"/>
       <use xlink:href="#ArialMT-32" x="194.628906"/>
       <use xlink:href="#ArialMT-2e" x="250.244141"/>
       <use xlink:href="#ArialMT-32" x="278.027344"/>
       <use xlink:href="#ArialMT-30" x="333.642578"/>
       <use xlink:href="#ArialMT-32" x="389.257812"/>
       <use xlink:href="#ArialMT-33" x="444.873047"/>
      </g>
     </g>
    </g>
    <g id="xtick_11">
     <g id="line2d_11">
      <path d="M 459.341515 531.591059 
L 459.341515 18 
" clip-path="url(#pef00828d37)" style="fill: none; stroke: #ffffff; stroke-linecap: round"/>
     </g>
     <g id="text_11">
      <!-- 11.02.2023 -->
      <g style="fill: #262626" transform="translate(433.594238 606.969159) rotate(-45) scale(0.165 -0.165)">
       <use xlink:href="#ArialMT-31"/>
       <use xlink:href="#ArialMT-31" x="48.240234"/>
       <use xlink:href="#ArialMT-2e" x="103.855469"/>
       <use xlink:href="#ArialMT-30" x="131.638672"/>
       <use xlink:href="#ArialMT-32" x="187.253906"/>
       <use xlink:href="#ArialMT-2e" x="242.869141"/>
       <use xlink:href="#ArialMT-32" x="270.652344"/>
       <use xlink:href="#ArialMT-30" x="326.267578"/>
       <use xlink:href="#ArialMT-32" x="381.882812"/>
       <use xlink:href="#ArialMT-33" x="437.498047"/>
      </g>
     </g>
    </g>
    <g id="xtick_12">
     <g id="line2d_12">
      <path d="M 492.183939 531.591059 
L 492.183939 18 
" clip-path="url(#pef00828d37)" style="fill: none; stroke: #ffffff; stroke-linecap: round"/>
     </g>
     <g id="text_12">
      <!-- 12.02.2023 -->
      <g style="fill: #262626" transform="translate(466.006432 607.82962) rotate(-45) scale(0.165 -0.165)">
       <use xlink:href="#ArialMT-31"/>
       <use xlink:href="#ArialMT-32" x="55.615234"/>
       <use xlink:href="#ArialMT-2e" x="111.230469"/>
       <use xlink:href="#ArialMT-30" x="139.013672"/>
       <use xlink:href="#ArialMT-32" x="194.628906"/>
       <use xlink:href="#ArialMT-2e" x="250.244141"/>
       <use xlink:href="#ArialMT-32" x="278.027344"/>
       <use xlink:href="#ArialMT-30" x="333.642578"/>
       <use xlink:href="#ArialMT-32" x="389.257812"/>
       <use xlink:href="#ArialMT-33" x="444.873047"/>
      </g>
     </g>
    </g>
    <g id="xtick_13">
     <g id="line2d_13">
      <path d="M 525.026364 531.591059 
L 525.026364 18 
" clip-path="url(#pef00828d37)" style="fill: none; stroke: #ffffff; stroke-linecap: round"/>
     </g>
     <g id="text_13">
      <!-- 13.02.2023 -->
      <g style="fill: #262626" transform="translate(498.848856 607.82962) rotate(-45) scale(0.165 -0.165)">
       <use xlink:href="#ArialMT-31"/>
       <use xlink:href="#ArialMT-33" x="55.615234"/>
       <use xlink:href="#ArialMT-2e" x="111.230469"/>
       <use xlink:href="#ArialMT-30" x="139.013672"/>
       <use xlink:href="#ArialMT-32" x="194.628906"/>
       <use xlink:href="#ArialMT-2e" x="250.244141"/>
       <use xlink:href="#ArialMT-32" x="278.027344"/>
       <use xlink:href="#ArialMT-30" x="333.642578"/>
       <use xlink:href="#ArialMT-32" x="389.257812"/>
       <use xlink:href="#ArialMT-33" x="444.873047"/>
      </g>
     </g>
    </g>
    <g id="xtick_14">
     <g id="line2d_14">
      <path d="M 557.868788 531.591059 
L 557.868788 18 
" clip-path="url(#pef00828d37)" style="fill: none; stroke: #ffffff; stroke-linecap: round"/>
     </g>
     <g id="text_14">
      <!-- 14.02.2023 -->
      <g style="fill: #262626" transform="translate(531.691281 607.82962) rotate(-45) scale(0.165 -0.165)">
       <use xlink:href="#ArialMT-31"/>
       <use xlink:href="#ArialMT-34" x="55.615234"/>
       <use xlink:href="#ArialMT-2e" x="111.230469"/>
       <use xlink:href="#ArialMT-30" x="139.013672"/>
       <use xlink:href="#ArialMT-32" x="194.628906"/>
       <use xlink:href="#ArialMT-2e" x="250.244141"/>
       <use xlink:href="#ArialMT-32" x="278.027344"/>
       <use xlink:href="#ArialMT-30" x="333.642578"/>
       <use xlink:href="#ArialMT-32" x="389.257812"/>
       <use xlink:href="#ArialMT-33" x="444.873047"/>
      </g>
     </g>
    </g>
    <g id="xtick_15">
     <g id="line2d_15">
      <path d="M 590.711212 531.591059 
L 590.711212 18 
" clip-path="url(#pef00828d37)" style="fill: none; stroke: #ffffff; stroke-linecap: round"/>
     </g>
     <g id="text_15">
      <!-- 15.02.2023 -->
      <g style="fill: #262626" transform="translate(564.533705 607.82962) rotate(-45) scale(0.165 -0.165)">
       <use xlink:href="#ArialMT-31"/>
       <use xlink:href="#ArialMT-35" x="55.615234"/>
       <use xlink:href="#ArialMT-2e" x="111.230469"/>
       <use xlink:href="#ArialMT-30" x="139.013672"/>
       <use xlink:href="#ArialMT-32" x="194.628906"/>
       <use xlink:href="#ArialMT-2e" x="250.244141"/>
       <use xlink:href="#ArialMT-32" x="278.027344"/>
       <use xlink:href="#ArialMT-30" x="333.642578"/>
       <use xlink:href="#ArialMT-32" x="389.257812"/>
       <use xlink:href="#ArialMT-33" x="444.873047"/>
      </g>
     </g>
    </g>
    <g id="xtick_16">
     <g id="line2d_16">
      <path d="M 623.553636 531.591059 
L 623.553636 18 
" clip-path="url(#pef00828d37)" style="fill: none; stroke: #ffffff; stroke-linecap: round"/>
     </g>
     <g id="text_16">
      <!-- 16.02.2023 -->
      <g style="fill: #262626" transform="translate(597.376129 607.82962) rotate(-45) scale(0.165 -0.165)">
       <use xlink:href="#ArialMT-31"/>
       <use xlink:href="#ArialMT-36" x="55.615234"/>
       <use xlink:href="#ArialMT-2e" x="111.230469"/>
       <use xlink:href="#ArialMT-30" x="139.013672"/>
       <use xlink:href="#ArialMT-32" x="194.628906"/>
       <use xlink:href="#ArialMT-2e" x="250.244141"/>
       <use xlink:href="#ArialMT-32" x="278.027344"/>
       <use xlink:href="#ArialMT-30" x="333.642578"/>
       <use xlink:href="#ArialMT-32" x="389.257812"/>
       <use xlink:href="#ArialMT-33" x="444.873047"/>
      </g>
     </g>
    </g>
    <g id="xtick_17">
     <g id="line2d_17">
      <path d="M 656.396061 531.591059 
L 656.396061 18 
" clip-path="url(#pef00828d37)" style="fill: none; stroke: #ffffff; stroke-linecap: round"/>
     </g>
     <g id="text_17">
      <!-- 17.02.2023 -->
      <g style="fill: #262626" transform="translate(630.218553 607.82962) rotate(-45) scale(0.165 -0.165)">
       <use xlink:href="#ArialMT-31"/>
       <use xlink:href="#ArialMT-37" x="55.615234"/>
       <use xlink:href="#ArialMT-2e" x="111.230469"/>
       <use xlink:href="#ArialMT-30" x="139.013672"/>
       <use xlink:href="#ArialMT-32" x="194.628906"/>
       <use xlink:href="#ArialMT-2e" x="250.244141"/>
       <use xlink:href="#ArialMT-32" x="278.027344"/>
       <use xlink:href="#ArialMT-30" x="333.642578"/>
       <use xlink:href="#ArialMT-32" x="389.257812"/>
       <use xlink:href="#ArialMT-33" x="444.873047"/>
      </g>
     </g>
    </g>
    <g id="xtick_18">
     <g id="line2d_18">
      <path d="M 689.238485 531.591059 
L 689.238485 18 
" clip-path="url(#pef00828d37)" style="fill: none; stroke: #ffffff; stroke-linecap: round"/>
     </g>
     <g id="text_18">
      <!-- 18.02.2023 -->
      <g style="fill: #262626" transform="translate(663.060977 607.82962) rotate(-45) scale(0.165 -0.165)">
       <use xlink:href="#ArialMT-31"/>
       <use xlink:href="#ArialMT-38" x="55.615234"/>
       <use xlink:href="#ArialMT-2e" x="111.230469"/>
       <use xlink:href="#ArialMT-30" x="139.013672"/>
       <use xlink:href="#ArialMT-32" x="194.628906"/>
       <use xlink:href="#ArialMT-2e" x="250.244141"/>
       <use xlink:href="#ArialMT-32" x="278.027344"/>
       <use xlink:href="#ArialMT-30" x="333.642578"/>
       <use xlink:href="#ArialMT-32" x="389.257812"/>
       <use xlink:href="#ArialMT-33" x="444.873047"/>
      </g>
     </g>
    </g>
    <g id="xtick_19">
     <g id="line2d_19">
      <path d="M 722.080909 531.591059 
L 722.080909 18 
" clip-path="url(#pef00828d37)" style="fill: none; stroke: #ffffff; stroke-linecap: round"/>
     </g>
     <g id="text_19">
      <!-- 19.02.2023 -->
      <g style="fill: #262626" transform="translate(695.903402 607.82962) rotate(-45) scale(0.165 -0.165)">
       <use xlink:href="#ArialMT-31"/>
       <use xlink:href="#ArialMT-39" x="55.615234"/>
       <use xlink:href="#ArialMT-2e" x="111.230469"/>
       <use xlink:href="#ArialMT-30" x="139.013672"/>
       <use xlink:href="#ArialMT-32" x="194.628906"/>
       <use xlink:href="#ArialMT-2e" x="250.244141"/>
       <use xlink:href="#ArialMT-32" x="278.027344"/>
       <use xlink:href="#ArialMT-30" x="333.642578"/>
       <use xlink:href="#ArialMT-32" x="389.257812"/>
       <use xlink:href="#ArialMT-33" x="444.873047"/>
      </g>
     </g>
    </g>
    <g id="xtick_20">
     <g id="line2d_20">
      <path d="M 754.923333 531.591059 
L 754.923333 18 
" clip-path="url(#pef00828d37)" style="fill: none; stroke: #ffffff; stroke-linecap: round"/>
     </g>
     <g id="text_20">
      <!-- 20.02.2023 -->
      <g style="fill: #262626" transform="translate(728.745826 607.82962) rotate(-45) scale(0.165 -0.165)">
       <use xlink:href="#ArialMT-32"/>
       <use xlink:href="#ArialMT-30" x="55.615234"/>
       <use xlink:href="#ArialMT-2e" x="111.230469"/>
       <use xlink:href="#ArialMT-30" x="139.013672"/>
       <use xlink:href="#ArialMT-32" x="194.628906"/>
       <use xlink:href="#ArialMT-2e" x="250.244141"/>
       <use xlink:href="#ArialMT-32" x="278.027344"/>
       <use xlink:href="#ArialMT-30" x="333.642578"/>
       <use xlink:href="#ArialMT-32" x="389.257812"/>
       <use xlink:href="#ArialMT-33" x="444.873047"/>
      </g>
     </g>
    </g>
    <g id="xtick_21">
     <g id="line2d_21">
      <path d="M 787.765758 531.591059 
L 787.765758 18 
" clip-path="url(#pef00828d37)" style="fill: none; stroke: #ffffff; stroke-linecap: round"/>
     </g>
     <g id="text_21">
      <!-- 21.02.2023 -->
      <g style="fill: #262626" transform="translate(761.58825 607.82962) rotate(-45) scale(0.165 -0.165)">
       <use xlink:href="#ArialMT-32"/>
       <use xlink:href="#ArialMT-31" x="55.615234"/>
       <use xlink:href="#ArialMT-2e" x="111.230469"/>
       <use xlink:href="#ArialMT-30" x="139.013672"/>
       <use xlink:href="#ArialMT-32" x="194.628906"/>
       <use xlink:href="#ArialMT-2e" x="250.244141"/>
       <use xlink:href="#ArialMT-32" x="278.027344"/>
       <use xlink:href="#ArialMT-30" x="333.642578"/>
       <use xlink:href="#ArialMT-32" x="389.257812"/>
       <use xlink:href="#ArialMT-33" x="444.873047"/>
      </g>
     </g>
    </g>
    <g id="xtick_22">
     <g id="line2d_22">
      <path d="M 820.608182 531.591059 
L 820.608182 18 
" clip-path="url(#pef00828d37)" style="fill: none; stroke: #ffffff; stroke-linecap: round"/>
     </g>
     <g id="text_22">
      <!-- 22.02.2023 -->
      <g style="fill: #262626" transform="translate(794.430674 607.82962) rotate(-45) scale(0.165 -0.165)">
       <use xlink:href="#ArialMT-32"/>
       <use xlink:href="#ArialMT-32" x="55.615234"/>
       <use xlink:href="#ArialMT-2e" x="111.230469"/>
       <use xlink:href="#ArialMT-30" x="139.013672"/>
       <use xlink:href="#ArialMT-32" x="194.628906"/>
       <use xlink:href="#ArialMT-2e" x="250.244141"/>
       <use xlink:href="#ArialMT-32" x="278.027344"/>
       <use xlink:href="#ArialMT-30" x="333.642578"/>
       <use xlink:href="#ArialMT-32" x="389.257812"/>
       <use xlink:href="#ArialMT-33" x="444.873047"/>
      </g>
     </g>
    </g>
    <g id="xtick_23">
     <g id="line2d_23">
      <path d="M 853.450606 531.591059 
L 853.450606 18 
" clip-path="url(#pef00828d37)" style="fill: none; stroke: #ffffff; stroke-linecap: round"/>
     </g>
     <g id="text_23">
      <!-- 23.02.2023 -->
      <g style="fill: #262626" transform="translate(827.273099 607.82962) rotate(-45) scale(0.165 -0.165)">
       <use xlink:href="#ArialMT-32"/>
       <use xlink:href="#ArialMT-33" x="55.615234"/>
       <use xlink:href="#ArialMT-2e" x="111.230469"/>
       <use xlink:href="#ArialMT-30" x="139.013672"/>
       <use xlink:href="#ArialMT-32" x="194.628906"/>
       <use xlink:href="#ArialMT-2e" x="250.244141"/>
       <use xlink:href="#ArialMT-32" x="278.027344"/>
       <use xlink:href="#ArialMT-30" x="333.642578"/>
       <use xlink:href="#ArialMT-32" x="389.257812"/>
       <use xlink:href="#ArialMT-33" x="444.873047"/>
      </g>
     </g>
    </g>
    <g id="xtick_24">
     <g id="line2d_24">
      <path d="M 886.29303 531.591059 
L 886.29303 18 
" clip-path="url(#pef00828d37)" style="fill: none; stroke: #ffffff; stroke-linecap: round"/>
     </g>
     <g id="text_24">
      <!-- 24.02.2023 -->
      <g style="fill: #262626" transform="translate(860.115523 607.82962) rotate(-45) scale(0.165 -0.165)">
       <use xlink:href="#ArialMT-32"/>
       <use xlink:href="#ArialMT-34" x="55.615234"/>
       <use xlink:href="#ArialMT-2e" x="111.230469"/>
       <use xlink:href="#ArialMT-30" x="139.013672"/>
       <use xlink:href="#ArialMT-32" x="194.628906"/>
       <use xlink:href="#ArialMT-2e" x="250.244141"/>
       <use xlink:href="#ArialMT-32" x="278.027344"/>
       <use xlink:href="#ArialMT-30" x="333.642578"/>
       <use xlink:href="#ArialMT-32" x="389.257812"/>
       <use xlink:href="#ArialMT-33" x="444.873047"/>
      </g>
     </g>
    </g>
    <g id="xtick_25">
     <g id="line2d_25">
      <path d="M 919.135455 531.591059 
L 919.135455 18 
" clip-path="url(#pef00828d37)" style="fill: none; stroke: #ffffff; stroke-linecap: round"/>
     </g>
     <g id="text_25">
      <!-- 25.02.2023 -->
      <g style="fill: #262626" transform="translate(892.957947 607.82962) rotate(-45) scale(0.165 -0.165)">
       <use xlink:href="#ArialMT-32"/>
       <use xlink:href="#ArialMT-35" x="55.615234"/>
       <use xlink:href="#ArialMT-2e" x="111.230469"/>
       <use xlink:href="#ArialMT-30" x="139.013672"/>
       <use xlink:href="#ArialMT-32" x="194.628906"/>
       <use xlink:href="#ArialMT-2e" x="250.244141"/>
       <use xlink:href="#ArialMT-32" x="278.027344"/>
       <use xlink:href="#ArialMT-30" x="333.642578"/>
       <use xlink:href="#ArialMT-32" x="389.257812"/>
       <use xlink:href="#ArialMT-33" x="444.873047"/>
      </g>
     </g>
    </g>
    <g id="xtick_26">
     <g id="line2d_26">
      <path d="M 951.977879 531.591059 
L 951.977879 18 
" clip-path="url(#pef00828d37)" style="fill: none; stroke: #ffffff; stroke-linecap: round"/>
     </g>
     <g id="text_26">
      <!-- 26.02.2023 -->
      <g style="fill: #262626" transform="translate(925.800371 607.82962) rotate(-45) scale(0.165 -0.165)">
       <use xlink:href="#ArialMT-32"/>
       <use xlink:href="#ArialMT-36" x="55.615234"/>
       <use xlink:href="#ArialMT-2e" x="111.230469"/>
       <use xlink:href="#ArialMT-30" x="139.013672"/>
       <use xlink:href="#ArialMT-32" x="194.628906"/>
       <use xlink:href="#ArialMT-2e" x="250.244141"/>
       <use xlink:href="#ArialMT-32" x="278.027344"/>
       <use xlink:href="#ArialMT-30" x="333.642578"/>
       <use xlink:href="#ArialMT-32" x="389.257812"/>
       <use xlink:href="#ArialMT-33" x="444.873047"/>
      </g>
     </g>
    </g>
    <g id="xtick_27">
     <g id="line2d_27">
      <path d="M 984.820303 531.591059 
L 984.820303 18 
" clip-path="url(#pef00828d37)" style="fill: none; stroke: #ffffff; stroke-linecap: round"/>
     </g>
     <g id="text_27">
      <!-- 27.02.2023 -->
      <g style="fill: #262626" transform="translate(958.642796 607.82962) rotate(-45) scale(0.165 -0.165)">
       <use xlink:href="#ArialMT-32"/>
       <use xlink:href="#ArialMT-37" x="55.615234"/>
       <use xlink:href="#ArialMT-2e" x="111.230469"/>
       <use xlink:href="#ArialMT-30" x="139.013672"/>
       <use xlink:href="#ArialMT-32" x="194.628906"/>
       <use xlink:href="#ArialMT-2e" x="250.244141"/>
       <use xlink:href="#ArialMT-32" x="278.027344"/>
       <use xlink:href="#ArialMT-30" x="333.642578"/>
       <use xlink:href="#ArialMT-32" x="389.257812"/>
       <use xlink:href="#ArialMT-33" x="444.873047"/>
      </g>
     </g>
    </g>
    <g id="xtick_28">
     <g id="line2d_28">
      <path d="M 1017.662727 531.591059 
L 1017.662727 18 
" clip-path="url(#pef00828d37)" style="fill: none; stroke: #ffffff; stroke-linecap: round"/>
     </g>
     <g id="text_28">
      <!-- 28.02.2023 -->
      <g style="fill: #262626" transform="translate(991.48522 607.82962) rotate(-45) scale(0.165 -0.165)">
       <use xlink:href="#ArialMT-32"/>
       <use xlink:href="#ArialMT-38" x="55.615234"/>
       <use xlink:href="#ArialMT-2e" x="111.230469"/>
       <use xlink:href="#ArialMT-30" x="139.013672"/>
       <use xlink:href="#ArialMT-32" x="194.628906"/>
       <use xlink:href="#ArialMT-2e" x="250.244141"/>
       <use xlink:href="#ArialMT-32" x="278.027344"/>
       <use xlink:href="#ArialMT-30" x="333.642578"/>
       <use xlink:href="#ArialMT-32" x="389.257812"/>
       <use xlink:href="#ArialMT-33" x="444.873047"/>
      </g>
     </g>
    </g>
    <g id="text_29">
     <!-- EV adoption rate [%] -->
     <g style="fill: #262626" transform="translate(491.743125 627.251925) scale(0.18 -0.18)">
      <defs>
       <path id="ArialMT-45" d="M 506 0 
L 506 4581 
L 3819 4581 
L 3819 4041 
L 1113 4041 
L 1113 2638 
L 3647 2638 
L 3647 2100 
L 1113 2100 
L 1113 541 
L 3925 541 
L 3925 0 
L 506 0 
z
" transform="scale(0.015625)"/>
       <path id="ArialMT-56" d="M 1803 0 
L 28 4581 
L 684 4581 
L 1875 1253 
Q 2019 853 2116 503 
Q 2222 878 2363 1253 
L 3600 4581 
L 4219 4581 
L 2425 0 
L 1803 0 
z
" transform="scale(0.015625)"/>
       <path id="ArialMT-20" transform="scale(0.015625)"/>
       <path id="ArialMT-61" d="M 2588 409 
Q 2275 144 1986 34 
Q 1697 -75 1366 -75 
Q 819 -75 525 192 
Q 231 459 231 875 
Q 231 1119 342 1320 
Q 453 1522 633 1644 
Q 813 1766 1038 1828 
Q 1203 1872 1538 1913 
Q 2219 1994 2541 2106 
Q 2544 2222 2544 2253 
Q 2544 2597 2384 2738 
Q 2169 2928 1744 2928 
Q 1347 2928 1158 2789 
Q 969 2650 878 2297 
L 328 2372 
Q 403 2725 575 2942 
Q 747 3159 1072 3276 
Q 1397 3394 1825 3394 
Q 2250 3394 2515 3294 
Q 2781 3194 2906 3042 
Q 3031 2891 3081 2659 
Q 3109 2516 3109 2141 
L 3109 1391 
Q 3109 606 3145 398 
Q 3181 191 3288 0 
L 2700 0 
Q 2613 175 2588 409 
z
M 2541 1666 
Q 2234 1541 1622 1453 
Q 1275 1403 1131 1340 
Q 988 1278 909 1158 
Q 831 1038 831 891 
Q 831 666 1001 516 
Q 1172 366 1500 366 
Q 1825 366 2078 508 
Q 2331 650 2450 897 
Q 2541 1088 2541 1459 
L 2541 1666 
z
" transform="scale(0.015625)"/>
       <path id="ArialMT-64" d="M 2575 0 
L 2575 419 
Q 2259 -75 1647 -75 
Q 1250 -75 917 144 
Q 584 363 401 755 
Q 219 1147 219 1656 
Q 219 2153 384 2558 
Q 550 2963 881 3178 
Q 1213 3394 1622 3394 
Q 1922 3394 2156 3267 
Q 2391 3141 2538 2938 
L 2538 4581 
L 3097 4581 
L 3097 0 
L 2575 0 
z
M 797 1656 
Q 797 1019 1065 703 
Q 1334 388 1700 388 
Q 2069 388 2326 689 
Q 2584 991 2584 1609 
Q 2584 2291 2321 2609 
Q 2059 2928 1675 2928 
Q 1300 2928 1048 2622 
Q 797 2316 797 1656 
z
" transform="scale(0.015625)"/>
       <path id="ArialMT-6f" d="M 213 1659 
Q 213 2581 725 3025 
Q 1153 3394 1769 3394 
Q 2453 3394 2887 2945 
Q 3322 2497 3322 1706 
Q 3322 1066 3130 698 
Q 2938 331 2570 128 
Q 2203 -75 1769 -75 
Q 1072 -75 642 372 
Q 213 819 213 1659 
z
M 791 1659 
Q 791 1022 1069 705 
Q 1347 388 1769 388 
Q 2188 388 2466 706 
Q 2744 1025 2744 1678 
Q 2744 2294 2464 2611 
Q 2184 2928 1769 2928 
Q 1347 2928 1069 2612 
Q 791 2297 791 1659 
z
" transform="scale(0.015625)"/>
       <path id="ArialMT-70" d="M 422 -1272 
L 422 3319 
L 934 3319 
L 934 2888 
Q 1116 3141 1344 3267 
Q 1572 3394 1897 3394 
Q 2322 3394 2647 3175 
Q 2972 2956 3137 2557 
Q 3303 2159 3303 1684 
Q 3303 1175 3120 767 
Q 2938 359 2589 142 
Q 2241 -75 1856 -75 
Q 1575 -75 1351 44 
Q 1128 163 984 344 
L 984 -1272 
L 422 -1272 
z
M 931 1641 
Q 931 1000 1190 694 
Q 1450 388 1819 388 
Q 2194 388 2461 705 
Q 2728 1022 2728 1688 
Q 2728 2322 2467 2637 
Q 2206 2953 1844 2953 
Q 1484 2953 1207 2617 
Q 931 2281 931 1641 
z
" transform="scale(0.015625)"/>
       <path id="ArialMT-74" d="M 1650 503 
L 1731 6 
Q 1494 -44 1306 -44 
Q 1000 -44 831 53 
Q 663 150 594 308 
Q 525 466 525 972 
L 525 2881 
L 113 2881 
L 113 3319 
L 525 3319 
L 525 4141 
L 1084 4478 
L 1084 3319 
L 1650 3319 
L 1650 2881 
L 1084 2881 
L 1084 941 
Q 1084 700 1114 631 
Q 1144 563 1211 522 
Q 1278 481 1403 481 
Q 1497 481 1650 503 
z
" transform="scale(0.015625)"/>
       <path id="ArialMT-69" d="M 425 3934 
L 425 4581 
L 988 4581 
L 988 3934 
L 425 3934 
z
M 425 0 
L 425 3319 
L 988 3319 
L 988 0 
L 425 0 
z
" transform="scale(0.015625)"/>
       <path id="ArialMT-6e" d="M 422 0 
L 422 3319 
L 928 3319 
L 928 2847 
Q 1294 3394 1984 3394 
Q 2284 3394 2536 3286 
Q 2788 3178 2913 3003 
Q 3038 2828 3088 2588 
Q 3119 2431 3119 2041 
L 3119 0 
L 2556 0 
L 2556 2019 
Q 2556 2363 2490 2533 
Q 2425 2703 2258 2804 
Q 2091 2906 1866 2906 
Q 1506 2906 1245 2678 
Q 984 2450 984 1813 
L 984 0 
L 422 0 
z
" transform="scale(0.015625)"/>
       <path id="ArialMT-72" d="M 416 0 
L 416 3319 
L 922 3319 
L 922 2816 
Q 1116 3169 1280 3281 
Q 1444 3394 1641 3394 
Q 1925 3394 2219 3213 
L 2025 2691 
Q 1819 2813 1613 2813 
Q 1428 2813 1281 2702 
Q 1134 2591 1072 2394 
Q 978 2094 978 1738 
L 978 0 
L 416 0 
z
" transform="scale(0.015625)"/>
       <path id="ArialMT-65" d="M 2694 1069 
L 3275 997 
Q 3138 488 2766 206 
Q 2394 -75 1816 -75 
Q 1088 -75 661 373 
Q 234 822 234 1631 
Q 234 2469 665 2931 
Q 1097 3394 1784 3394 
Q 2450 3394 2872 2941 
Q 3294 2488 3294 1666 
Q 3294 1616 3291 1516 
L 816 1516 
Q 847 969 1125 678 
Q 1403 388 1819 388 
Q 2128 388 2347 550 
Q 2566 713 2694 1069 
z
M 847 1978 
L 2700 1978 
Q 2663 2397 2488 2606 
Q 2219 2931 1791 2931 
Q 1403 2931 1139 2672 
Q 875 2413 847 1978 
z
" transform="scale(0.015625)"/>
       <path id="ArialMT-5b" d="M 434 -1272 
L 434 4581 
L 1675 4581 
L 1675 4116 
L 997 4116 
L 997 -806 
L 1675 -806 
L 1675 -1272 
L 434 -1272 
z
" transform="scale(0.015625)"/>
       <path id="ArialMT-25" d="M 372 3481 
Q 372 3972 619 4315 
Q 866 4659 1334 4659 
Q 1766 4659 2048 4351 
Q 2331 4044 2331 3447 
Q 2331 2866 2045 2552 
Q 1759 2238 1341 2238 
Q 925 2238 648 2547 
Q 372 2856 372 3481 
z
M 1350 4272 
Q 1141 4272 1002 4090 
Q 863 3909 863 3425 
Q 863 2984 1003 2804 
Q 1144 2625 1350 2625 
Q 1563 2625 1702 2806 
Q 1841 2988 1841 3469 
Q 1841 3913 1700 4092 
Q 1559 4272 1350 4272 
z
M 1353 -169 
L 3859 4659 
L 4316 4659 
L 1819 -169 
L 1353 -169 
z
M 3334 1075 
Q 3334 1569 3581 1911 
Q 3828 2253 4300 2253 
Q 4731 2253 5014 1945 
Q 5297 1638 5297 1041 
Q 5297 459 5011 145 
Q 4725 -169 4303 -169 
Q 3888 -169 3611 142 
Q 3334 453 3334 1075 
z
M 4316 1866 
Q 4103 1866 3964 1684 
Q 3825 1503 3825 1019 
Q 3825 581 3965 400 
Q 4106 219 4313 219 
Q 4528 219 4667 400 
Q 4806 581 4806 1063 
Q 4806 1506 4665 1686 
Q 4525 1866 4316 1866 
z
" transform="scale(0.015625)"/>
       <path id="ArialMT-5d" d="M 1363 -1272 
L 122 -1272 
L 122 -806 
L 800 -806 
L 800 4116 
L 122 4116 
L 122 4581 
L 1363 4581 
L 1363 -1272 
z
" transform="scale(0.015625)"/>
      </defs>
      <use xlink:href="#ArialMT-45"/>
      <use xlink:href="#ArialMT-56" x="66.699219"/>
      <use xlink:href="#ArialMT-20" x="133.398438"/>
      <use xlink:href="#ArialMT-61" x="161.181641"/>
      <use xlink:href="#ArialMT-64" x="216.796875"/>
      <use xlink:href="#ArialMT-6f" x="272.412109"/>
      <use xlink:href="#ArialMT-70" x="328.027344"/>
      <use xlink:href="#ArialMT-74" x="383.642578"/>
      <use xlink:href="#ArialMT-69" x="411.425781"/>
      <use xlink:href="#ArialMT-6f" x="433.642578"/>
      <use xlink:href="#ArialMT-6e" x="489.257812"/>
      <use xlink:href="#ArialMT-20" x="544.873047"/>
      <use xlink:href="#ArialMT-72" x="572.65625"/>
      <use xlink:href="#ArialMT-61" x="605.957031"/>
      <use xlink:href="#ArialMT-74" x="661.572266"/>
      <use xlink:href="#ArialMT-65" x="689.355469"/>
      <use xlink:href="#ArialMT-20" x="744.970703"/>
      <use xlink:href="#ArialMT-5b" x="772.753906"/>
      <use xlink:href="#ArialMT-25" x="800.537109"/>
      <use xlink:href="#ArialMT-5d" x="889.453125"/>
     </g>
    </g>
   </g>
   <g id="matplotlib.axis_2">
    <g id="ytick_1">
     <g id="line2d_29">
      <path d="M 86.58 450.414843 
L 1062 450.414843 
" clip-path="url(#pef00828d37)" style="fill: none; stroke: #ffffff; stroke-linecap: round"/>
     </g>
     <g id="text_30">
      <!-- -20% -->
      <g style="fill: #262626" transform="translate(38.562813 456.320039) scale(0.165 -0.165)">
       <defs>
        <path id="ArialMT-2d" d="M 203 1375 
L 203 1941 
L 1931 1941 
L 1931 1375 
L 203 1375 
z
" transform="scale(0.015625)"/>
       </defs>
       <use xlink:href="#ArialMT-2d"/>
       <use xlink:href="#ArialMT-32" x="33.300781"/>
       <use xlink:href="#ArialMT-30" x="88.916016"/>
       <use xlink:href="#ArialMT-25" x="144.53125"/>
      </g>
     </g>
    </g>
    <g id="ytick_2">
     <g id="line2d_30">
      <path d="M 86.58 353.035142 
L 1062 353.035142 
" clip-path="url(#pef00828d37)" style="fill: none; stroke: #ffffff; stroke-linecap: round"/>
     </g>
     <g id="text_31">
      <!-- -10% -->
      <g style="fill: #262626" transform="translate(38.562813 358.940337) scale(0.165 -0.165)">
       <use xlink:href="#ArialMT-2d"/>
       <use xlink:href="#ArialMT-31" x="33.300781"/>
       <use xlink:href="#ArialMT-30" x="88.916016"/>
       <use xlink:href="#ArialMT-25" x="144.53125"/>
      </g>
     </g>
    </g>
    <g id="ytick_3">
     <g id="line2d_31">
      <path d="M 86.58 255.65544 
L 1062 255.65544 
" clip-path="url(#pef00828d37)" style="fill: none; stroke: #ffffff; stroke-linecap: round"/>
     </g>
     <g id="text_32">
      <!-- 0% -->
      <g style="fill: #262626" transform="translate(53.232344 261.560635) scale(0.165 -0.165)">
       <use xlink:href="#ArialMT-30"/>
       <use xlink:href="#ArialMT-25" x="55.615234"/>
      </g>
     </g>
    </g>
    <g id="ytick_4">
     <g id="line2d_32">
      <path d="M 86.58 158.275738 
L 1062 158.275738 
" clip-path="url(#pef00828d37)" style="fill: none; stroke: #ffffff; stroke-linecap: round"/>
     </g>
     <g id="text_33">
      <!-- 10% -->
      <g style="fill: #262626" transform="translate(44.056797 164.180934) scale(0.165 -0.165)">
       <use xlink:href="#ArialMT-31"/>
       <use xlink:href="#ArialMT-30" x="55.615234"/>
       <use xlink:href="#ArialMT-25" x="111.230469"/>
      </g>
     </g>
    </g>
    <g id="ytick_5">
     <g id="line2d_33">
      <path d="M 86.58 60.896037 
L 1062 60.896037 
" clip-path="url(#pef00828d37)" style="fill: none; stroke: #ffffff; stroke-linecap: round"/>
     </g>
     <g id="text_34">
      <!-- 20% -->
      <g style="fill: #262626" transform="translate(44.056797 66.801232) scale(0.165 -0.165)">
       <use xlink:href="#ArialMT-32"/>
       <use xlink:href="#ArialMT-30" x="55.615234"/>
       <use xlink:href="#ArialMT-25" x="111.230469"/>
      </g>
     </g>
    </g>
    <g id="text_35">
     <!-- VoSC [%∆] -->
     <g style="fill: #262626" transform="translate(30.985313 318.822404) rotate(-90) scale(0.18 -0.18)">
      <defs>
       <path id="ArialMT-53" d="M 288 1472 
L 859 1522 
Q 900 1178 1048 958 
Q 1197 738 1509 602 
Q 1822 466 2213 466 
Q 2559 466 2825 569 
Q 3091 672 3220 851 
Q 3350 1031 3350 1244 
Q 3350 1459 3225 1620 
Q 3100 1781 2813 1891 
Q 2628 1963 1997 2114 
Q 1366 2266 1113 2400 
Q 784 2572 623 2826 
Q 463 3081 463 3397 
Q 463 3744 659 4045 
Q 856 4347 1234 4503 
Q 1613 4659 2075 4659 
Q 2584 4659 2973 4495 
Q 3363 4331 3572 4012 
Q 3781 3694 3797 3291 
L 3216 3247 
Q 3169 3681 2898 3903 
Q 2628 4125 2100 4125 
Q 1550 4125 1298 3923 
Q 1047 3722 1047 3438 
Q 1047 3191 1225 3031 
Q 1400 2872 2139 2705 
Q 2878 2538 3153 2413 
Q 3553 2228 3743 1945 
Q 3934 1663 3934 1294 
Q 3934 928 3725 604 
Q 3516 281 3123 101 
Q 2731 -78 2241 -78 
Q 1619 -78 1198 103 
Q 778 284 539 648 
Q 300 1013 288 1472 
z
" transform="scale(0.015625)"/>
       <path id="ArialMT-43" d="M 3763 1606 
L 4369 1453 
Q 4178 706 3683 314 
Q 3188 -78 2472 -78 
Q 1731 -78 1267 223 
Q 803 525 561 1097 
Q 319 1669 319 2325 
Q 319 3041 592 3573 
Q 866 4106 1370 4382 
Q 1875 4659 2481 4659 
Q 3169 4659 3637 4309 
Q 4106 3959 4291 3325 
L 3694 3184 
Q 3534 3684 3231 3912 
Q 2928 4141 2469 4141 
Q 1941 4141 1586 3887 
Q 1231 3634 1087 3207 
Q 944 2781 944 2328 
Q 944 1744 1114 1308 
Q 1284 872 1643 656 
Q 2003 441 2422 441 
Q 2931 441 3284 734 
Q 3638 1028 3763 1606 
z
" transform="scale(0.015625)"/>
       <path id="ArialMT-2206" d="M 3831 0 
L 81 0 
L 2044 4334 
L 3831 0 
z
M 3094 256 
L 1847 3278 
L 472 256 
L 3094 256 
z
" transform="scale(0.015625)"/>
      </defs>
      <use xlink:href="#ArialMT-56"/>
      <use xlink:href="#ArialMT-6f" x="61.199219"/>
      <use xlink:href="#ArialMT-53" x="116.814453"/>
      <use xlink:href="#ArialMT-43" x="183.513672"/>
      <use xlink:href="#ArialMT-20" x="255.730469"/>
      <use xlink:href="#ArialMT-5b" x="283.513672"/>
      <use xlink:href="#ArialMT-25" x="311.296875"/>
      <use xlink:href="#ArialMT-2206" x="400.212891"/>
      <use xlink:href="#ArialMT-5d" x="461.394531"/>
     </g>
    </g>
   </g>
   <g id="PolyCollection_1">
    <defs>
     <path id="mb96e75230e" d="M 130.917273 -300.169462 
L 130.917273 -298.021042 
L 163.759697 -331.156478 
L 196.602121 -291.628402 
L 229.444545 -487.402567 
L 262.28697 -502.233667 
L 295.129394 -387.579476 
L 327.971818 -374.496532 
L 360.814242 -337.419794 
L 393.656667 -305.064232 
L 426.499091 -286.127941 
L 459.341515 -399.768825 
L 492.183939 -576.093129 
L 525.026364 -354.960306 
L 557.868788 -283.046178 
L 590.711212 -271.187107 
L 623.553636 -414.265644 
L 656.396061 -340.285147 
L 689.238485 -363.961911 
L 722.080909 -517.35682 
L 754.923333 -333.779561 
L 787.765758 -289.350834 
L 820.608182 -316.307791 
L 853.450606 -322.597118 
L 886.29303 -311.62996 
L 919.135455 -494.239999 
L 951.977879 -562.831527 
L 984.820303 -348.003426 
L 1017.662727 -343.251488 
L 1017.662727 -345.159032 
L 1017.662727 -345.159032 
L 984.820303 -380.454148 
L 951.977879 -606.654952 
L 919.135455 -527.55098 
L 886.29303 -313.550082 
L 853.450606 -323.739201 
L 820.608182 -318.364986 
L 787.765758 -293.296737 
L 754.923333 -366.918217 
L 722.080909 -520.583858 
L 689.238485 -373.309087 
L 656.396061 -340.866155 
L 623.553636 -444.801533 
L 590.711212 -277.08149 
L 557.868788 -287.053907 
L 525.026364 -383.878284 
L 492.183939 -577.931347 
L 459.341515 -403.704056 
L 426.499091 -293.110127 
L 393.656667 -310.278482 
L 360.814242 -347.941962 
L 327.971818 -375.843721 
L 295.129394 -389.951225 
L 262.28697 -554.235988 
L 229.444545 -522.781645 
L 196.602121 -295.303372 
L 163.759697 -333.102707 
L 130.917273 -300.169462 
z
" style="stroke: #1f77b4; stroke-opacity: 0.2"/>
    </defs>
    <g clip-path="url(#pef00828d37)">
     <use xlink:href="#mb96e75230e" x="0" y="648" style="fill: #1f77b4; fill-opacity: 0.2; stroke: #1f77b4; stroke-opacity: 0.2"/>
    </g>
   </g>
   <g id="PolyCollection_2">
    <defs>
     <path id="mb8b276b6c0" d="M 130.917273 -205.723604 
L 130.917273 -203.715692 
L 163.759697 -267.959738 
L 196.602121 -199.596583 
L 229.444545 -306.366571 
L 262.28697 -338.819462 
L 295.129394 -301.177959 
L 327.971818 -346.366027 
L 360.814242 -224.633091 
L 393.656667 -249.654909 
L 426.499091 -220.551863 
L 459.341515 -312.873152 
L 492.183939 -317.108837 
L 525.026364 -214.637414 
L 557.868788 -215.298683 
L 590.711212 -212.181259 
L 623.553636 -220.071401 
L 656.396061 -225.12282 
L 689.238485 -246.835579 
L 722.080909 -139.75399 
L 754.923333 -156.445793 
L 787.765758 -217.682714 
L 820.608182 -230.326132 
L 853.450606 -241.548877 
L 886.29303 -251.180097 
L 919.135455 -293.029588 
L 951.977879 -314.383988 
L 984.820303 -268.33142 
L 1017.662727 -263.235817 
L 1017.662727 -264.742032 
L 1017.662727 -264.742032 
L 984.820303 -270.167971 
L 951.977879 -316.714839 
L 919.135455 -294.362726 
L 886.29303 -252.369028 
L 853.450606 -242.809812 
L 820.608182 -232.073301 
L 787.765758 -219.010377 
L 754.923333 -160.288929 
L 722.080909 -142.684541 
L 689.238485 -250.639477 
L 656.396061 -229.499957 
L 623.553636 -222.169125 
L 590.711212 -213.476007 
L 557.868788 -216.373826 
L 525.026364 -215.649961 
L 492.183939 -318.996748 
L 459.341515 -314.469781 
L 426.499091 -221.285972 
L 393.656667 -250.774457 
L 360.814242 -225.046528 
L 327.971818 -347.985683 
L 295.129394 -302.334479 
L 262.28697 -340.125774 
L 229.444545 -306.936799 
L 196.602121 -202.818787 
L 163.759697 -271.269102 
L 130.917273 -205.723604 
z
" style="stroke: #ff7f0e; stroke-opacity: 0.2"/>
    </defs>
    <g clip-path="url(#pef00828d37)">
     <use xlink:href="#mb8b276b6c0" x="0" y="648" style="fill: #ff7f0e; fill-opacity: 0.2; stroke: #ff7f0e; stroke-opacity: 0.2"/>
    </g>
   </g>
   <g id="PolyCollection_3">
    <defs>
     <path id="mb3d3912c24" d="M 130.917273 -249.231578 
L 130.917273 -247.828159 
L 163.759697 -305.385899 
L 196.602121 -281.795191 
L 229.444545 -369.518799 
L 262.28697 -383.836979 
L 295.129394 -316.050879 
L 327.971818 -351.55653 
L 360.814242 -246.420246 
L 393.656667 -257.615191 
L 426.499091 -242.643149 
L 459.341515 -363.729186 
L 492.183939 -345.913593 
L 525.026364 -226.335757 
L 557.868788 -222.321507 
L 590.711212 -236.510401 
L 623.553636 -238.907094 
L 656.396061 -258.914444 
L 689.238485 -329.60937 
L 722.080909 -193.395755 
L 754.923333 -210.494041 
L 787.765758 -240.980102 
L 820.608182 -271.957619 
L 853.450606 -270.568458 
L 886.29303 -263.744518 
L 919.135455 -329.671139 
L 951.977879 -363.688193 
L 984.820303 -318.47553 
L 1017.662727 -307.819037 
L 1017.662727 -308.524003 
L 1017.662727 -308.524003 
L 984.820303 -320.079608 
L 951.977879 -365.282056 
L 919.135455 -331.327826 
L 886.29303 -264.705515 
L 853.450606 -271.97919 
L 820.608182 -273.830068 
L 787.765758 -241.939838 
L 754.923333 -214.254042 
L 722.080909 -196.27211 
L 689.238485 -332.993938 
L 656.396061 -263.49098 
L 623.553636 -240.830613 
L 590.711212 -237.608602 
L 557.868788 -223.221842 
L 525.026364 -227.277362 
L 492.183939 -347.801827 
L 459.341515 -365.060405 
L 426.499091 -242.984821 
L 393.656667 -258.410396 
L 360.814242 -246.815324 
L 327.971818 -353.158931 
L 295.129394 -316.661593 
L 262.28697 -384.630717 
L 229.444545 -370.135327 
L 196.602121 -285.865101 
L 163.759697 -308.528767 
L 130.917273 -249.231578 
z
" style="stroke: #2ca02c; stroke-opacity: 0.2"/>
    </defs>
    <g clip-path="url(#pef00828d37)">
     <use xlink:href="#mb3d3912c24" x="0" y="648" style="fill: #2ca02c; fill-opacity: 0.2; stroke: #2ca02c; stroke-opacity: 0.2"/>
    </g>
   </g>
   <g id="line2d_34">
    <path d="M 130.917273 348.869804 
L 163.759697 315.891875 
L 196.602121 354.556605 
L 229.444545 141.970381 
L 262.28697 118.6792 
L 295.129394 259.233936 
L 327.971818 272.875841 
L 360.814242 305.119967 
L 393.656667 340.341314 
L 426.499091 358.389095 
L 459.341515 246.2941 
L 492.183939 71.035036 
L 525.026364 278.797599 
L 557.868788 363.045634 
L 590.711212 373.8724 
L 623.553636 218.41366 
L 656.396061 307.426267 
L 689.238485 279.515686 
L 722.080909 128.987372 
L 754.923333 298.303849 
L 787.765758 356.700996 
L 820.608182 330.691666 
L 853.450606 324.835354 
L 886.29303 335.404871 
L 919.135455 137.177109 
L 951.977879 62.201305 
L 984.820303 284.631546 
L 1017.662727 303.826795 
" clip-path="url(#pef00828d37)" style="fill: none; stroke: #1f77b4; stroke-width: 1.5; stroke-linecap: round"/>
   </g>
   <g id="line2d_35">
    <path d="M 130.917273 443.261717 
L 163.759697 378.419214 
L 196.602121 446.752018 
L 229.444545 341.34726 
L 262.28697 308.531429 
L 295.129394 346.242473 
L 327.971818 300.864499 
L 360.814242 423.163714 
L 393.656667 397.797757 
L 426.499091 427.079298 
L 459.341515 334.36821 
L 492.183939 329.981418 
L 525.026364 432.869672 
L 557.868788 432.174814 
L 590.711212 435.160608 
L 623.553636 426.905442 
L 656.396061 420.720449 
L 689.238485 399.406105 
L 722.080909 506.783929 
L 754.923333 489.642892 
L 787.765758 429.669825 
L 820.608182 416.822814 
L 853.450606 405.840398 
L 886.29303 396.241911 
L 919.135455 354.351519 
L 951.977879 332.514813 
L 984.820303 378.780021 
L 1017.662727 384.072469 
" clip-path="url(#pef00828d37)" style="fill: none; stroke: #ff7f0e; stroke-width: 1.5; stroke-linecap: round"/>
   </g>
   <g id="line2d_36">
    <path d="M 130.917273 399.505841 
L 163.759697 341.141462 
L 196.602121 364.258809 
L 229.444545 278.182243 
L 262.28697 263.771752 
L 295.129394 331.657932 
L 327.971818 295.690397 
L 360.814242 401.389566 
L 393.656667 390.002507 
L 426.499091 405.179733 
L 459.341515 283.641873 
L 492.183939 301.192799 
L 525.026364 421.188969 
L 557.868788 425.273798 
L 590.711212 410.955318 
L 623.553636 408.121583 
L 656.396061 386.856943 
L 689.238485 316.79501 
L 722.080909 453.198806 
L 754.923333 435.653494 
L 787.765758 406.555603 
L 820.608182 375.143137 
L 853.450606 376.736779 
L 886.29303 383.796512 
L 919.135455 317.534449 
L 951.977879 283.490998 
L 984.820303 328.734603 
L 1017.662727 339.830974 
" clip-path="url(#pef00828d37)" style="fill: none; stroke: #2ca02c; stroke-width: 1.5; stroke-linecap: round"/>
   </g>
   <g id="line2d_37"/>
   <g id="line2d_38"/>
   <g id="line2d_39"/>
   <g id="patch_3">
    <path d="M 86.58 531.591059 
L 86.58 18 
" style="fill: none; stroke: #ffffff; stroke-width: 1.25; stroke-linejoin: miter; stroke-linecap: square"/>
   </g>
   <g id="patch_4">
    <path d="M 1062 531.591059 
L 1062 18 
" style="fill: none; stroke: #ffffff; stroke-width: 1.25; stroke-linejoin: miter; stroke-linecap: square"/>
   </g>
   <g id="patch_5">
    <path d="M 86.58 531.591059 
L 1062 531.591059 
" style="fill: none; stroke: #ffffff; stroke-width: 1.25; stroke-linejoin: miter; stroke-linecap: square"/>
   </g>
   <g id="patch_6">
    <path d="M 86.58 18 
L 1062 18 
" style="fill: none; stroke: #ffffff; stroke-width: 1.25; stroke-linejoin: miter; stroke-linecap: square"/>
   </g>
   <g id="legend_1">
    <g id="patch_7">
     <path d="M 98.13 127.325156 
L 463.282734 127.325156 
Q 466.582734 127.325156 466.582734 124.025156 
L 466.582734 29.55 
Q 466.582734 26.25 463.282734 26.25 
L 98.13 26.25 
Q 94.83 26.25 94.83 29.55 
L 94.83 124.025156 
Q 94.83 127.325156 98.13 127.325156 
z
" style="fill: #eaeaf2; opacity: 0.8; stroke: #cccccc; stroke-linejoin: miter"/>
    </g>
    <g id="text_36">
     <!-- Model Type -->
     <g style="fill: #262626" transform="translate(234.340898 45.734062) scale(0.18 -0.18)">
      <defs>
       <path id="ArialMT-4d" d="M 475 0 
L 475 4581 
L 1388 4581 
L 2472 1338 
Q 2622 884 2691 659 
Q 2769 909 2934 1394 
L 4031 4581 
L 4847 4581 
L 4847 0 
L 4263 0 
L 4263 3834 
L 2931 0 
L 2384 0 
L 1059 3900 
L 1059 0 
L 475 0 
z
" transform="scale(0.015625)"/>
       <path id="ArialMT-6c" d="M 409 0 
L 409 4581 
L 972 4581 
L 972 0 
L 409 0 
z
" transform="scale(0.015625)"/>
       <path id="ArialMT-54" d="M 1659 0 
L 1659 4041 
L 150 4041 
L 150 4581 
L 3781 4581 
L 3781 4041 
L 2266 4041 
L 2266 0 
L 1659 0 
z
" transform="scale(0.015625)"/>
       <path id="ArialMT-79" d="M 397 -1278 
L 334 -750 
Q 519 -800 656 -800 
Q 844 -800 956 -737 
Q 1069 -675 1141 -563 
Q 1194 -478 1313 -144 
Q 1328 -97 1363 -6 
L 103 3319 
L 709 3319 
L 1400 1397 
Q 1534 1031 1641 628 
Q 1738 1016 1872 1384 
L 2581 3319 
L 3144 3319 
L 1881 -56 
Q 1678 -603 1566 -809 
Q 1416 -1088 1222 -1217 
Q 1028 -1347 759 -1347 
Q 597 -1347 397 -1278 
z
" transform="scale(0.015625)"/>
      </defs>
      <use xlink:href="#ArialMT-4d"/>
      <use xlink:href="#ArialMT-6f" x="83.300781"/>
      <use xlink:href="#ArialMT-64" x="138.916016"/>
      <use xlink:href="#ArialMT-65" x="194.53125"/>
      <use xlink:href="#ArialMT-6c" x="250.146484"/>
      <use xlink:href="#ArialMT-20" x="272.363281"/>
      <use xlink:href="#ArialMT-54" x="298.396484"/>
      <use xlink:href="#ArialMT-79" x="353.980469"/>
      <use xlink:href="#ArialMT-70" x="403.980469"/>
      <use xlink:href="#ArialMT-65" x="459.595703"/>
     </g>
    </g>
    <g id="line2d_40">
     <path d="M 101.43 64.008984 
L 117.93 64.008984 
L 134.43 64.008984 
" style="fill: none; stroke: #1f77b4; stroke-width: 1.5; stroke-linecap: round"/>
    </g>
    <g id="text_37">
     <!-- Peak Minimisation &amp; Valley Filling (PM-VF) -->
     <g style="fill: #262626" transform="translate(147.63 69.783984) scale(0.165 -0.165)">
      <defs>
       <path id="ArialMT-50" d="M 494 0 
L 494 4581 
L 2222 4581 
Q 2678 4581 2919 4538 
Q 3256 4481 3484 4323 
Q 3713 4166 3852 3881 
Q 3991 3597 3991 3256 
Q 3991 2672 3619 2267 
Q 3247 1863 2275 1863 
L 1100 1863 
L 1100 0 
L 494 0 
z
M 1100 2403 
L 2284 2403 
Q 2872 2403 3119 2622 
Q 3366 2841 3366 3238 
Q 3366 3525 3220 3729 
Q 3075 3934 2838 4000 
Q 2684 4041 2272 4041 
L 1100 4041 
L 1100 2403 
z
" transform="scale(0.015625)"/>
       <path id="ArialMT-6b" d="M 425 0 
L 425 4581 
L 988 4581 
L 988 1969 
L 2319 3319 
L 3047 3319 
L 1778 2088 
L 3175 0 
L 2481 0 
L 1384 1697 
L 988 1316 
L 988 0 
L 425 0 
z
" transform="scale(0.015625)"/>
       <path id="ArialMT-6d" d="M 422 0 
L 422 3319 
L 925 3319 
L 925 2853 
Q 1081 3097 1340 3245 
Q 1600 3394 1931 3394 
Q 2300 3394 2536 3241 
Q 2772 3088 2869 2813 
Q 3263 3394 3894 3394 
Q 4388 3394 4653 3120 
Q 4919 2847 4919 2278 
L 4919 0 
L 4359 0 
L 4359 2091 
Q 4359 2428 4304 2576 
Q 4250 2725 4106 2815 
Q 3963 2906 3769 2906 
Q 3419 2906 3187 2673 
Q 2956 2441 2956 1928 
L 2956 0 
L 2394 0 
L 2394 2156 
Q 2394 2531 2256 2718 
Q 2119 2906 1806 2906 
Q 1569 2906 1367 2781 
Q 1166 2656 1075 2415 
Q 984 2175 984 1722 
L 984 0 
L 422 0 
z
" transform="scale(0.015625)"/>
       <path id="ArialMT-73" d="M 197 991 
L 753 1078 
Q 800 744 1014 566 
Q 1228 388 1613 388 
Q 2000 388 2187 545 
Q 2375 703 2375 916 
Q 2375 1106 2209 1216 
Q 2094 1291 1634 1406 
Q 1016 1563 777 1677 
Q 538 1791 414 1992 
Q 291 2194 291 2438 
Q 291 2659 392 2848 
Q 494 3038 669 3163 
Q 800 3259 1026 3326 
Q 1253 3394 1513 3394 
Q 1903 3394 2198 3281 
Q 2494 3169 2634 2976 
Q 2775 2784 2828 2463 
L 2278 2388 
Q 2241 2644 2061 2787 
Q 1881 2931 1553 2931 
Q 1166 2931 1000 2803 
Q 834 2675 834 2503 
Q 834 2394 903 2306 
Q 972 2216 1119 2156 
Q 1203 2125 1616 2013 
Q 2213 1853 2448 1751 
Q 2684 1650 2818 1456 
Q 2953 1263 2953 975 
Q 2953 694 2789 445 
Q 2625 197 2315 61 
Q 2006 -75 1616 -75 
Q 969 -75 630 194 
Q 291 463 197 991 
z
" transform="scale(0.015625)"/>
       <path id="ArialMT-26" d="M 3041 541 
Q 2763 231 2434 76 
Q 2106 -78 1725 -78 
Q 1022 -78 609 397 
Q 275 784 275 1263 
Q 275 1688 548 2030 
Q 822 2372 1366 2631 
Q 1056 2988 953 3209 
Q 850 3431 850 3638 
Q 850 4050 1173 4354 
Q 1497 4659 1988 4659 
Q 2456 4659 2754 4371 
Q 3053 4084 3053 3681 
Q 3053 3028 2188 2566 
L 3009 1519 
Q 3150 1794 3228 2156 
L 3813 2031 
Q 3663 1431 3406 1044 
Q 3722 625 4122 341 
L 3744 -106 
Q 3403 113 3041 541 
z
M 1897 2928 
Q 2263 3144 2370 3306 
Q 2478 3469 2478 3666 
Q 2478 3900 2329 4048 
Q 2181 4197 1959 4197 
Q 1731 4197 1579 4050 
Q 1428 3903 1428 3691 
Q 1428 3584 1483 3467 
Q 1538 3350 1647 3219 
L 1897 2928 
z
M 2688 984 
L 1656 2263 
Q 1200 1991 1040 1758 
Q 881 1525 881 1297 
Q 881 1019 1103 719 
Q 1325 419 1731 419 
Q 1984 419 2254 576 
Q 2525 734 2688 984 
z
" transform="scale(0.015625)"/>
       <path id="ArialMT-46" d="M 525 0 
L 525 4581 
L 3616 4581 
L 3616 4041 
L 1131 4041 
L 1131 2622 
L 3281 2622 
L 3281 2081 
L 1131 2081 
L 1131 0 
L 525 0 
z
" transform="scale(0.015625)"/>
       <path id="ArialMT-67" d="M 319 -275 
L 866 -356 
Q 900 -609 1056 -725 
Q 1266 -881 1628 -881 
Q 2019 -881 2231 -725 
Q 2444 -569 2519 -288 
Q 2563 -116 2559 434 
Q 2191 0 1641 0 
Q 956 0 581 494 
Q 206 988 206 1678 
Q 206 2153 378 2554 
Q 550 2956 876 3175 
Q 1203 3394 1644 3394 
Q 2231 3394 2613 2919 
L 2613 3319 
L 3131 3319 
L 3131 450 
Q 3131 -325 2973 -648 
Q 2816 -972 2473 -1159 
Q 2131 -1347 1631 -1347 
Q 1038 -1347 672 -1080 
Q 306 -813 319 -275 
z
M 784 1719 
Q 784 1066 1043 766 
Q 1303 466 1694 466 
Q 2081 466 2343 764 
Q 2606 1063 2606 1700 
Q 2606 2309 2336 2618 
Q 2066 2928 1684 2928 
Q 1309 2928 1046 2623 
Q 784 2319 784 1719 
z
" transform="scale(0.015625)"/>
       <path id="ArialMT-28" d="M 1497 -1347 
Q 1031 -759 709 28 
Q 388 816 388 1659 
Q 388 2403 628 3084 
Q 909 3875 1497 4659 
L 1900 4659 
Q 1522 4009 1400 3731 
Q 1209 3300 1100 2831 
Q 966 2247 966 1656 
Q 966 153 1900 -1347 
L 1497 -1347 
z
" transform="scale(0.015625)"/>
       <path id="ArialMT-29" d="M 791 -1347 
L 388 -1347 
Q 1322 153 1322 1656 
Q 1322 2244 1188 2822 
Q 1081 3291 891 3722 
Q 769 4003 388 4659 
L 791 4659 
Q 1378 3875 1659 3084 
Q 1900 2403 1900 1659 
Q 1900 816 1576 28 
Q 1253 -759 791 -1347 
z
" transform="scale(0.015625)"/>
      </defs>
      <use xlink:href="#ArialMT-50"/>
      <use xlink:href="#ArialMT-65" x="66.699219"/>
      <use xlink:href="#ArialMT-61" x="122.314453"/>
      <use xlink:href="#ArialMT-6b" x="177.929688"/>
      <use xlink:href="#ArialMT-20" x="227.929688"/>
      <use xlink:href="#ArialMT-4d" x="255.712891"/>
      <use xlink:href="#ArialMT-69" x="339.013672"/>
      <use xlink:href="#ArialMT-6e" x="361.230469"/>
      <use xlink:href="#ArialMT-69" x="416.845703"/>
      <use xlink:href="#ArialMT-6d" x="439.0625"/>
      <use xlink:href="#ArialMT-69" x="522.363281"/>
      <use xlink:href="#ArialMT-73" x="544.580078"/>
      <use xlink:href="#ArialMT-61" x="594.580078"/>
      <use xlink:href="#ArialMT-74" x="650.195312"/>
      <use xlink:href="#ArialMT-69" x="677.978516"/>
      <use xlink:href="#ArialMT-6f" x="700.195312"/>
      <use xlink:href="#ArialMT-6e" x="755.810547"/>
      <use xlink:href="#ArialMT-20" x="811.425781"/>
      <use xlink:href="#ArialMT-26" x="839.208984"/>
      <use xlink:href="#ArialMT-20" x="905.908203"/>
      <use xlink:href="#ArialMT-56" x="933.691406"/>
      <use xlink:href="#ArialMT-61" x="993.015625"/>
      <use xlink:href="#ArialMT-6c" x="1048.630859"/>
      <use xlink:href="#ArialMT-6c" x="1070.847656"/>
      <use xlink:href="#ArialMT-65" x="1093.064453"/>
      <use xlink:href="#ArialMT-79" x="1148.679688"/>
      <use xlink:href="#ArialMT-20" x="1198.679688"/>
      <use xlink:href="#ArialMT-46" x="1226.462891"/>
      <use xlink:href="#ArialMT-69" x="1287.546875"/>
      <use xlink:href="#ArialMT-6c" x="1309.763672"/>
      <use xlink:href="#ArialMT-6c" x="1331.980469"/>
      <use xlink:href="#ArialMT-69" x="1354.197266"/>
      <use xlink:href="#ArialMT-6e" x="1376.414062"/>
      <use xlink:href="#ArialMT-67" x="1432.029297"/>
      <use xlink:href="#ArialMT-20" x="1487.644531"/>
      <use xlink:href="#ArialMT-28" x="1515.427734"/>
      <use xlink:href="#ArialMT-50" x="1548.728516"/>
      <use xlink:href="#ArialMT-4d" x="1615.427734"/>
      <use xlink:href="#ArialMT-2d" x="1698.728516"/>
      <use xlink:href="#ArialMT-56" x="1732.029297"/>
      <use xlink:href="#ArialMT-46" x="1798.728516"/>
      <use xlink:href="#ArialMT-29" x="1859.8125"/>
     </g>
    </g>
    <g id="line2d_41">
     <path d="M 101.43 87.743203 
L 117.93 87.743203 
L 134.43 87.743203 
" style="fill: none; stroke: #ff7f0e; stroke-width: 1.5; stroke-linecap: round"/>
    </g>
    <g id="text_38">
     <!-- Charging Cost Minimisation (CCM) -->
     <g style="fill: #262626" transform="translate(147.63 93.518203) scale(0.165 -0.165)">
      <defs>
       <path id="ArialMT-68" d="M 422 0 
L 422 4581 
L 984 4581 
L 984 2938 
Q 1378 3394 1978 3394 
Q 2347 3394 2619 3248 
Q 2891 3103 3008 2847 
Q 3125 2591 3125 2103 
L 3125 0 
L 2563 0 
L 2563 2103 
Q 2563 2525 2380 2717 
Q 2197 2909 1863 2909 
Q 1613 2909 1392 2779 
Q 1172 2650 1078 2428 
Q 984 2206 984 1816 
L 984 0 
L 422 0 
z
" transform="scale(0.015625)"/>
      </defs>
      <use xlink:href="#ArialMT-43"/>
      <use xlink:href="#ArialMT-68" x="72.216797"/>
      <use xlink:href="#ArialMT-61" x="127.832031"/>
      <use xlink:href="#ArialMT-72" x="183.447266"/>
      <use xlink:href="#ArialMT-67" x="216.748047"/>
      <use xlink:href="#ArialMT-69" x="272.363281"/>
      <use xlink:href="#ArialMT-6e" x="294.580078"/>
      <use xlink:href="#ArialMT-67" x="350.195312"/>
      <use xlink:href="#ArialMT-20" x="405.810547"/>
      <use xlink:href="#ArialMT-43" x="433.59375"/>
      <use xlink:href="#ArialMT-6f" x="505.810547"/>
      <use xlink:href="#ArialMT-73" x="561.425781"/>
      <use xlink:href="#ArialMT-74" x="611.425781"/>
      <use xlink:href="#ArialMT-20" x="639.208984"/>
      <use xlink:href="#ArialMT-4d" x="666.992188"/>
      <use xlink:href="#ArialMT-69" x="750.292969"/>
      <use xlink:href="#ArialMT-6e" x="772.509766"/>
      <use xlink:href="#ArialMT-69" x="828.125"/>
      <use xlink:href="#ArialMT-6d" x="850.341797"/>
      <use xlink:href="#ArialMT-69" x="933.642578"/>
      <use xlink:href="#ArialMT-73" x="955.859375"/>
      <use xlink:href="#ArialMT-61" x="1005.859375"/>
      <use xlink:href="#ArialMT-74" x="1061.474609"/>
      <use xlink:href="#ArialMT-69" x="1089.257812"/>
      <use xlink:href="#ArialMT-6f" x="1111.474609"/>
      <use xlink:href="#ArialMT-6e" x="1167.089844"/>
      <use xlink:href="#ArialMT-20" x="1222.705078"/>
      <use xlink:href="#ArialMT-28" x="1250.488281"/>
      <use xlink:href="#ArialMT-43" x="1283.789062"/>
      <use xlink:href="#ArialMT-43" x="1356.005859"/>
      <use xlink:href="#ArialMT-4d" x="1428.222656"/>
      <use xlink:href="#ArialMT-29" x="1511.523438"/>
     </g>
    </g>
    <g id="line2d_42">
     <path d="M 101.43 111.477422 
L 117.93 111.477422 
L 134.43 111.477422 
" style="fill: none; stroke: #2ca02c; stroke-width: 1.5; stroke-linecap: round"/>
    </g>
    <g id="text_39">
     <!-- Carbon Emission Minimisation (CEM) -->
     <g style="fill: #262626" transform="translate(147.63 117.252422) scale(0.165 -0.165)">
      <defs>
       <path id="ArialMT-62" d="M 941 0 
L 419 0 
L 419 4581 
L 981 4581 
L 981 2947 
Q 1338 3394 1891 3394 
Q 2197 3394 2470 3270 
Q 2744 3147 2920 2923 
Q 3097 2700 3197 2384 
Q 3297 2069 3297 1709 
Q 3297 856 2875 390 
Q 2453 -75 1863 -75 
Q 1275 -75 941 416 
L 941 0 
z
M 934 1684 
Q 934 1088 1097 822 
Q 1363 388 1816 388 
Q 2184 388 2453 708 
Q 2722 1028 2722 1663 
Q 2722 2313 2464 2622 
Q 2206 2931 1841 2931 
Q 1472 2931 1203 2611 
Q 934 2291 934 1684 
z
" transform="scale(0.015625)"/>
      </defs>
      <use xlink:href="#ArialMT-43"/>
      <use xlink:href="#ArialMT-61" x="72.216797"/>
      <use xlink:href="#ArialMT-72" x="127.832031"/>
      <use xlink:href="#ArialMT-62" x="161.132812"/>
      <use xlink:href="#ArialMT-6f" x="216.748047"/>
      <use xlink:href="#ArialMT-6e" x="272.363281"/>
      <use xlink:href="#ArialMT-20" x="327.978516"/>
      <use xlink:href="#ArialMT-45" x="355.761719"/>
      <use xlink:href="#ArialMT-6d" x="422.460938"/>
      <use xlink:href="#ArialMT-69" x="505.761719"/>
      <use xlink:href="#ArialMT-73" x="527.978516"/>
      <use xlink:href="#ArialMT-73" x="577.978516"/>
      <use xlink:href="#ArialMT-69" x="627.978516"/>
      <use xlink:href="#ArialMT-6f" x="650.195312"/>
      <use xlink:href="#ArialMT-6e" x="705.810547"/>
      <use xlink:href="#ArialMT-20" x="761.425781"/>
      <use xlink:href="#ArialMT-4d" x="789.208984"/>
      <use xlink:href="#ArialMT-69" x="872.509766"/>
      <use xlink:href="#ArialMT-6e" x="894.726562"/>
      <use xlink:href="#ArialMT-69" x="950.341797"/>
      <use xlink:href="#ArialMT-6d" x="972.558594"/>
      <use xlink:href="#ArialMT-69" x="1055.859375"/>
      <use xlink:href="#ArialMT-73" x="1078.076172"/>
      <use xlink:href="#ArialMT-61" x="1128.076172"/>
      <use xlink:href="#ArialMT-74" x="1183.691406"/>
      <use xlink:href="#ArialMT-69" x="1211.474609"/>
      <use xlink:href="#ArialMT-6f" x="1233.691406"/>
      <use xlink:href="#ArialMT-6e" x="1289.306641"/>
      <use xlink:href="#ArialMT-20" x="1344.921875"/>
      <use xlink:href="#ArialMT-28" x="1372.705078"/>
      <use xlink:href="#ArialMT-43" x="1406.005859"/>
      <use xlink:href="#ArialMT-45" x="1478.222656"/>
      <use xlink:href="#ArialMT-4d" x="1544.921875"/>
      <use xlink:href="#ArialMT-29" x="1628.222656"/>
     </g>
    </g>
   </g>
  </g>
 </g>
 <defs>
  <clipPath id="pef00828d37">
   <rect x="86.58" y="18" width="975.42" height="513.591059"/>
  </clipPath>
 </defs>
</svg>
